EncodeSansCondensed-SemiBold.ufo
<glyph name="exclam" format="2">
  <advance width="500.3636363636364"/>
  <unicode hex="0021"/>
  <outline>
    <contour>
      <point x="176.0" y="433.8181818181818" type="line"/>
      <point x="326.5454545454545" y="433.8181818181818" type="line"/>
      <point x="380.0" y="947.8181818181818" type="line"/>
      <point x="380.0" y="1480.0" type="line"/>
      <point x="120.36363636363637" y="1480.0" type="line"/>
      <point x="120.36363636363637" y="947.8181818181818" type="line"/>
    </contour>
    <contour>
      <point x="250.1818181818182" y="-15.454545454545453" type="curve" smooth="yes"/>
      <point x="345.09090909090907" y="-15.454545454545453"/>
      <point x="412.5454545454545" y="47.81818181818181"/>
      <point x="412.5454545454545" y="141.45454545454544" type="curve" smooth="yes"/>
      <point x="412.5454545454545" y="235.0909090909091"/>
      <point x="347.27272727272725" y="299.27272727272725"/>
      <point x="250.1818181818182" y="299.27272727272725" type="curve" smooth="yes"/>
      <point x="153.0909090909091" y="299.27272727272725"/>
      <point x="87.81818181818181" y="237.27272727272725"/>
      <point x="87.81818181818181" y="141.45454545454544" type="curve" smooth="yes"/>
      <point x="87.81818181818181" y="45.63636363636363"/>
      <point x="155.27272727272728" y="-15.454545454545453"/>
    </contour>
  </outline>
</glyph>
<glyph name="quotedbl" format="2">
  <advance width="759.8181818181818"/>
  <unicode hex="0022"/>
  <outline>
    <contour>
      <point x="125.81818181818181" y="877.4545454545455" type="line"/>
      <point x="274.9090909090909" y="877.4545454545455" type="line"/>
      <point x="324.3636363636364" y="1616.0" type="line"/>
      <point x="76.36363636363637" y="1616.0" type="line"/>
    </contour>
    <contour>
      <point x="484.9090909090909" y="877.4545454545455" type="line"/>
      <point x="634.0" y="877.4545454545455" type="line"/>
      <point x="683.4545454545455" y="1616.0" type="line"/>
      <point x="435.45454545454544" y="1616.0" type="line"/>
    </contour>
  </outline>
</glyph>
<glyph name="numbersign" format="2">
  <advance width="1109.090909090909"/>
  <unicode hex="0023"/>
  <outline>
    <contour>
      <point x="578.3636363636364" y="0.0" type="line"/>
      <point x="765.4545454545455" y="0.0" type="line"/>
      <point x="889.4545454545455" y="1480.0" type="line"/>
      <point x="702.3636363636364" y="1480.0" type="line"/>
    </contour>
    <contour>
      <point x="90.0" y="431.8181818181818" type="line"/>
      <point x="1019.0909090909091" y="431.8181818181818" type="line"/>
      <point x="1019.0909090909091" y="617.8181818181818" type="line"/>
      <point x="90.0" y="617.8181818181818" type="line"/>
    </contour>
    <contour>
      <point x="219.63636363636363" y="0.0" type="line"/>
      <point x="406.72727272727275" y="0.0" type="line"/>
      <point x="530.7272727272727" y="1480.0" type="line"/>
      <point x="343.6363636363636" y="1480.0" type="line"/>
    </contour>
    <contour>
      <point x="90.0" y="862.1818181818182" type="line"/>
      <point x="1019.0909090909091" y="862.1818181818182" type="line"/>
      <point x="1019.0909090909091" y="1048.1818181818182" type="line"/>
      <point x="90.0" y="1048.1818181818182" type="line"/>
    </contour>
  </outline>
</glyph>
<glyph name="dollar" format="2">
  <advance width="966.3636363636364"/>
  <unicode hex="0024"/>
  <outline>
    <contour>
      <point x="403.27272727272725" y="-19.09090909090909" type="curve" smooth="yes"/>
      <point x="736.9090909090909" y="-19.09090909090909"/>
      <point x="924.5454545454545" y="146.0"/>
      <point x="924.5454545454545" y="419.6363636363636" type="curve" smooth="yes"/>
      <point x="924.5454545454545" y="645.2727272727273"/>
      <point x="796.1818181818181" y="769.6363636363636"/>
      <point x="580.0" y="842.5454545454545" type="curve" smooth="yes"/>
      <point x="490.9090909090909" y="872.5454545454545" type="line" smooth="yes"/>
      <point x="338.9090909090909" y="925.0909090909091"/>
      <point x="289.45454545454544" y="978.5454545454545"/>
      <point x="289.45454545454544" y="1085.8181818181818" type="curve" smooth="yes"/>
      <point x="289.45454545454544" y="1209.6363636363637"/>
      <point x="370.5454545454545" y="1290.1818181818182"/>
      <point x="596.5454545454545" y="1290.1818181818182" type="curve" smooth="yes"/>
      <point x="679.4545454545455" y="1290.1818181818182"/>
      <point x="772.5454545454545" y="1279.090909090909"/>
      <point x="855.2727272727273" y="1255.4545454545455" type="curve"/>
      <point x="855.2727272727273" y="1464.1818181818182" type="line"/>
      <point x="778.5454545454545" y="1486.0"/>
      <point x="673.0909090909091" y="1499.090909090909"/>
      <point x="577.6363636363636" y="1499.090909090909" type="curve" smooth="yes"/>
      <point x="218.0" y="1499.090909090909"/>
      <point x="41.81818181818182" y="1335.2727272727273"/>
      <point x="41.81818181818182" y="1067.6363636363637" type="curve" smooth="yes"/>
      <point x="41.81818181818182" y="848.1818181818182"/>
      <point x="171.45454545454547" y="721.2727272727273"/>
      <point x="368.72727272727275" y="653.6363636363636" type="curve" smooth="yes"/>
      <point x="457.8181818181818" y="623.6363636363636" type="line" smooth="yes"/>
      <point x="622.3636363636364" y="566.9090909090909"/>
      <point x="676.9090909090909" y="511.27272727272725"/>
      <point x="676.9090909090909" y="398.1818181818182" type="curve" smooth="yes"/>
      <point x="676.9090909090909" y="264.0"/>
      <point x="591.0909090909091" y="189.8181818181818"/>
      <point x="399.45454545454544" y="189.8181818181818" type="curve" smooth="yes"/>
      <point x="295.27272727272725" y="189.8181818181818"/>
      <point x="180.54545454545453" y="210.18181818181816"/>
      <point x="73.27272727272728" y="244.0" type="curve"/>
      <point x="73.27272727272728" y="35.27272727272727" type="line"/>
      <point x="174.9090909090909" y="-0.9090909090909092"/>
      <point x="305.09090909090907" y="-19.09090909090909"/>
    </contour>
    <contour>
      <point x="371.45454545454544" y="-240.0" type="line"/>
      <point x="596.9090909090909" y="-240.0" type="line"/>
      <point x="596.9090909090909" y="63.63636363636363" type="line"/>
      <point x="371.45454545454544" y="54.54545454545454" type="line"/>
    </contour>
    <contour>
      <point x="371.45454545454544" y="1447.2727272727273" type="line"/>
      <point x="596.9090909090909" y="1447.2727272727273" type="line"/>
      <point x="596.9090909090909" y="1720.0" type="line"/>
      <point x="371.45454545454544" y="1720.0" type="line"/>
    </contour>
  </outline>
</glyph>
<glyph name="ampersand" format="2">
  <advance width="1386.5454545454545"/>
  <unicode hex="0026"/>
  <outline>
    <contour>
      <point x="1253.2727272727273" y="-20.0" type="line"/>
      <point x="1386.5454545454545" y="166.36363636363635" type="line"/>
      <point x="631.4545454545455" y="776.7272727272727" type="line" smooth="yes"/>
      <point x="508.72727272727275" y="885.0909090909091"/>
      <point x="469.8181818181818" y="956.9090909090909"/>
      <point x="469.8181818181818" y="1059.6363636363637" type="curve" smooth="yes"/>
      <point x="469.8181818181818" y="1208.7272727272727"/>
      <point x="558.5454545454545" y="1290.1818181818182"/>
      <point x="771.6363636363636" y="1290.1818181818182" type="curve" smooth="yes"/>
      <point x="833.0909090909091" y="1290.1818181818182"/>
      <point x="903.4545454545455" y="1282.909090909091"/>
      <point x="970.9090909090909" y="1267.2727272727273" type="curve"/>
      <point x="970.9090909090909" y="1476.0" type="line"/>
      <point x="904.1818181818181" y="1490.0"/>
      <point x="832.3636363636364" y="1499.090909090909"/>
      <point x="752.7272727272727" y="1499.090909090909" type="curve" smooth="yes"/>
      <point x="396.54545454545456" y="1499.090909090909"/>
      <point x="222.1818181818182" y="1336.1818181818182"/>
      <point x="222.1818181818182" y="1057.6363636363637" type="curve" smooth="yes"/>
      <point x="222.1818181818182" y="893.4545454545455"/>
      <point x="287.0909090909091" y="765.0909090909091"/>
      <point x="498.1818181818182" y="590.3636363636364" type="curve" smooth="yes"/>
    </contour>
    <contour>
      <point x="600.7272727272727" y="-18.0" type="curve" smooth="yes"/>
      <point x="947.2727272727273" y="-18.0"/>
      <point x="1169.8181818181818" y="182.9090909090909"/>
      <point x="1169.8181818181818" y="584.1818181818181" type="curve" smooth="yes"/>
      <point x="1169.8181818181818" y="661.6363636363636"/>
      <point x="1159.8181818181818" y="755.0909090909091"/>
      <point x="1139.090909090909" y="839.6363636363636" type="curve"/>
      <point x="936.0" y="839.6363636363636" type="line"/>
      <point x="957.6363636363636" y="755.0909090909091"/>
      <point x="968.5454545454545" y="660.5454545454545"/>
      <point x="968.5454545454545" y="581.0909090909091" type="curve" smooth="yes"/>
      <point x="968.5454545454545" y="277.6363636363636"/>
      <point x="826.3636363636364" y="169.09090909090907"/>
      <point x="626.7272727272727" y="169.09090909090907" type="curve" smooth="yes"/>
      <point x="447.27272727272725" y="169.09090909090907"/>
      <point x="341.8181818181818" y="268.72727272727275"/>
      <point x="341.8181818181818" y="434.0" type="curve" smooth="yes"/>
      <point x="341.8181818181818" y="548.3636363636364"/>
      <point x="388.9090909090909" y="632.3636363636364"/>
      <point x="473.8181818181818" y="691.0909090909091" type="curve"/>
      <point x="349.27272727272725" y="800.5454545454545" type="line"/>
      <point x="200.9090909090909" y="736.3636363636364"/>
      <point x="96.36363636363637" y="595.6363636363636"/>
      <point x="96.36363636363637" y="405.09090909090907" type="curve" smooth="yes"/>
      <point x="96.36363636363637" y="148.0"/>
      <point x="277.27272727272725" y="-18.0"/>
    </contour>
  </outline>
</glyph>
<glyph name="quotesingle" format="2">
  <advance width="400.72727272727275"/>
  <unicode hex="0027"/>
  <outline>
    <contour>
      <point x="125.81818181818181" y="877.4545454545455" type="line"/>
      <point x="274.9090909090909" y="877.4545454545455" type="line"/>
      <point x="324.3636363636364" y="1616.0" type="line"/>
      <point x="76.36363636363637" y="1616.0" type="line"/>
    </contour>
  </outline>
</glyph>
<glyph name="parenleft" format="2">
  <advance width="615.8181818181818"/>
  <unicode hex="0028"/>
  <outline>
    <contour>
      <point x="376.54545454545456" y="-440.0" type="curve"/>
      <point x="617.8181818181818" y="-440.0" type="line"/>
      <point x="434.5454545454545" y="-139.8181818181818"/>
      <point x="346.0" y="207.0909090909091"/>
      <point x="346.0" y="588.0" type="curve" smooth="yes"/>
      <point x="346.0" y="968.9090909090909"/>
      <point x="434.5454545454545" y="1315.8181818181818"/>
      <point x="617.8181818181818" y="1616.0" type="curve"/>
      <point x="376.54545454545456" y="1616.0" type="line"/>
      <point x="180.54545454545456" y="1323.090909090909"/>
      <point x="94.0" y="977.0909090909091"/>
      <point x="94.0" y="588.0" type="curve" smooth="yes"/>
      <point x="94.0" y="198.9090909090909"/>
      <point x="180.54545454545456" y="-147.0909090909091"/>
    </contour>
  </outline>
</glyph>
<glyph name="parenright" format="2">
  <advance width="615.8181818181818"/>
  <unicode hex="0029"/>
  <outline>
    <contour>
      <point x="-1.999999999999993" y="-440.0" type="curve"/>
      <point x="239.27272727272725" y="-440.0" type="line"/>
      <point x="435.27272727272725" y="-147.0909090909091"/>
      <point x="521.8181818181818" y="198.9090909090909"/>
      <point x="521.8181818181818" y="588.0" type="curve" smooth="yes"/>
      <point x="521.8181818181818" y="977.0909090909091"/>
      <point x="435.27272727272725" y="1323.090909090909"/>
      <point x="239.27272727272725" y="1616.0" type="curve"/>
      <point x="-1.999999999999993" y="1616.0" type="line"/>
      <point x="181.27272727272728" y="1315.8181818181818"/>
      <point x="269.8181818181818" y="968.9090909090909"/>
      <point x="269.8181818181818" y="588.0" type="curve" smooth="yes"/>
      <point x="269.8181818181818" y="207.0909090909091"/>
      <point x="181.27272727272728" y="-139.8181818181818"/>
    </contour>
  </outline>
</glyph>
<glyph name="asterisk" format="2">
  <advance width="928.3636363636364"/>
  <unicode hex="002A"/>
  <outline>
    <contour>
      <point x="552.3636363636364" y="1158.3636363636363" type="line"/>
      <point x="751.4545454545455" y="1190.0" type="line"/>
      <point x="898.3636363636364" y="1237.6363636363637" type="line"/>
      <point x="844.5454545454545" y="1402.3636363636363" type="line"/>
      <point x="698.5454545454545" y="1353.6363636363637" type="line"/>
      <point x="518.3636363636364" y="1261.4545454545455" type="line"/>
      <point x="550.7272727272727" y="1461.090909090909" type="line"/>
      <point x="550.7272727272727" y="1616.0" type="line"/>
      <point x="377.6363636363636" y="1616.0" type="line"/>
      <point x="377.6363636363636" y="1461.090909090909" type="line"/>
      <point x="410.0" y="1261.4545454545455" type="line"/>
      <point x="229.8181818181818" y="1353.6363636363637" type="line"/>
      <point x="83.81818181818181" y="1402.3636363636363" type="line"/>
      <point x="30.0" y="1237.6363636363637" type="line"/>
      <point x="176.9090909090909" y="1190.0" type="line"/>
      <point x="376.0" y="1158.3636363636363" type="line"/>
      <point x="233.0909090909091" y="1016.5454545454545" type="line"/>
      <point x="141.8181818181818" y="891.4545454545455" type="line"/>
      <point x="282.1818181818182" y="789.0909090909091" type="line"/>
      <point x="373.45454545454544" y="914.1818181818182" type="line"/>
      <point x="464.1818181818182" y="1095.8181818181818" type="line"/>
      <point x="554.9090909090909" y="914.1818181818182" type="line"/>
      <point x="646.1818181818181" y="789.0909090909091" type="line"/>
      <point x="786.5454545454545" y="891.4545454545455" type="line"/>
      <point x="695.2727272727273" y="1016.5454545454545" type="line"/>
    </contour>
  </outline>
</glyph>
<glyph name="plus" format="2">
  <advance width="1026.909090909091"/>
  <unicode hex="002B"/>
  <outline>
    <contour>
      <point x="412.90909090909093" y="345.27272727272725" type="line"/>
      <point x="614.0" y="345.27272727272725" type="line"/>
      <point x="614.0" y="663.6363636363636" type="line"/>
      <point x="918.9090909090909" y="663.6363636363636" type="line"/>
      <point x="918.9090909090909" y="856.3636363636364" type="line"/>
      <point x="614.0" y="856.3636363636364" type="line"/>
      <point x="614.0" y="1174.7272727272727" type="line"/>
      <point x="412.90909090909093" y="1174.7272727272727" type="line"/>
      <point x="412.90909090909093" y="856.3636363636364" type="line"/>
      <point x="108.0" y="856.3636363636364" type="line"/>
      <point x="108.0" y="663.6363636363636" type="line"/>
      <point x="412.90909090909093" y="663.6363636363636" type="line"/>
    </contour>
  </outline>
</glyph>
<glyph name="hyphen" format="2">
  <advance width="722.9090909090909"/>
  <unicode hex="002D"/>
  <outline>
    <contour>
      <point x="108.0" y="465.8181818181818" type="line"/>
      <point x="614.9090909090909" y="465.8181818181818" type="line"/>
      <point x="614.9090909090909" y="665.0909090909091" type="line"/>
      <point x="108.0" y="665.0909090909091" type="line"/>
    </contour>
  </outline>
</glyph>
<glyph name="period" format="2">
  <advance width="460.3636363636364"/>
  <unicode hex="002E"/>
  <outline>
    <contour>
      <point x="230.1818181818182" y="-15.454545454545453" type="curve" smooth="yes"/>
      <point x="325.09090909090907" y="-15.454545454545453"/>
      <point x="392.5454545454545" y="47.81818181818181"/>
      <point x="392.5454545454545" y="144.72727272727272" type="curve" smooth="yes"/>
      <point x="392.5454545454545" y="241.63636363636363"/>
      <point x="327.27272727272725" y="305.8181818181818"/>
      <point x="230.1818181818182" y="305.8181818181818" type="curve" smooth="yes"/>
      <point x="133.0909090909091" y="305.8181818181818"/>
      <point x="67.81818181818181" y="243.8181818181818"/>
      <point x="67.81818181818181" y="144.72727272727272" type="curve" smooth="yes"/>
      <point x="67.81818181818181" y="45.63636363636363"/>
      <point x="135.27272727272728" y="-15.454545454545453"/>
    </contour>
  </outline>
</glyph>
<glyph name="zero" format="2">
  <advance width="1136.3636363636363"/>
  <unicode hex="0030"/>
  <note>
600
</note>
  <outline>
    <contour>
      <point x="568.1818181818181" y="-19.09090909090909" type="curve" smooth="yes"/>
      <point x="874.9090909090909" y="-19.09090909090909"/>
      <point x="1052.3636363636363" y="193.63636363636363"/>
      <point x="1052.3636363636363" y="740.0" type="curve" smooth="yes"/>
      <point x="1052.3636363636363" y="1286.3636363636363"/>
      <point x="875.8181818181818" y="1499.090909090909"/>
      <point x="568.1818181818181" y="1499.090909090909" type="curve" smooth="yes"/>
      <point x="260.54545454545456" y="1499.090909090909"/>
      <point x="84.0" y="1286.3636363636363"/>
      <point x="84.0" y="740.0" type="curve" smooth="yes"/>
      <point x="84.0" y="193.63636363636363"/>
      <point x="261.45454545454544" y="-19.09090909090909"/>
    </contour>
    <contour>
      <point x="568.1818181818181" y="187.63636363636363" type="curve" smooth="yes"/>
      <point x="414.3636363636364" y="187.63636363636363"/>
      <point x="327.27272727272725" y="315.09090909090907"/>
      <point x="327.27272727272725" y="741.8181818181819" type="curve" smooth="yes"/>
      <point x="327.27272727272725" y="1164.909090909091"/>
      <point x="414.3636363636364" y="1292.3636363636365"/>
      <point x="568.1818181818181" y="1292.3636363636365" type="curve" smooth="yes"/>
      <point x="722.0" y="1292.3636363636365"/>
      <point x="809.0909090909091" y="1164.909090909091"/>
      <point x="809.0909090909091" y="738.1818181818181" type="curve" smooth="yes"/>
      <point x="809.0909090909091" y="315.09090909090907"/>
      <point x="722.0" y="187.63636363636363"/>
    </contour>
  </outline>
</glyph>
<glyph name="one" format="2">
  <advance width="645.8181818181818"/>
  <unicode hex="0031"/>
  <outline>
    <contour>
      <point x="268.54545454545456" y="0.0" type="line"/>
      <point x="513.2727272727273" y="0.0" type="line"/>
      <point x="513.2727272727273" y="1485.090909090909" type="line"/>
      <point x="365.09090909090907" y="1485.090909090909" type="line"/>
      <point x="13.454545454545455" y="1245.8181818181818" type="line"/>
      <point x="13.454545454545455" y="1014.7272727272727" type="line"/>
      <point x="365.09090909090907" y="1254.0" type="line"/>
      <point x="268.54545454545456" y="1312.1818181818182" type="line"/>
    </contour>
  </outline>
</glyph>
<glyph name="two" format="2">
  <advance width="901.0909090909091"/>
  <unicode hex="0032"/>
  <outline>
    <contour>
      <point x="41.09090909090909" y="0.0" type="line"/>
      <point x="853.0909090909091" y="0.0" type="line"/>
      <point x="853.0909090909091" y="215.63636363636363" type="line"/>
      <point x="298.9090909090909" y="215.63636363636363" type="line"/>
      <point x="313.6363636363636" y="153.45454545454544" type="line"/>
      <point x="610.1818181818181" y="600.0" type="line" smooth="yes"/>
      <point x="746.9090909090909" y="802.9090909090909"/>
      <point x="790.5454545454545" y="947.6363636363636"/>
      <point x="791.4545454545455" y="1088.909090909091" type="curve" smooth="yes"/>
      <point x="793.2727272727273" y="1382.0"/>
      <point x="613.6363636363636" y="1499.090909090909"/>
      <point x="324.9090909090909" y="1499.090909090909" type="curve" smooth="yes"/>
      <point x="224.1818181818182" y="1499.090909090909"/>
      <point x="99.63636363636364" y="1479.090909090909"/>
      <point x="22.90909090909091" y="1447.2727272727273" type="curve"/>
      <point x="22.90909090909091" y="1238.5454545454545" type="line"/>
      <point x="105.63636363636364" y="1273.2727272727273"/>
      <point x="197.27272727272728" y="1290.1818181818182"/>
      <point x="291.09090909090907" y="1290.1818181818182" type="curve" smooth="yes"/>
      <point x="463.27272727272725" y="1290.1818181818182"/>
      <point x="548.0" y="1226.0"/>
      <point x="548.0" y="1070.3636363636365" type="curve" smooth="yes"/>
      <point x="548.0" y="959.6363636363636"/>
      <point x="502.3636363636364" y="843.0909090909091"/>
      <point x="389.27272727272725" y="670.5454545454545" type="curve" smooth="yes"/>
      <point x="41.09090909090909" y="138.1818181818182" type="line"/>
    </contour>
  </outline>
</glyph>
<glyph name="three" format="2">
  <advance width="926.7272727272727"/>
  <unicode hex="0033"/>
  <outline>
    <contour>
      <point x="351.09090909090907" y="-19.09090909090909" type="curve" smooth="yes"/>
      <point x="678.1818181818181" y="-19.09090909090909"/>
      <point x="872.5454545454545" y="130.54545454545453"/>
      <point x="872.5454545454545" y="399.45454545454544" type="curve" smooth="yes"/>
      <point x="872.5454545454545" y="604.1818181818181"/>
      <point x="759.8181818181818" y="738.5454545454545"/>
      <point x="538.7272727272727" y="773.4545454545455" type="curve"/>
      <point x="537.8181818181818" y="756.9090909090909" type="line"/>
      <point x="723.6363636363636" y="796.5454545454545"/>
      <point x="828.7272727272727" y="932.7272727272727"/>
      <point x="828.7272727272727" y="1118.3636363636363" type="curve" smooth="yes"/>
      <point x="828.7272727272727" y="1363.4545454545455"/>
      <point x="668.7272727272727" y="1499.090909090909"/>
      <point x="363.45454545454544" y="1499.090909090909" type="curve" smooth="yes"/>
      <point x="256.54545454545456" y="1499.090909090909"/>
      <point x="132.0" y="1479.090909090909"/>
      <point x="53.09090909090909" y="1447.2727272727273" type="curve"/>
      <point x="53.09090909090909" y="1250.5454545454545" type="line"/>
      <point x="136.9090909090909" y="1284.1818181818182"/>
      <point x="235.0909090909091" y="1302.1818181818182"/>
      <point x="333.8181818181818" y="1302.1818181818182" type="curve" smooth="yes"/>
      <point x="511.0909090909091" y="1302.1818181818182"/>
      <point x="592.9090909090909" y="1234.5454545454545"/>
      <point x="592.9090909090909" y="1094.1818181818182" type="curve" smooth="yes"/>
      <point x="592.9090909090909" y="949.6363636363636"/>
      <point x="494.90909090909093" y="858.3636363636364"/>
      <point x="284.1818181818182" y="858.3636363636364" type="curve" smooth="yes"/>
      <point x="173.8181818181818" y="858.3636363636364" type="line"/>
      <point x="173.8181818181818" y="657.0909090909091" type="line"/>
      <point x="321.45454545454544" y="657.0909090909091" type="line" smooth="yes"/>
      <point x="543.2727272727273" y="657.0909090909091"/>
      <point x="636.7272727272727" y="566.9090909090909"/>
      <point x="636.7272727272727" y="413.8181818181818" type="curve" smooth="yes"/>
      <point x="636.7272727272727" y="255.09090909090907"/>
      <point x="536.1818181818182" y="177.8181818181818"/>
      <point x="344.72727272727275" y="177.8181818181818" type="curve" smooth="yes"/>
      <point x="250.9090909090909" y="177.8181818181818"/>
      <point x="132.72727272727272" y="193.63636363636363"/>
      <point x="33.63636363636364" y="225.09090909090907" type="curve"/>
      <point x="33.63636363636364" y="28.363636363636363" type="line"/>
      <point x="133.27272727272728" y="-3.2727272727272725"/>
      <point x="239.8181818181818" y="-19.09090909090909"/>
    </contour>
  </outline>
</glyph>
<glyph name="four" format="2">
  <advance width="1093.2727272727273"/>
  <unicode hex="0034"/>
  <outline>
    <contour>
      <point x="36.90909090909091" y="330.54545454545456" type="line"/>
      <point x="1062.1818181818182" y="330.54545454545456" type="line"/>
      <point x="1062.1818181818182" y="523.2727272727273" type="line"/>
      <point x="244.36363636363635" y="523.2727272727273" type="line"/>
      <point x="279.09090909090907" y="467.8181818181818" type="line"/>
      <point x="746.1818181818181" y="1480.0" type="line"/>
      <point x="510.72727272727275" y="1480.0" type="line"/>
      <point x="36.90909090909091" y="468.72727272727275" type="line"/>
    </contour>
    <contour>
      <point x="664.3636363636364" y="0.0" type="line"/>
      <point x="884.0" y="0.0" type="line"/>
      <point x="884.0" y="980.0" type="line"/>
      <point x="692.5454545454545" y="980.0" type="line"/>
      <point x="664.3636363636364" y="523.2727272727273" type="line"/>
    </contour>
  </outline>
</glyph>
<glyph name="five" format="2">
  <advance width="935.4545454545455"/>
  <unicode hex="0035"/>
  <outline>
    <contour>
      <point x="379.27272727272725" y="-19.09090909090909" type="curve" smooth="yes"/>
      <point x="708.5454545454545" y="-19.09090909090909"/>
      <point x="896.5454545454545" y="132.36363636363637"/>
      <point x="896.5454545454545" y="429.6363636363636" type="curve" smooth="yes"/>
      <point x="896.5454545454545" y="712.7272727272727"/>
      <point x="725.4545454545455" y="852.0"/>
      <point x="357.27272727272725" y="876.3636363636364" type="curve" smooth="yes"/>
      <point x="217.45454545454544" y="885.2727272727273" type="line"/>
      <point x="338.18181818181813" y="790.3636363636364" type="line"/>
      <point x="375.6363636363636" y="1387.2727272727273" type="line"/>
      <point x="266.1818181818182" y="1275.2727272727273" type="line"/>
      <point x="840.0" y="1275.2727272727273" type="line"/>
      <point x="840.0" y="1480.0" type="line"/>
      <point x="149.27272727272728" y="1480.0" type="line"/>
      <point x="103.27272727272728" y="691.6363636363636" type="line"/>
      <point x="243.0909090909091" y="682.7272727272727" type="line" smooth="yes"/>
      <point x="563.0909090909091" y="662.5454545454545"/>
      <point x="660.7272727272727" y="585.0909090909091"/>
      <point x="660.7272727272727" y="420.0" type="curve" smooth="yes"/>
      <point x="660.7272727272727" y="258.72727272727275"/>
      <point x="568.3636363636364" y="177.8181818181818"/>
      <point x="373.8181818181818" y="177.8181818181818" type="curve" smooth="yes"/>
      <point x="277.27272727272725" y="177.8181818181818"/>
      <point x="159.0909090909091" y="195.63636363636363"/>
      <point x="60.90909090909091" y="227.27272727272725" type="curve"/>
      <point x="60.90909090909091" y="30.545454545454547" type="line"/>
      <point x="158.72727272727272" y="-2.1818181818181817"/>
      <point x="267.09090909090907" y="-19.09090909090909"/>
    </contour>
  </outline>
</glyph>
<glyph name="six" format="2">
  <advance width="1066.5454545454545"/>
  <unicode hex="0036"/>
  <outline>
    <contour>
      <point x="584.7272727272727" y="-19.09090909090909" type="curve" smooth="yes"/>
      <point x="837.2727272727273" y="-19.09090909090909"/>
      <point x="1024.1818181818182" y="138.9090909090909"/>
      <point x="1024.1818181818182" y="438.54545454545456" type="curve" smooth="yes"/>
      <point x="1024.1818181818182" y="739.8181818181818"/>
      <point x="832.7272727272727" y="873.8181818181818"/>
      <point x="611.0909090909091" y="873.8181818181818" type="curve" smooth="yes"/>
      <point x="477.27272727272725" y="873.8181818181818"/>
      <point x="352.0" y="820.5454545454545"/>
      <point x="288.1818181818182" y="727.2727272727273" type="curve"/>
      <point x="288.1818181818182" y="532.7272727272727" type="line"/>
      <point x="351.45454545454544" y="642.3636363636364"/>
      <point x="462.72727272727275" y="684.5454545454545"/>
      <point x="565.6363636363636" y="684.5454545454545" type="curve" smooth="yes"/>
      <point x="697.8181818181819" y="684.5454545454545"/>
      <point x="799.2727272727273" y="610.7272727272727"/>
      <point x="799.2727272727273" y="429.09090909090907" type="curve" smooth="yes"/>
      <point x="799.2727272727273" y="246.1818181818182"/>
      <point x="702.3636363636364" y="172.36363636363637"/>
      <point x="587.8181818181818" y="172.36363636363637" type="curve" smooth="yes"/>
      <point x="442.0" y="172.36363636363637"/>
      <point x="336.9090909090909" y="267.27272727272725"/>
      <point x="336.9090909090909" y="657.0909090909091" type="curve" smooth="yes"/>
      <point x="336.9090909090909" y="753.0909090909091" type="line" smooth="yes"/>
      <point x="336.9090909090909" y="1152.0"/>
      <point x="468.9090909090909" y="1297.8181818181818"/>
      <point x="719.6363636363636" y="1297.8181818181818" type="curve" smooth="yes"/>
      <point x="809.6363636363636" y="1297.8181818181818"/>
      <point x="882.5454545454545" y="1286.0"/>
      <point x="956.5454545454545" y="1260.1818181818182" type="curve"/>
      <point x="956.5454545454545" y="1461.2727272727273" type="line"/>
      <point x="890.1818181818181" y="1488.1818181818182"/>
      <point x="801.0909090909091" y="1499.090909090909"/>
      <point x="714.9090909090909" y="1499.090909090909" type="curve" smooth="yes"/>
      <point x="330.0" y="1499.090909090909"/>
      <point x="95.63636363636364" y="1267.8181818181818"/>
      <point x="95.63636363636364" y="696.5454545454545" type="curve" smooth="yes"/>
      <point x="95.63636363636364" y="161.63636363636363"/>
      <point x="300.54545454545456" y="-19.09090909090909"/>
    </contour>
  </outline>
</glyph>
<glyph name="seven" format="2">
  <advance width="864.7272727272727"/>
  <unicode hex="0037"/>
  <outline>
    <contour>
      <point x="117.63636363636364" y="0.0" type="line"/>
      <point x="370.9090909090909" y="0.0" type="line"/>
      <point x="808.7272727272727" y="1341.8181818181818" type="line"/>
      <point x="808.7272727272727" y="1480.0" type="line"/>
      <point x="9.09090909090909" y="1480.0" type="line"/>
      <point x="9.09090909090909" y="1264.3636363636365" type="line"/>
      <point x="654.7272727272727" y="1264.3636363636365" type="line"/>
      <point x="572.7272727272727" y="1342.7272727272727" type="line"/>
    </contour>
  </outline>
</glyph>
<glyph name="eight" format="2">
  <advance width="1136.3636363636363"/>
  <unicode hex="0038"/>
  <outline>
    <contour>
      <point x="574.7272727272727" y="-19.09090909090909" type="curve" smooth="yes"/>
      <point x="879.8181818181818" y="-19.09090909090909"/>
      <point x="1064.909090909091" y="145.0909090909091"/>
      <point x="1064.909090909091" y="387.45454545454544" type="curve" smooth="yes"/>
      <point x="1064.909090909091" y="604.7272727272727"/>
      <point x="961.2727272727273" y="726.5454545454545"/>
      <point x="641.2727272727273" y="835.8181818181818" type="curve" smooth="yes"/>
      <point x="399.8181818181818" y="917.8181818181818"/>
      <point x="342.3636363636364" y="983.2727272727273"/>
      <point x="342.3636363636364" y="1111.090909090909" type="curve" smooth="yes"/>
      <point x="342.3636363636364" y="1236.1818181818182"/>
      <point x="426.1818181818182" y="1317.4545454545455"/>
      <point x="577.2727272727273" y="1317.4545454545455" type="curve" smooth="yes"/>
      <point x="726.0" y="1317.4545454545455"/>
      <point x="814.3636363636364" y="1243.2727272727273"/>
      <point x="814.3636363636364" y="1106.1818181818182" type="curve" smooth="yes"/>
      <point x="814.3636363636364" y="976.3636363636364"/>
      <point x="754.1818181818181" y="893.8181818181818"/>
      <point x="614.0" y="818.7272727272727" type="curve"/>
      <point x="771.2727272727273" y="746.0" type="line"/>
      <point x="949.0909090909091" y="833.8181818181819"/>
      <point x="1026.3636363636363" y="967.6363636363636"/>
      <point x="1026.3636363636363" y="1122.5454545454545" type="curve" smooth="yes"/>
      <point x="1026.3636363636363" y="1354.0"/>
      <point x="851.2727272727273" y="1499.090909090909"/>
      <point x="575.0909090909091" y="1499.090909090909" type="curve" smooth="yes"/>
      <point x="282.0" y="1499.090909090909"/>
      <point x="107.81818181818181" y="1343.090909090909"/>
      <point x="107.81818181818181" y="1103.6363636363637" type="curve" smooth="yes"/>
      <point x="107.81818181818181" y="891.6363636363636"/>
      <point x="218.72727272727272" y="752.0"/>
      <point x="533.0909090909091" y="650.0" type="curve" smooth="yes"/>
      <point x="766.9090909090909" y="574.5454545454545"/>
      <point x="833.6363636363636" y="511.27272727272725"/>
      <point x="833.6363636363636" y="374.9090909090909" type="curve" smooth="yes"/>
      <point x="833.6363636363636" y="241.8181818181818"/>
      <point x="742.9090909090909" y="162.54545454545453"/>
      <point x="574.7272727272727" y="162.54545454545453" type="curve" smooth="yes"/>
      <point x="392.1818181818182" y="162.54545454545453"/>
      <point x="301.6363636363636" y="245.8181818181818"/>
      <point x="301.6363636363636" y="391.09090909090907" type="curve" smooth="yes"/>
      <point x="301.6363636363636" y="521.0909090909091"/>
      <point x="380.9090909090909" y="634.1818181818182"/>
      <point x="522.9090909090909" y="683.6363636363636" type="curve"/>
      <point x="360.90909090909093" y="758.1818181818181" type="line"/>
      <point x="174.36363636363637" y="686.5454545454545"/>
      <point x="70.36363636363637" y="543.8181818181819"/>
      <point x="70.36363636363637" y="372.54545454545456" type="curve" smooth="yes"/>
      <point x="70.36363636363637" y="137.0909090909091"/>
      <point x="245.63636363636363" y="-19.09090909090909"/>
    </contour>
  </outline>
</glyph>
<glyph name="nine" format="2">
  <advance width="1066.5454545454545"/>
  <unicode hex="0039"/>
  <outline>
    <contour>
      <point x="481.8181818181818" y="1499.090909090909" type="curve" smooth="yes"/>
      <point x="229.27272727272728" y="1499.090909090909"/>
      <point x="42.36363636363637" y="1341.090909090909"/>
      <point x="42.36363636363637" y="1041.4545454545455" type="curve" smooth="yes"/>
      <point x="42.36363636363637" y="740.1818181818182"/>
      <point x="233.8181818181818" y="606.1818181818182"/>
      <point x="455.45454545454544" y="606.1818181818182" type="curve" smooth="yes"/>
      <point x="589.2727272727273" y="606.1818181818182"/>
      <point x="714.5454545454545" y="659.4545454545455"/>
      <point x="778.3636363636364" y="752.7272727272727" type="curve"/>
      <point x="778.3636363636364" y="947.2727272727273" type="line"/>
      <point x="715.0909090909091" y="837.6363636363636"/>
      <point x="603.8181818181818" y="795.4545454545455"/>
      <point x="500.9090909090909" y="795.4545454545455" type="curve" smooth="yes"/>
      <point x="368.72727272727275" y="795.4545454545455"/>
      <point x="267.27272727272725" y="869.2727272727273"/>
      <point x="267.27272727272725" y="1050.909090909091" type="curve" smooth="yes"/>
      <point x="267.27272727272725" y="1233.8181818181818"/>
      <point x="364.1818181818182" y="1307.6363636363637"/>
      <point x="478.72727272727275" y="1307.6363636363637" type="curve" smooth="yes"/>
      <point x="624.5454545454545" y="1307.6363636363637"/>
      <point x="729.6363636363636" y="1212.7272727272727"/>
      <point x="729.6363636363636" y="822.9090909090909" type="curve" smooth="yes"/>
      <point x="729.6363636363636" y="726.9090909090909" type="line" smooth="yes"/>
      <point x="729.6363636363636" y="328.0"/>
      <point x="597.6363636363636" y="182.18181818181816"/>
      <point x="346.9090909090909" y="182.18181818181816" type="curve" smooth="yes"/>
      <point x="256.90909090909093" y="182.18181818181816"/>
      <point x="184.0" y="194.0"/>
      <point x="110.0" y="219.8181818181818" type="curve"/>
      <point x="110.0" y="18.727272727272727" type="line"/>
      <point x="176.36363636363637" y="-8.181818181818182"/>
      <point x="265.45454545454544" y="-19.09090909090909"/>
      <point x="351.6363636363636" y="-19.09090909090909" type="curve" smooth="yes"/>
      <point x="736.5454545454545" y="-19.09090909090909"/>
      <point x="970.9090909090909" y="212.1818181818182"/>
      <point x="970.9090909090909" y="783.4545454545455" type="curve" smooth="yes"/>
      <point x="970.9090909090909" y="1318.3636363636363"/>
      <point x="766.0" y="1499.090909090909"/>
    </contour>
  </outline>
</glyph>
<glyph name="colon" format="2">
  <advance width="460.3636363636364"/>
  <unicode hex="003A"/>
  <outline>
    <contour>
      <point x="230.1818181818182" y="-15.454545454545453" type="curve" smooth="yes"/>
      <point x="325.09090909090907" y="-15.454545454545453"/>
      <point x="392.5454545454545" y="47.81818181818181"/>
      <point x="392.5454545454545" y="144.72727272727272" type="curve" smooth="yes"/>
      <point x="392.5454545454545" y="241.63636363636363"/>
      <point x="327.27272727272725" y="305.8181818181818"/>
      <point x="230.1818181818182" y="305.8181818181818" type="curve" smooth="yes"/>
      <point x="133.0909090909091" y="305.8181818181818"/>
      <point x="67.81818181818181" y="243.8181818181818"/>
      <point x="67.81818181818181" y="144.72727272727272" type="curve" smooth="yes"/>
      <point x="67.81818181818181" y="45.63636363636363"/>
      <point x="135.27272727272728" y="-15.454545454545453"/>
    </contour>
    <contour>
      <point x="230.1818181818182" y="785.0909090909091" type="curve" smooth="yes"/>
      <point x="325.09090909090907" y="785.0909090909091"/>
      <point x="392.5454545454545" y="848.3636363636364"/>
      <point x="392.5454545454545" y="945.2727272727273" type="curve" smooth="yes"/>
      <point x="392.5454545454545" y="1042.1818181818182"/>
      <point x="327.27272727272725" y="1106.3636363636363"/>
      <point x="230.1818181818182" y="1106.3636363636363" type="curve" smooth="yes"/>
      <point x="133.0909090909091" y="1106.3636363636363"/>
      <point x="67.81818181818181" y="1044.3636363636363"/>
      <point x="67.81818181818181" y="945.2727272727273" type="curve" smooth="yes"/>
      <point x="67.81818181818181" y="846.1818181818182"/>
      <point x="135.27272727272728" y="785.0909090909091"/>
    </contour>
  </outline>
</glyph>
<glyph name="semicolon" format="2">
  <advance width="460.3636363636364"/>
  <unicode hex="003B"/>
  <outline>
    <contour>
      <point x="122.36363636363636" y="-332.72727272727275" type="curve"/>
      <point x="263.45454545454544" y="-332.72727272727275" type="line"/>
      <point x="339.6363636363636" y="-212.54545454545453"/>
      <point x="392.5454545454545" y="-54.909090909090914"/>
      <point x="392.5454545454545" y="96.36363636363636" type="curve" smooth="yes"/>
      <point x="392.5454545454545" y="237.0909090909091"/>
      <point x="332.72727272727275" y="305.8181818181818"/>
      <point x="226.0" y="305.8181818181818" type="curve" smooth="yes"/>
      <point x="132.1818181818182" y="305.8181818181818"/>
      <point x="67.81818181818181" y="247.09090909090907"/>
      <point x="67.81818181818181" y="145.63636363636363" type="curve" smooth="yes"/>
      <point x="67.81818181818181" y="46.54545454545455"/>
      <point x="137.45454545454547" y="-15.454545454545453"/>
      <point x="230.1818181818182" y="-15.454545454545453" type="curve" smooth="yes"/>
      <point x="261.8181818181818" y="-15.454545454545453" type="line"/>
      <point x="210.9090909090909" y="33.81818181818181" type="line"/>
      <point x="210.9090909090909" y="-85.63636363636364"/>
      <point x="178.0" y="-196.9090909090909"/>
    </contour>
    <contour>
      <point x="230.1818181818182" y="785.0909090909091" type="curve" smooth="yes"/>
      <point x="325.09090909090907" y="785.0909090909091"/>
      <point x="392.5454545454545" y="848.3636363636364"/>
      <point x="392.5454545454545" y="945.2727272727273" type="curve" smooth="yes"/>
      <point x="392.5454545454545" y="1042.1818181818182"/>
      <point x="327.27272727272725" y="1106.3636363636363"/>
      <point x="230.1818181818182" y="1106.3636363636363" type="curve" smooth="yes"/>
      <point x="133.0909090909091" y="1106.3636363636363"/>
      <point x="67.81818181818181" y="1044.3636363636363"/>
      <point x="67.81818181818181" y="945.2727272727273" type="curve" smooth="yes"/>
      <point x="67.81818181818181" y="846.1818181818182"/>
      <point x="135.27272727272728" y="785.0909090909091"/>
    </contour>
  </outline>
</glyph>
<glyph name="less" format="2">
  <advance width="1026.909090909091"/>
  <unicode hex="003C"/>
  <outline>
    <contour>
      <point x="918.9090909090909" y="311.0909090909091" type="line"/>
      <point x="918.9090909090909" y="507.45454545454544" type="line"/>
      <point x="254.9090909090909" y="772.0" type="line"/>
      <point x="254.9090909090909" y="748.0" type="line"/>
      <point x="918.9090909090909" y="1012.5454545454545" type="line"/>
      <point x="918.9090909090909" y="1208.909090909091" type="line"/>
      <point x="108.0" y="877.6363636363636" type="line"/>
      <point x="108.0" y="642.3636363636364" type="line"/>
    </contour>
  </outline>
</glyph>
<glyph name="equal" format="2">
  <advance width="1026.909090909091"/>
  <unicode hex="003D"/>
  <outline>
    <contour>
      <point x="108.0" y="871.8181818181819" type="line"/>
      <point x="918.9090909090909" y="871.8181818181819" type="line"/>
      <point x="918.9090909090909" y="1064.5454545454545" type="line"/>
      <point x="108.0" y="1064.5454545454545" type="line"/>
    </contour>
    <contour>
      <point x="108.0" y="455.4545454545455" type="line"/>
      <point x="918.9090909090909" y="455.4545454545455" type="line"/>
      <point x="918.9090909090909" y="648.1818181818181" type="line"/>
      <point x="108.0" y="648.1818181818181" type="line"/>
    </contour>
  </outline>
</glyph>
<glyph name="question" format="2">
  <advance width="842.9090909090909"/>
  <unicode hex="003F"/>
  <outline>
    <contour>
      <point x="288.54545454545456" y="426.5454545454545" type="line"/>
      <point x="439.09090909090907" y="426.5454545454545" type="line"/>
      <point x="460.0" y="692.9090909090909" type="line"/>
      <point x="688.9090909090909" y="780.1818181818182"/>
      <point x="799.2727272727273" y="912.9090909090909"/>
      <point x="799.2727272727273" y="1118.3636363636363" type="curve" smooth="yes"/>
      <point x="799.2727272727273" y="1363.4545454545455"/>
      <point x="639.2727272727273" y="1499.090909090909"/>
      <point x="334.0" y="1499.090909090909" type="curve" smooth="yes"/>
      <point x="227.0909090909091" y="1499.090909090909"/>
      <point x="102.54545454545455" y="1479.090909090909"/>
      <point x="23.636363636363637" y="1447.2727272727273" type="curve"/>
      <point x="23.636363636363637" y="1250.5454545454545" type="line"/>
      <point x="107.45454545454545" y="1284.1818181818182"/>
      <point x="205.63636363636363" y="1302.1818181818182"/>
      <point x="303.45454545454544" y="1302.1818181818182" type="curve" smooth="yes"/>
      <point x="481.6363636363636" y="1302.1818181818182"/>
      <point x="563.4545454545455" y="1234.5454545454545"/>
      <point x="563.4545454545455" y="1094.1818181818182" type="curve" smooth="yes"/>
      <point x="563.4545454545455" y="961.4545454545455"/>
      <point x="491.6363636363636" y="878.3636363636364"/>
      <point x="247.0909090909091" y="808.0" type="curve"/>
    </contour>
    <contour>
      <point x="363.8181818181818" y="-15.454545454545453" type="curve" smooth="yes"/>
      <point x="459.6363636363636" y="-15.454545454545453"/>
      <point x="526.1818181818181" y="48.72727272727273"/>
      <point x="526.1818181818181" y="141.45454545454544" type="curve" smooth="yes"/>
      <point x="526.1818181818181" y="235.0909090909091"/>
      <point x="460.9090909090909" y="299.27272727272725"/>
      <point x="363.8181818181818" y="299.27272727272725" type="curve" smooth="yes"/>
      <point x="266.72727272727275" y="299.27272727272725"/>
      <point x="201.45454545454544" y="237.27272727272725"/>
      <point x="201.45454545454544" y="141.45454545454544" type="curve" smooth="yes"/>
      <point x="201.45454545454544" y="46.54545454545455"/>
      <point x="268.90909090909093" y="-15.454545454545453"/>
    </contour>
  </outline>
</glyph>
<glyph name="at" format="2">
  <advance width="1784.909090909091"/>
  <unicode hex="0040"/>
  <outline>
    <contour>
      <point x="934.0" y="-460.0" type="curve" smooth="yes"/>
      <point x="1067.2727272727273" y="-460.0"/>
      <point x="1193.8181818181818" y="-439.27272727272725"/>
      <point x="1308.3636363636363" y="-405.09090909090907" type="curve"/>
      <point x="1308.3636363636363" y="-234.54545454545456" type="line"/>
      <point x="1183.6363636363635" y="-271.4545454545455"/>
      <point x="1063.6363636363635" y="-290.3636363636364"/>
      <point x="934.0" y="-290.3636363636364" type="curve" smooth="yes"/>
      <point x="485.6363636363636" y="-290.3636363636364"/>
      <point x="271.45454545454544" y="-91.0909090909091"/>
      <point x="271.45454545454544" y="521.8181818181819" type="curve" smooth="yes"/>
      <point x="271.45454545454544" y="1130.1818181818182"/>
      <point x="485.6363636363636" y="1328.3636363636365"/>
      <point x="900.1818181818181" y="1328.3636363636365" type="curve" smooth="yes"/>
      <point x="1314.7272727272727" y="1328.3636363636365"/>
      <point x="1527.2727272727273" y="1134.5454545454545"/>
      <point x="1528.3636363636363" y="568.1818181818181" type="curve" smooth="yes"/>
      <point x="1529.4545454545455" y="240.0"/>
      <point x="1458.909090909091" y="156.0"/>
      <point x="1375.4545454545455" y="156.0" type="curve" smooth="yes"/>
      <point x="1315.090909090909" y="156.0"/>
      <point x="1287.090909090909" y="195.8181818181818"/>
      <point x="1287.090909090909" y="281.27272727272725" type="curve" smooth="yes"/>
      <point x="1287.090909090909" y="692.3636363636364" type="line" smooth="yes"/>
      <point x="1287.090909090909" y="992.3636363636364"/>
      <point x="1154.909090909091" y="1097.090909090909"/>
      <point x="879.2727272727273" y="1097.090909090909" type="curve" smooth="yes"/>
      <point x="786.0" y="1097.090909090909"/>
      <point x="669.8181818181818" y="1080.0"/>
      <point x="583.6363636363636" y="1049.8181818181818" type="curve"/>
      <point x="581.4545454545455" y="853.0909090909091" type="line"/>
      <point x="667.0909090909091" y="885.0909090909091"/>
      <point x="761.2727272727273" y="900.1818181818182"/>
      <point x="836.9090909090909" y="900.1818181818182" type="curve" smooth="yes"/>
      <point x="987.6363636363636" y="900.1818181818182"/>
      <point x="1052.1818181818182" y="852.0"/>
      <point x="1052.1818181818182" y="703.0909090909091" type="curve" smooth="yes"/>
      <point x="1052.1818181818182" y="258.0" type="line"/>
      <point x="1003.6363636363636" y="188.1818181818182"/>
      <point x="940.3636363636364" y="166.72727272727272"/>
      <point x="885.4545454545455" y="166.72727272727272" type="curve" smooth="yes"/>
      <point x="796.5454545454545" y="166.72727272727272"/>
      <point x="742.5454545454545" y="214.9090909090909"/>
      <point x="742.5454545454545" y="317.6363636363636" type="curve" smooth="yes"/>
      <point x="742.5454545454545" y="416.1818181818182"/>
      <point x="798.7272727272727" y="471.45454545454544"/>
      <point x="917.0909090909091" y="482.72727272727275" type="curve" smooth="yes"/>
      <point x="1122.1818181818182" y="501.6363636363636" type="line"/>
      <point x="1089.2727272727273" y="645.0909090909091" type="line"/>
      <point x="891.8181818181818" y="626.1818181818181" type="line" smooth="yes"/>
      <point x="619.6363636363636" y="603.4545454545455"/>
      <point x="504.9090909090909" y="490.3636363636364"/>
      <point x="504.9090909090909" y="287.8181818181818" type="curve" smooth="yes"/>
      <point x="504.9090909090909" y="96.36363636363636"/>
      <point x="627.4545454545455" y="-19.272727272727273"/>
      <point x="805.2727272727273" y="-19.272727272727273" type="curve" smooth="yes"/>
      <point x="912.7272727272727" y="-19.272727272727273"/>
      <point x="1011.6363636363636" y="21.272727272727273"/>
      <point x="1061.090909090909" y="127.45454545454545" type="curve"/>
      <point x="1074.5454545454545" y="127.45454545454545" type="line"/>
      <point x="1118.0" y="32.36363636363637"/>
      <point x="1203.4545454545455" y="-19.272727272727273"/>
      <point x="1331.090909090909" y="-19.272727272727273" type="curve" smooth="yes"/>
      <point x="1547.2727272727273" y="-19.272727272727273"/>
      <point x="1710.909090909091" y="142.72727272727272"/>
      <point x="1710.909090909091" y="575.2727272727273" type="curve" smooth="yes"/>
      <point x="1710.909090909091" y="1216.7272727272727"/>
      <point x="1413.8181818181818" y="1498.0"/>
      <point x="900.1818181818181" y="1498.0" type="curve" smooth="yes"/>
      <point x="385.6363636363636" y="1498.0"/>
      <point x="74.0" y="1216.7272727272727"/>
      <point x="74.0" y="520.0" type="curve" smooth="yes"/>
      <point x="74.0" y="-180.36363636363637"/>
      <point x="387.45454545454544" y="-460.0"/>
    </contour>
  </outline>
</glyph>
<glyph name="B" format="2">
  <advance width="1172.909090909091"/>
  <unicode hex="0042"/>
  <anchor x="592.3636363636364" y="0.0" name="bottom"/>
  <anchor x="592.3636363636364" y="1480.0" name="top"/>
  <outline>
    <contour>
      <point x="476.3636363636364" y="-15.454545454545453" type="curve" smooth="yes"/>
      <point x="932.9090909090909" y="-15.454545454545453"/>
      <point x="1124.1818181818182" y="128.1818181818182"/>
      <point x="1124.1818181818182" y="405.27272727272725" type="curve" smooth="yes"/>
      <point x="1124.1818181818182" y="615.6363636363636"/>
      <point x="1008.5454545454545" y="740.7272727272727"/>
      <point x="811.2727272727273" y="769.8181818181819" type="curve"/>
      <point x="811.2727272727273" y="756.9090909090909" type="line"/>
      <point x="997.0909090909091" y="792.0"/>
      <point x="1082.1818181818182" y="933.6363636363636"/>
      <point x="1082.1818181818182" y="1096.5454545454545" type="curve" smooth="yes"/>
      <point x="1082.1818181818182" y="1374.0"/>
      <point x="905.8181818181818" y="1497.2727272727273"/>
      <point x="516.3636363636364" y="1497.2727272727273" type="curve" smooth="yes"/>
      <point x="376.3636363636364" y="1497.2727272727273"/>
      <point x="235.8181818181818" y="1480.909090909091"/>
      <point x="122.54545454545455" y="1457.2727272727273" type="curve"/>
      <point x="122.54545454545455" y="9.454545454545453" type="line"/>
      <point x="231.8181818181818" y="-6.0"/>
      <point x="367.45454545454544" y="-15.454545454545453"/>
    </contour>
    <contour>
      <point x="538.3636363636364" y="178.1818181818182" type="curve" smooth="yes"/>
      <point x="481.6363636363636" y="178.1818181818182"/>
      <point x="425.27272727272725" y="180.1818181818182"/>
      <point x="361.8181818181818" y="186.0" type="curve"/>
      <point x="361.8181818181818" y="1288.909090909091" type="line"/>
      <point x="420.9090909090909" y="1298.7272727272727"/>
      <point x="477.6363636363636" y="1303.6363636363637"/>
      <point x="550.5454545454545" y="1303.6363636363637" type="curve" smooth="yes"/>
      <point x="768.5454545454545" y="1303.6363636363637"/>
      <point x="849.6363636363636" y="1239.8181818181818"/>
      <point x="849.6363636363636" y="1081.2727272727273" type="curve" smooth="yes"/>
      <point x="849.6363636363636" y="933.8181818181819"/>
      <point x="778.7272727272727" y="857.2727272727273"/>
      <point x="550.3636363636364" y="857.2727272727273" type="curve" smooth="yes"/>
      <point x="337.09090909090907" y="857.2727272727273" type="line"/>
      <point x="337.09090909090907" y="657.0909090909091" type="line"/>
      <point x="582.7272727272727" y="657.0909090909091" type="line" smooth="yes"/>
      <point x="797.4545454545455" y="657.0909090909091"/>
      <point x="891.6363636363636" y="579.2727272727273"/>
      <point x="891.6363636363636" y="416.54545454545456" type="curve" smooth="yes"/>
      <point x="891.6363636363636" y="250.54545454545453"/>
      <point x="796.9090909090909" y="178.1818181818182"/>
    </contour>
  </outline>
</glyph>
<glyph name="C" format="2">
  <advance width="1023.8181818181818"/>
  <unicode hex="0043"/>
  <anchor x="647.0909090909091" y="0.0" name="bottom"/>
  <anchor x="642.5454545454545" y="1520.0" name="top"/>
  <outline>
    <contour>
      <point x="708.1818181818181" y="-19.09090909090909" type="curve" smooth="yes"/>
      <point x="813.0909090909091" y="-19.09090909090909"/>
      <point x="920.1818181818181" y="0.7272727272727275"/>
      <point x="997.0909090909091" y="29.81818181818182" type="curve"/>
      <point x="997.0909090909091" y="239.63636363636363" type="line"/>
      <point x="901.6363636363636" y="208.0"/>
      <point x="818.5454545454545" y="190.9090909090909"/>
      <point x="738.9090909090909" y="190.9090909090909" type="curve" smooth="yes"/>
      <point x="472.5454545454545" y="190.9090909090909"/>
      <point x="330.3636363636364" y="314.5454545454545"/>
      <point x="330.3636363636364" y="740.9090909090909" type="curve" smooth="yes"/>
      <point x="330.3636363636364" y="1155.4545454545455"/>
      <point x="473.27272727272725" y="1289.090909090909"/>
      <point x="742.5454545454545" y="1289.090909090909" type="curve" smooth="yes"/>
      <point x="829.2727272727273" y="1289.090909090909"/>
      <point x="910.1818181818181" y="1278.909090909091"/>
      <point x="997.0909090909091" y="1254.7272727272727" type="curve"/>
      <point x="997.0909090909091" y="1464.5454545454545" type="line"/>
      <point x="912.1818181818181" y="1487.2727272727273"/>
      <point x="818.0" y="1499.090909090909"/>
      <point x="726.5454545454545" y="1499.090909090909" type="curve" smooth="yes"/>
      <point x="316.3636363636364" y="1499.090909090909"/>
      <point x="74.0" y="1276.7272727272727"/>
      <point x="74.0" y="736.9090909090909" type="curve" smooth="yes"/>
      <point x="74.0" y="182.54545454545453"/>
      <point x="312.54545454545456" y="-19.09090909090909"/>
    </contour>
  </outline>
</glyph>
<glyph name="F" format="2">
  <advance width="997.2727272727273"/>
  <unicode hex="0046"/>
  <outline>
    <contour>
      <point x="122.54545454545455" y="0.0" type="line"/>
      <point x="367.27272727272725" y="0.0" type="line"/>
      <point x="367.27272727272725" y="1265.6363636363637" type="line"/>
      <point x="983.6363636363636" y="1265.6363636363637" type="line"/>
      <point x="983.6363636363636" y="1480.0" type="line"/>
      <point x="122.54545454545455" y="1480.0" type="line"/>
    </contour>
    <contour>
      <point x="301.45454545454544" y="624.3636363636364" type="line"/>
      <point x="889.2727272727273" y="624.3636363636364" type="line"/>
      <point x="889.2727272727273" y="838.7272727272727" type="line"/>
      <point x="301.45454545454544" y="838.7272727272727" type="line"/>
    </contour>
  </outline>
</glyph>
<glyph name="H" format="2">
  <advance width="1299.6363636363635"/>
  <unicode hex="0048"/>
  <anchor x="650.3636363636364" y="0.0" name="bottom"/>
  <anchor x="650.3636363636364" y="1172.7272727272727" name="center"/>
  <anchor x="650.3636363636364" y="1520.0" name="top"/>
  <anchor x="31.636363636363637" y="1480.0" name="topleft"/>
  <outline>
    <contour>
      <point x="122.54545454545455" y="0.0" type="line"/>
      <point x="367.27272727272725" y="0.0" type="line"/>
      <point x="367.27272727272725" y="645.0909090909091" type="line"/>
      <point x="932.3636363636364" y="645.0909090909091" type="line"/>
      <point x="932.3636363636364" y="0.0" type="line"/>
      <point x="1177.090909090909" y="0.0" type="line"/>
      <point x="1177.090909090909" y="1480.0" type="line"/>
      <point x="932.3636363636364" y="1480.0" type="line"/>
      <point x="932.3636363636364" y="870.3636363636364" type="line"/>
      <point x="367.27272727272725" y="870.3636363636364" type="line"/>
      <point x="367.27272727272725" y="1480.0" type="line"/>
      <point x="122.54545454545455" y="1480.0" type="line"/>
    </contour>
  </outline>
</glyph>
<glyph name="I" format="2">
  <advance width="489.8181818181818"/>
  <unicode hex="0049"/>
  <anchor x="244.9090909090909" y="0.0" name="bottom"/>
  <anchor x="367.27272727272725" y="0.0" name="ogonek"/>
  <anchor x="244.9090909090909" y="1520.0" name="top"/>
  <outline>
    <contour>
      <point x="122.54545454545455" y="0.0" type="line"/>
      <point x="367.27272727272725" y="0.0" type="line"/>
      <point x="367.27272727272725" y="1480.0" type="line"/>
      <point x="122.54545454545455" y="1480.0" type="line"/>
    </contour>
  </outline>
</glyph>
<glyph name="K" format="2">
  <advance width="1148.0"/>
  <unicode hex="004B"/>
  <anchor x="605.0909090909091" y="0.0" name="bottom"/>
  <anchor x="598.5454545454545" y="1480.0" name="top"/>
  <outline>
    <contour>
      <point x="938.1818181818182" y="0.0" type="line"/>
      <point x="1203.4545454545455" y="0.0" type="line"/>
      <point x="677.090909090909" y="796.9090909090909" type="line"/>
      <point x="674.9090909090909" y="726.0" type="line"/>
      <point x="1164.7272727272727" y="1480.0" type="line"/>
      <point x="906.9090909090909" y="1480.0" type="line"/>
      <point x="435.8181818181818" y="753.6363636363636" type="line"/>
    </contour>
    <contour>
      <point x="122.54545454545455" y="0.0" type="line"/>
      <point x="367.27272727272725" y="0.0" type="line"/>
      <point x="367.27272727272725" y="1480.0" type="line"/>
      <point x="122.54545454545455" y="1480.0" type="line"/>
    </contour>
    <contour>
      <point x="331.6363636363636" y="645.0909090909091" type="line"/>
      <point x="530.1818181818181" y="645.0909090909091" type="line"/>
      <point x="530.1818181818181" y="869.4545454545455" type="line"/>
      <point x="331.6363636363636" y="869.4545454545455" type="line"/>
    </contour>
  </outline>
</glyph>
<glyph name="M" format="2">
  <advance width="1636.0"/>
  <unicode hex="004D"/>
  <anchor x="832.1818181818181" y="0.0" name="bottom"/>
  <anchor x="832.1818181818181" y="1480.0" name="top"/>
  <outline>
    <contour>
      <point x="126.54545454545455" y="0.0" type="line"/>
      <point x="355.09090909090907" y="0.0" type="line"/>
      <point x="355.09090909090907" y="1246.5454545454545" type="line"/>
      <point x="297.27272727272725" y="1246.5454545454545" type="line"/>
      <point x="717.8181818181819" y="210.9090909090909" type="line"/>
      <point x="918.1818181818181" y="210.9090909090909" type="line"/>
      <point x="1330.1818181818182" y="1246.5454545454545" type="line"/>
      <point x="1280.909090909091" y="1246.5454545454545" type="line"/>
      <point x="1280.909090909091" y="0.0" type="line"/>
      <point x="1509.4545454545455" y="0.0" type="line"/>
      <point x="1509.4545454545455" y="1480.0" type="line"/>
      <point x="1210.909090909091" y="1480.0" type="line"/>
      <point x="807.2727272727273" y="442.5454545454545" type="line"/>
      <point x="838.1818181818181" y="442.5454545454545" type="line"/>
      <point x="425.09090909090907" y="1480.0" type="line"/>
      <point x="126.54545454545455" y="1480.0" type="line"/>
    </contour>
  </outline>
</glyph>
<glyph name="N" format="2">
  <advance width="1320.0"/>
  <unicode hex="004E"/>
  <anchor x="660.0" y="0.0" name="bottom"/>
  <anchor x="660.0" y="1520.0" name="top"/>
  <outline>
    <contour>
      <point x="122.54545454545455" y="0.0" type="line"/>
      <point x="352.1818181818182" y="0.0" type="line"/>
      <point x="352.1818181818182" y="1152.7272727272727" type="line"/>
      <point x="306.0" y="1152.7272727272727" type="line"/>
      <point x="950.1818181818182" y="0.0" type="line"/>
      <point x="1197.4545454545455" y="0.0" type="line"/>
      <point x="1197.4545454545455" y="1480.0" type="line"/>
      <point x="967.8181818181819" y="1480.0" type="line"/>
      <point x="967.8181818181819" y="327.27272727272725" type="line"/>
      <point x="1014.0" y="327.27272727272725" type="line"/>
      <point x="369.8181818181818" y="1480.0" type="line"/>
      <point x="122.54545454545455" y="1480.0" type="line"/>
    </contour>
  </outline>
</glyph>
<glyph name="P" format="2">
  <advance width="1143.4545454545455"/>
  <unicode hex="0050"/>
  <outline>
    <contour>
      <point x="122.54545454545455" y="0.0" type="line"/>
      <point x="367.27272727272725" y="0.0" type="line"/>
      <point x="367.27272727272725" y="455.0909090909091" type="line"/>
      <point x="412.1818181818182" y="452.3636363636364"/>
      <point x="449.6363636363636" y="450.3636363636364"/>
      <point x="498.5454545454545" y="450.3636363636364" type="curve" smooth="yes"/>
      <point x="880.5454545454545" y="450.3636363636364"/>
      <point x="1076.5454545454545" y="630.3636363636364"/>
      <point x="1076.5454545454545" y="972.3636363636364" type="curve" smooth="yes"/>
      <point x="1076.5454545454545" y="1334.5454545454545"/>
      <point x="880.5454545454545" y="1497.2727272727273"/>
      <point x="493.6363636363636" y="1497.2727272727273" type="curve" smooth="yes"/>
      <point x="360.0" y="1497.2727272727273"/>
      <point x="235.8181818181818" y="1480.909090909091"/>
      <point x="122.54545454545455" y="1458.1818181818182" type="curve"/>
    </contour>
    <contour>
      <point x="503.45454545454544" y="651.6363636363636" type="curve" smooth="yes"/>
      <point x="453.45454545454544" y="651.6363636363636"/>
      <point x="410.9090909090909" y="653.6363636363636"/>
      <point x="367.27272727272725" y="659.4545454545455" type="curve"/>
      <point x="367.27272727272725" y="1284.3636363636365" type="line"/>
      <point x="413.27272727272725" y="1292.1818181818182"/>
      <point x="458.0" y="1296.0"/>
      <point x="514.3636363636364" y="1296.0" type="curve" smooth="yes"/>
      <point x="733.6363636363636" y="1296.0"/>
      <point x="836.5454545454545" y="1198.5454545454545"/>
      <point x="836.5454545454545" y="968.3636363636364" type="curve" smooth="yes"/>
      <point x="836.5454545454545" y="746.3636363636364"/>
      <point x="729.0909090909091" y="651.6363636363636"/>
    </contour>
  </outline>
</glyph>
<glyph name="Q" format="2">
  <advance width="1290.5454545454545"/>
  <unicode hex="0051"/>
  <outline>
    <contour>
      <point x="1147.6363636363635" y="-274.9090909090909" type="curve"/>
      <point x="1193.4545454545455" y="-71.45454545454547" type="line"/>
      <point x="1017.2727272727273" y="-50.18181818181819"/>
      <point x="830.3636363636364" y="-8.909090909090914"/>
      <point x="624.0" y="80.9090909090909" type="curve"/>
      <point x="563.2727272727273" y="14.909090909090907" type="line"/>
      <point x="987.6363636363636" y="-45.81818181818182"/>
      <point x="1216.5454545454545" y="214.0"/>
      <point x="1216.5454545454545" y="740.0" type="curve" smooth="yes"/>
      <point x="1216.5454545454545" y="1286.0"/>
      <point x="987.0909090909091" y="1499.090909090909"/>
      <point x="645.2727272727273" y="1499.090909090909" type="curve" smooth="yes"/>
      <point x="303.45454545454544" y="1499.090909090909"/>
      <point x="74.0" y="1286.0"/>
      <point x="74.0" y="740.0" type="curve" smooth="yes"/>
      <point x="74.0" y="149.45454545454544"/>
      <point x="330.3636363636364" y="-139.0909090909091"/>
    </contour>
    <contour>
      <point x="645.2727272727273" y="187.63636363636363" type="curve" smooth="yes"/>
      <point x="448.5454545454545" y="187.63636363636363"/>
      <point x="327.09090909090907" y="319.45454545454544"/>
      <point x="327.09090909090907" y="746.1818181818181" type="curve" smooth="yes"/>
      <point x="327.09090909090907" y="1160.5454545454545"/>
      <point x="448.5454545454545" y="1292.3636363636365"/>
      <point x="645.2727272727273" y="1292.3636363636365" type="curve" smooth="yes"/>
      <point x="842.0" y="1292.3636363636365"/>
      <point x="963.4545454545455" y="1160.5454545454545"/>
      <point x="963.4545454545455" y="733.8181818181819" type="curve" smooth="yes"/>
      <point x="963.4545454545455" y="319.45454545454544"/>
      <point x="842.0" y="187.63636363636363"/>
    </contour>
  </outline>
</glyph>
<glyph name="T" format="2">
  <advance width="1092.3636363636363"/>
  <unicode hex="0054"/>
  <anchor x="546.7272727272727" y="0.0" name="bottom"/>
  <anchor x="546.7272727272727" y="745.4545454545455" name="center"/>
  <anchor x="546.7272727272727" y="1520.0" name="top"/>
  <outline>
    <contour>
      <point x="423.27272727272725" y="0.0" type="line"/>
      <point x="669.0909090909091" y="0.0" type="line"/>
      <point x="669.0909090909091" y="1261.2727272727273" type="line"/>
      <point x="1086.5454545454545" y="1261.2727272727273" type="line"/>
      <point x="1086.5454545454545" y="1480.0" type="line"/>
      <point x="5.818181818181818" y="1480.0" type="line"/>
      <point x="5.818181818181818" y="1261.2727272727273" type="line"/>
      <point x="423.27272727272725" y="1261.2727272727273" type="line"/>
    </contour>
  </outline>
</glyph>
<glyph name="V" format="2">
  <advance width="1197.2727272727273"/>
  <unicode hex="0056"/>
  <outline>
    <contour>
      <point x="413.6363636363636" y="0.0" type="line"/>
      <point x="783.6363636363636" y="0.0" type="line"/>
      <point x="1202.5454545454545" y="1480.0" type="line"/>
      <point x="966.7272727272727" y="1480.0" type="line"/>
      <point x="580.1818181818181" y="100.0" type="line"/>
      <point x="628.9090909090909" y="100.0" type="line"/>
      <point x="247.63636363636363" y="1480.0" type="line"/>
      <point x="-5.272727272727272" y="1480.0" type="line"/>
    </contour>
  </outline>
</glyph>
<glyph name="X" format="2">
  <advance width="1192.7272727272727"/>
  <unicode hex="0058"/>
  <outline>
    <contour>
      <point x="933.6363636363636" y="0.0" type="line"/>
      <point x="1201.090909090909" y="0.0" type="line"/>
      <point x="738.3636363636364" y="764.3636363636364" type="line"/>
      <point x="595.8181818181818" y="966.0" type="line"/>
      <point x="285.6363636363636" y="1480.0" type="line"/>
      <point x="15.81818181818182" y="1480.0" type="line"/>
      <point x="453.27272727272725" y="763.2727272727273" type="line"/>
      <point x="595.8181818181818" y="564.0" type="line"/>
    </contour>
    <contour>
      <point x="-13.818181818181813" y="0.0" type="line"/>
      <point x="256.0" y="0.0" type="line"/>
      <point x="595.8181818181818" y="564.0" type="line"/>
      <point x="738.3636363636364" y="764.3636363636364" type="line"/>
      <point x="1171.4545454545455" y="1480.0" type="line"/>
      <point x="906.0" y="1480.0" type="line"/>
      <point x="595.8181818181818" y="966.0" type="line"/>
      <point x="453.27272727272725" y="763.2727272727273" type="line"/>
    </contour>
  </outline>
</glyph>
<glyph name="bracketleft" format="2">
  <advance width="615.8181818181818"/>
  <unicode hex="005B"/>
  <outline>
    <contour>
      <point x="142.54545454545456" y="-440.0" type="line"/>
      <point x="650.3636363636364" y="-440.0" type="line"/>
      <point x="650.3636363636364" y="-247.27272727272728" type="line"/>
      <point x="384.0" y="-247.27272727272728" type="line"/>
      <point x="384.0" y="1423.2727272727273" type="line"/>
      <point x="650.3636363636364" y="1423.2727272727273" type="line"/>
      <point x="650.3636363636364" y="1616.0" type="line"/>
      <point x="142.54545454545456" y="1616.0" type="line"/>
    </contour>
  </outline>
</glyph>
<glyph name="backslash" format="2">
  <advance width="598.0"/>
  <unicode hex="005C"/>
  <outline>
    <contour>
      <point x="364.3636363636364" y="-240.0" type="line"/>
      <point x="598.0" y="-240.0" type="line"/>
      <point x="233.63636363636363" y="1616.0" type="line"/>
      <point x="0.0" y="1616.0" type="line"/>
    </contour>
  </outline>
</glyph>
<glyph name="bracketright" format="2">
  <advance width="615.8181818181818"/>
  <unicode hex="005D"/>
  <outline>
    <contour>
      <point x="-34.54545454545455" y="-440.0" type="line"/>
      <point x="473.27272727272725" y="-440.0" type="line"/>
      <point x="473.27272727272725" y="1616.0" type="line"/>
      <point x="-34.54545454545455" y="1616.0" type="line"/>
      <point x="-34.54545454545455" y="1423.2727272727273" type="line"/>
      <point x="231.8181818181818" y="1423.2727272727273" type="line"/>
      <point x="231.8181818181818" y="-247.27272727272728" type="line"/>
      <point x="-34.54545454545455" y="-247.27272727272728" type="line"/>
    </contour>
  </outline>
</glyph>
<glyph name="asciicircum" format="2">
  <advance width="1109.090909090909"/>
  <unicode hex="005E"/>
  <outline>
    <contour>
      <point x="81.27272727272728" y="740.0" type="line"/>
      <point x="308.9090909090909" y="740.0" type="line"/>
      <point x="595.6363636363636" y="1346.3636363636365" type="line"/>
      <point x="513.4545454545455" y="1346.3636363636365" type="line"/>
      <point x="800.1818181818181" y="740.0" type="line"/>
      <point x="1027.8181818181818" y="740.0" type="line"/>
      <point x="661.6363636363636" y="1480.0" type="line"/>
      <point x="446.54545454545456" y="1480.0" type="line"/>
    </contour>
  </outline>
</glyph>
<glyph name="underscore" format="2">
  <advance width="1012.5454545454545"/>
  <unicode hex="005F"/>
  <outline>
    <contour>
      <point x="84.54545454545455" y="-192.72727272727272" type="line"/>
      <point x="928.0" y="-192.72727272727272" type="line"/>
      <point x="928.0" y="0.0" type="line"/>
      <point x="84.54545454545455" y="0.0" type="line"/>
    </contour>
  </outline>
</glyph>
<glyph name="b" format="2">
  <advance width="1017.6363636363636"/>
  <unicode hex="0062"/>
  <anchor x="515.6363636363636" y="0.0" name="bottom"/>
  <anchor x="229.27272727272725" y="1616.0" name="top"/>
  <outline>
    <contour>
      <point x="430.9090909090909" y="-19.09090909090909" type="curve" smooth="yes"/>
      <point x="784.7272727272727" y="-20.18181818181818"/>
      <point x="955.8181818181818" y="173.63636363636363"/>
      <point x="955.8181818181818" y="563.2727272727273" type="curve" smooth="yes"/>
      <point x="955.8181818181818" y="960.7272727272727"/>
      <point x="787.6363636363636" y="1108.0"/>
      <point x="596.3636363636364" y="1108.0" type="curve" smooth="yes"/>
      <point x="488.18181818181813" y="1108.0"/>
      <point x="406.72727272727275" y="1056.5454545454545"/>
      <point x="362.0" y="983.4545454545455" type="curve"/>
      <point x="349.45454545454544" y="983.4545454545455" type="line"/>
      <point x="349.45454545454544" y="1616.0" type="line"/>
      <point x="108.0" y="1616.0" type="line"/>
      <point x="108.0" y="33.27272727272727" type="line"/>
      <point x="199.63636363636363" y="-0.7272727272727275"/>
      <point x="323.27272727272725" y="-19.09090909090909"/>
    </contour>
    <contour>
      <point x="448.3636363636364" y="170.1818181818182" type="curve" smooth="yes"/>
      <point x="415.09090909090907" y="170.1818181818182"/>
      <point x="376.3636363636364" y="175.8181818181818"/>
      <point x="349.45454545454544" y="183.45454545454544" type="curve"/>
      <point x="349.45454545454544" y="823.8181818181819" type="line"/>
      <point x="382.9090909090909" y="874.5454545454545"/>
      <point x="443.27272727272725" y="901.2727272727273"/>
      <point x="500.72727272727275" y="901.2727272727273" type="curve" smooth="yes"/>
      <point x="622.7272727272727" y="901.2727272727273"/>
      <point x="708.1818181818182" y="836.1818181818182"/>
      <point x="708.1818181818182" y="541.0909090909091" type="curve" smooth="yes"/>
      <point x="708.1818181818182" y="262.3636363636364"/>
      <point x="616.0" y="170.1818181818182"/>
    </contour>
  </outline>
</glyph>
<glyph name="f" format="2">
  <advance width="659.0909090909091"/>
  <unicode hex="0066"/>
  <outline>
    <contour>
      <point x="175.27272727272728" y="0.0" type="line"/>
      <point x="413.45454545454544" y="0.0" type="line"/>
      <point x="413.45454545454544" y="1250.7272727272727" type="line" smooth="yes"/>
      <point x="413.45454545454544" y="1381.4545454545455"/>
      <point x="474.3636363636364" y="1436.909090909091"/>
      <point x="611.4545454545455" y="1436.909090909091" type="curve" smooth="yes"/>
      <point x="647.4545454545455" y="1436.909090909091"/>
      <point x="677.0909090909091" y="1434.0"/>
      <point x="713.6363636363636" y="1428.1818181818182" type="curve"/>
      <point x="713.6363636363636" y="1624.909090909091" type="line"/>
      <point x="671.4545454545455" y="1632.909090909091"/>
      <point x="621.0909090909091" y="1636.0"/>
      <point x="579.4545454545455" y="1636.0" type="curve" smooth="yes"/>
      <point x="309.45454545454544" y="1636.0"/>
      <point x="175.27272727272728" y="1493.090909090909"/>
      <point x="175.27272727272728" y="1237.4545454545455" type="curve" smooth="yes"/>
    </contour>
    <contour>
      <point x="8.0" y="898.1818181818182" type="line"/>
      <point x="675.2727272727273" y="898.1818181818182" type="line"/>
      <point x="675.2727272727273" y="1090.909090909091" type="line"/>
      <point x="8.0" y="1090.909090909091" type="line"/>
    </contour>
  </outline>
</glyph>
<glyph name="h" format="2">
  <advance width="1021.6363636363636"/>
  <unicode hex="0068"/>
  <anchor x="514.7272727272727" y="0.0" name="bottom"/>
  <anchor x="514.7272727272727" y="545.4545454545455" name="center"/>
  <anchor x="108.0" y="1352.7272727272727" name="stroke"/>
  <anchor x="514.7272727272727" y="1616.0" name="top"/>
  <outline>
    <contour>
      <point x="108.0" y="0.0" type="line"/>
      <point x="349.45454545454544" y="0.0" type="line"/>
      <point x="349.45454545454544" y="787.8181818181819" type="line"/>
      <point x="395.09090909090907" y="862.7272727272727"/>
      <point x="476.9090909090909" y="890.5454545454545"/>
      <point x="537.2727272727273" y="890.5454545454545" type="curve" smooth="yes"/>
      <point x="621.4545454545455" y="890.5454545454545"/>
      <point x="678.9090909090909" y="850.1818181818182"/>
      <point x="678.9090909090909" y="718.3636363636364" type="curve" smooth="yes"/>
      <point x="678.9090909090909" y="0.0" type="line"/>
      <point x="920.3636363636364" y="0.0" type="line"/>
      <point x="920.3636363636364" y="736.1818181818182" type="line" smooth="yes"/>
      <point x="920.3636363636364" y="1014.5454545454545"/>
      <point x="789.6363636363636" y="1108.0"/>
      <point x="630.7272727272727" y="1108.0" type="curve" smooth="yes"/>
      <point x="512.0" y="1108.0"/>
      <point x="424.5454545454545" y="1060.7272727272727"/>
      <point x="362.0" y="973.4545454545455" type="curve"/>
      <point x="349.45454545454544" y="973.4545454545455" type="line"/>
      <point x="349.45454545454544" y="1616.0" type="line"/>
      <point x="108.0" y="1616.0" type="line"/>
    </contour>
  </outline>
</glyph>
<glyph name="j" format="2">
  <advance width="458.5454545454545"/>
  <unicode hex="006A"/>
  <anchor x="229.27272727272725" y="1200.0" name="_top"/>
  <anchor x="229.27272727272725" y="1200.0" name="top"/>
  <outline>
    <contour>
      <point x="117.81818181818181" y="-468.72727272727275" type="line"/>
      <point x="287.0909090909091" y="-257.09090909090907"/>
      <point x="350.5454545454545" y="-74.0"/>
      <point x="350.5454545454545" y="186.9090909090909" type="curve" smooth="yes"/>
      <point x="350.5454545454545" y="1090.909090909091" type="line"/>
      <point x="108.0" y="1090.909090909091" type="line"/>
      <point x="108.0" y="173.63636363636363" type="line" smooth="yes"/>
      <point x="108.0" y="-52.36363636363637"/>
      <point x="68.9090909090909" y="-190.1818181818182"/>
      <point x="-44.54545454545455" y="-361.6363636363636" type="curve"/>
    </contour>
    <contour>
      <point x="229.27272727272725" y="1278.1818181818182" type="curve" smooth="yes"/>
      <point x="334.0" y="1278.1818181818182"/>
      <point x="385.0909090909091" y="1331.6363636363637"/>
      <point x="385.0909090909091" y="1419.8181818181818" type="curve" smooth="yes"/>
      <point x="385.0909090909091" y="1508.0"/>
      <point x="334.0" y="1562.3636363636363"/>
      <point x="229.27272727272725" y="1562.3636363636363" type="curve" smooth="yes"/>
      <point x="124.54545454545455" y="1562.3636363636363"/>
      <point x="73.45454545454547" y="1508.0"/>
      <point x="73.45454545454547" y="1419.8181818181818" type="curve" smooth="yes"/>
      <point x="73.45454545454547" y="1331.6363636363637"/>
      <point x="124.54545454545455" y="1278.1818181818182"/>
    </contour>
  </outline>
</glyph>
<glyph name="m" format="2">
  <advance width="1547.090909090909"/>
  <unicode hex="006D"/>
  <anchor x="778.9090909090909" y="0.0" name="bottom"/>
  <anchor x="778.9090909090909" y="1200.0" name="top"/>
  <outline>
    <contour>
      <point x="108.0" y="0.0" type="line"/>
      <point x="349.45454545454544" y="0.0" type="line"/>
      <point x="349.45454545454544" y="785.0909090909091" type="line"/>
      <point x="393.09090909090907" y="862.7272727272727"/>
      <point x="471.09090909090907" y="891.4545454545455"/>
      <point x="526.7272727272727" y="891.4545454545455" type="curve" smooth="yes"/>
      <point x="604.3636363636364" y="891.4545454545455"/>
      <point x="659.8181818181819" y="851.2727272727273"/>
      <point x="659.8181818181819" y="722.0" type="curve" smooth="yes"/>
      <point x="659.8181818181819" y="0.0" type="line"/>
      <point x="896.9090909090909" y="0.0" type="line"/>
      <point x="896.9090909090909" y="747.0909090909091" type="line" smooth="yes"/>
      <point x="896.9090909090909" y="1016.7272727272727"/>
      <point x="771.0909090909091" y="1108.0"/>
      <point x="615.4545454545455" y="1108.0" type="curve" smooth="yes"/>
      <point x="503.8181818181818" y="1108.0"/>
      <point x="411.6363636363636" y="1064.0"/>
      <point x="340.1818181818182" y="972.5454545454545" type="curve"/>
      <point x="327.8181818181818" y="972.5454545454545" type="line"/>
      <point x="309.8181818181818" y="1090.909090909091" type="line"/>
      <point x="108.0" y="1090.909090909091" type="line"/>
    </contour>
    <contour>
      <point x="1204.3636363636363" y="0.0" type="line"/>
      <point x="1445.8181818181818" y="0.0" type="line"/>
      <point x="1445.8181818181818" y="734.0" type="line" smooth="yes"/>
      <point x="1445.8181818181818" y="1014.5454545454545"/>
      <point x="1312.909090909091" y="1108.0"/>
      <point x="1145.2727272727273" y="1108.0" type="curve" smooth="yes"/>
      <point x="1032.5454545454545" y="1108.0"/>
      <point x="914.1818181818181" y="1056.3636363636363"/>
      <point x="835.4545454545455" y="932.3636363636364" type="curve"/>
      <point x="882.0" y="774.1818181818182" type="line"/>
      <point x="927.8181818181818" y="862.7272727272727"/>
      <point x="1011.6363636363636" y="891.4545454545455"/>
      <point x="1067.2727272727273" y="891.4545454545455" type="curve" smooth="yes"/>
      <point x="1144.909090909091" y="891.4545454545455"/>
      <point x="1204.3636363636363" y="851.2727272727273"/>
      <point x="1204.3636363636363" y="722.0" type="curve" smooth="yes"/>
    </contour>
  </outline>
</glyph>
<glyph name="p" format="2">
  <advance width="1017.6363636363636"/>
  <unicode hex="0070"/>
  <outline>
    <contour>
      <point x="108.0" y="-440.0" type="line"/>
      <point x="349.45454545454544" y="-440.0" type="line"/>
      <point x="349.45454545454544" y="-14.545454545454545" type="line"/>
      <point x="374.5454545454545" y="-17.272727272727273"/>
      <point x="403.09090909090907" y="-19.09090909090909"/>
      <point x="428.1818181818182" y="-19.09090909090909" type="curve" smooth="yes"/>
      <point x="785.6363636363636" y="-19.09090909090909"/>
      <point x="955.8181818181818" y="174.72727272727272"/>
      <point x="955.8181818181818" y="564.3636363636364" type="curve" smooth="yes"/>
      <point x="955.8181818181818" y="961.8181818181819"/>
      <point x="778.9090909090909" y="1108.0"/>
      <point x="580.3636363636364" y="1108.0" type="curve" smooth="yes"/>
      <point x="467.45454545454544" y="1108.0"/>
      <point x="386.0" y="1052.1818181818182"/>
      <point x="342.3636363636364" y="974.1818181818181" type="curve"/>
      <point x="330.0" y="974.1818181818181" type="line"/>
      <point x="313.09090909090907" y="1090.909090909091" type="line"/>
      <point x="108.0" y="1090.909090909091" type="line"/>
    </contour>
    <contour>
      <point x="446.5454545454545" y="170.1818181818182" type="curve" smooth="yes"/>
      <point x="418.3636363636364" y="170.1818181818182"/>
      <point x="376.3636363636364" y="174.0"/>
      <point x="349.45454545454544" y="178.72727272727272" type="curve"/>
      <point x="349.45454545454544" y="818.7272727272727" type="line"/>
      <point x="384.0" y="873.4545454545455"/>
      <point x="446.5454545454545" y="902.3636363636364"/>
      <point x="506.3636363636364" y="902.3636363636364" type="curve" smooth="yes"/>
      <point x="622.7272727272727" y="902.3636363636364"/>
      <point x="708.1818181818182" y="837.2727272727273"/>
      <point x="708.1818181818182" y="542.1818181818181" type="curve" smooth="yes"/>
      <point x="708.1818181818182" y="262.3636363636364"/>
      <point x="616.0" y="170.1818181818182"/>
    </contour>
  </outline>
</glyph>
<glyph name="q" format="2">
  <advance width="1017.6363636363636"/>
  <unicode hex="0071"/>
  <outline>
    <contour>
      <point x="668.1818181818182" y="-440.0" type="line"/>
      <point x="909.6363636363636" y="-440.0" type="line"/>
      <point x="909.6363636363636" y="1055.6363636363637" type="line"/>
      <point x="819.8181818181818" y="1088.7272727272727"/>
      <point x="694.3636363636364" y="1108.0"/>
      <point x="586.7272727272727" y="1108.0" type="curve" smooth="yes"/>
      <point x="232.9090909090909" y="1108.0"/>
      <point x="61.81818181818182" y="915.2727272727273"/>
      <point x="61.81818181818182" y="525.6363636363636" type="curve" smooth="yes"/>
      <point x="61.81818181818182" y="128.1818181818182"/>
      <point x="230.0" y="-19.09090909090909"/>
      <point x="421.27272727272725" y="-19.09090909090909" type="curve" smooth="yes"/>
      <point x="529.4545454545455" y="-19.09090909090909"/>
      <point x="610.9090909090909" y="32.36363636363637"/>
      <point x="655.6363636363636" y="105.45454545454545" type="curve"/>
      <point x="668.1818181818182" y="105.45454545454545" type="line"/>
    </contour>
    <contour>
      <point x="516.9090909090909" y="187.63636363636363" type="curve" smooth="yes"/>
      <point x="394.9090909090909" y="187.63636363636363"/>
      <point x="309.45454545454544" y="252.72727272727272"/>
      <point x="309.45454545454544" y="547.8181818181819" type="curve" smooth="yes"/>
      <point x="309.45454545454544" y="826.5454545454545"/>
      <point x="403.8181818181818" y="918.7272727272727"/>
      <point x="568.1818181818181" y="918.7272727272727" type="curve" smooth="yes"/>
      <point x="601.4545454545455" y="918.7272727272727"/>
      <point x="641.2727272727273" y="913.0909090909091"/>
      <point x="668.1818181818182" y="907.4545454545455" type="curve"/>
      <point x="668.1818181818182" y="265.09090909090907" type="line"/>
      <point x="634.7272727272727" y="214.36363636363637"/>
      <point x="574.3636363636364" y="187.63636363636363"/>
    </contour>
  </outline>
</glyph>
<glyph name="v" format="2">
  <advance width="963.8181818181818"/>
  <unicode hex="0076"/>
  <anchor x="482.3636363636364" y="0.0" name="bottom"/>
  <anchor x="482.3636363636364" y="1200.0" name="top"/>
  <outline>
    <contour>
      <point x="324.1818181818182" y="0.0" type="line"/>
      <point x="639.6363636363636" y="0.0" type="line"/>
      <point x="963.8181818181818" y="1090.909090909091" type="line"/>
      <point x="722.0" y="1090.909090909091" type="line"/>
      <point x="473.6363636363636" y="188.9090909090909" type="line"/>
      <point x="498.9090909090909" y="188.9090909090909" type="line"/>
      <point x="250.54545454545453" y="1090.909090909091" type="line"/>
      <point x="0.0" y="1090.909090909091" type="line"/>
    </contour>
  </outline>
</glyph>
<glyph name="x" format="2">
  <advance width="931.0909090909091"/>
  <unicode hex="0078"/>
  <anchor x="466.0" y="0.0" name="bottom"/>
  <anchor x="467.09090909090907" y="1200.0" name="top"/>
  <outline>
    <contour>
      <point x="682.1818181818181" y="0.0" type="line"/>
      <point x="945.4545454545455" y="0.0" type="line"/>
      <point x="608.7272727272727" y="552.5454545454545" type="line"/>
      <point x="468.1818181818182" y="735.8181818181818" type="line"/>
      <point x="257.09090909090907" y="1090.909090909091" type="line"/>
      <point x="-6.18181818181818" y="1090.909090909091" type="line"/>
      <point x="321.27272727272725" y="549.4545454545455" type="line"/>
      <point x="464.0" y="369.27272727272725" type="line"/>
    </contour>
    <contour>
      <point x="-11.27272727272727" y="0.0" type="line"/>
      <point x="244.54545454545453" y="0.0" type="line"/>
      <point x="464.0" y="369.27272727272725" type="line"/>
      <point x="608.7272727272727" y="552.5454545454545" type="line"/>
      <point x="935.090909090909" y="1090.909090909091" type="line"/>
      <point x="679.2727272727273" y="1090.909090909091" type="line"/>
      <point x="468.1818181818182" y="735.8181818181818" type="line"/>
      <point x="321.27272727272725" y="549.4545454545455" type="line"/>
    </contour>
  </outline>
</glyph>
<glyph name="z" format="2">
  <advance width="815.0909090909091"/>
  <unicode hex="007A"/>
  <anchor x="413.27272727272725" y="0.0" name="bottom"/>
  <anchor x="413.27272727272725" y="1200.0" name="top"/>
  <outline>
    <contour>
      <point x="47.45454545454545" y="0.0" type="line"/>
      <point x="778.1818181818181" y="0.0" type="line"/>
      <point x="778.1818181818181" y="192.72727272727272" type="line"/>
      <point x="287.45454545454544" y="192.72727272727272" type="line"/>
      <point x="287.45454545454544" y="141.63636363636363" type="line"/>
      <point x="768.1818181818181" y="941.8181818181819" type="line"/>
      <point x="768.1818181818181" y="1090.909090909091" type="line"/>
      <point x="57.45454545454545" y="1090.909090909091" type="line"/>
      <point x="57.45454545454545" y="898.1818181818182" type="line"/>
      <point x="528.1818181818182" y="898.1818181818182" type="line"/>
      <point x="528.1818181818182" y="949.2727272727273" type="line"/>
      <point x="47.45454545454545" y="149.09090909090907" type="line"/>
    </contour>
  </outline>
</glyph>
<glyph name="braceleft" format="2">
  <advance width="655.8181818181818"/>
  <unicode hex="007B"/>
  <outline>
    <contour>
      <point x="537.6363636363636" y="-460.0" type="curve" smooth="yes"/>
      <point x="595.8181818181818" y="-460.0"/>
      <point x="648.3636363636364" y="-454.90909090909093"/>
      <point x="690.3636363636364" y="-447.8181818181818" type="curve"/>
      <point x="690.3636363636364" y="-263.0909090909091" type="line"/>
      <point x="572.9090909090909" y="-263.0909090909091" type="line" smooth="yes"/>
      <point x="473.45454545454544" y="-263.0909090909091"/>
      <point x="424.0" y="-218.0"/>
      <point x="424.0" y="-121.81818181818181" type="curve" smooth="yes"/>
      <point x="424.0" y="380.1818181818182" type="line" smooth="yes"/>
      <point x="424.0" y="539.8181818181819"/>
      <point x="350.72727272727275" y="631.4545454545455"/>
      <point x="155.27272727272728" y="643.2727272727273" type="curve"/>
      <point x="155.27272727272728" y="611.6363636363636" type="line"/>
      <point x="350.72727272727275" y="623.4545454545455"/>
      <point x="424.0" y="715.0909090909091"/>
      <point x="424.0" y="874.7272727272727" type="curve" smooth="yes"/>
      <point x="424.0" y="1297.8181818181818" type="line" smooth="yes"/>
      <point x="424.0" y="1394.0"/>
      <point x="473.45454545454544" y="1439.090909090909"/>
      <point x="572.9090909090909" y="1439.090909090909" type="curve" smooth="yes"/>
      <point x="690.3636363636364" y="1439.090909090909" type="line"/>
      <point x="690.3636363636364" y="1623.8181818181818" type="line"/>
      <point x="648.3636363636364" y="1630.909090909091"/>
      <point x="595.8181818181818" y="1636.0"/>
      <point x="537.6363636363636" y="1636.0" type="curve" smooth="yes"/>
      <point x="302.54545454545456" y="1636.0"/>
      <point x="182.54545454545456" y="1518.1818181818182"/>
      <point x="182.54545454545456" y="1292.0" type="curve" smooth="yes"/>
      <point x="182.54545454545456" y="858.3636363636364" type="line" smooth="yes"/>
      <point x="182.54545454545456" y="770.1818181818181"/>
      <point x="132.54545454545456" y="723.8181818181818"/>
      <point x="48.90909090909091" y="723.8181818181818" type="curve" smooth="yes"/>
      <point x="13.272727272727273" y="723.8181818181818" type="line"/>
      <point x="13.272727272727273" y="531.0909090909091" type="line"/>
      <point x="48.90909090909091" y="531.0909090909091" type="line" smooth="yes"/>
      <point x="132.54545454545456" y="531.0909090909091"/>
      <point x="182.54545454545456" y="484.72727272727275"/>
      <point x="182.54545454545456" y="396.54545454545456" type="curve" smooth="yes"/>
      <point x="182.54545454545456" y="-116.0" type="line" smooth="yes"/>
      <point x="182.54545454545456" y="-342.1818181818182"/>
      <point x="302.54545454545456" y="-460.0"/>
    </contour>
  </outline>
</glyph>
<glyph name="bar" format="2">
  <advance width="461.45454545454544"/>
  <unicode hex="007C"/>
  <outline>
    <contour>
      <point x="122.54545454545455" y="-440.0" type="line"/>
      <point x="338.9090909090909" y="-440.0" type="line"/>
      <point x="338.9090909090909" y="1616.0" type="line"/>
      <point x="122.54545454545455" y="1616.0" type="line"/>
    </contour>
  </outline>
</glyph>
<glyph name="braceright" format="2">
  <advance width="655.8181818181818"/>
  <unicode hex="007D"/>
  <outline>
    <contour>
      <point x="118.18181818181819" y="-460.0" type="curve" smooth="yes"/>
      <point x="353.27272727272725" y="-460.0"/>
      <point x="473.27272727272725" y="-342.1818181818182"/>
      <point x="473.27272727272725" y="-116.0" type="curve" smooth="yes"/>
      <point x="473.27272727272725" y="396.54545454545456" type="line" smooth="yes"/>
      <point x="473.27272727272725" y="484.72727272727275"/>
      <point x="523.2727272727273" y="531.0909090909091"/>
      <point x="606.9090909090909" y="531.0909090909091" type="curve" smooth="yes"/>
      <point x="642.5454545454545" y="531.0909090909091" type="line"/>
      <point x="642.5454545454545" y="723.8181818181818" type="line"/>
      <point x="606.9090909090909" y="723.8181818181818" type="line" smooth="yes"/>
      <point x="523.2727272727273" y="723.8181818181818"/>
      <point x="473.27272727272725" y="770.1818181818181"/>
      <point x="473.27272727272725" y="858.3636363636364" type="curve" smooth="yes"/>
      <point x="473.27272727272725" y="1292.0" type="line" smooth="yes"/>
      <point x="473.27272727272725" y="1518.1818181818182"/>
      <point x="353.27272727272725" y="1636.0"/>
      <point x="118.18181818181819" y="1636.0" type="curve" smooth="yes"/>
      <point x="60.0" y="1636.0"/>
      <point x="7.454545454545453" y="1630.909090909091"/>
      <point x="-34.54545454545455" y="1623.8181818181818" type="curve"/>
      <point x="-34.54545454545455" y="1439.090909090909" type="line"/>
      <point x="82.9090909090909" y="1439.090909090909" type="line" smooth="yes"/>
      <point x="182.36363636363637" y="1439.090909090909"/>
      <point x="231.8181818181818" y="1394.0"/>
      <point x="231.8181818181818" y="1297.8181818181818" type="curve" smooth="yes"/>
      <point x="231.8181818181818" y="874.7272727272727" type="line" smooth="yes"/>
      <point x="231.8181818181818" y="715.0909090909091"/>
      <point x="308.3636363636364" y="623.4545454545455"/>
      <point x="500.54545454545456" y="611.6363636363636" type="curve"/>
      <point x="500.54545454545456" y="643.2727272727273" type="line"/>
      <point x="308.3636363636364" y="631.4545454545455"/>
      <point x="231.8181818181818" y="539.8181818181819"/>
      <point x="231.8181818181818" y="380.1818181818182" type="curve" smooth="yes"/>
      <point x="231.8181818181818" y="-121.81818181818181" type="line" smooth="yes"/>
      <point x="231.8181818181818" y="-218.0"/>
      <point x="182.36363636363637" y="-263.0909090909091"/>
      <point x="82.9090909090909" y="-263.0909090909091" type="curve" smooth="yes"/>
      <point x="-34.54545454545455" y="-263.0909090909091" type="line"/>
      <point x="-34.54545454545455" y="-447.8181818181818" type="line"/>
      <point x="7.454545454545453" y="-454.90909090909093"/>
      <point x="60.0" y="-460.0"/>
    </contour>
  </outline>
</glyph>
<glyph name="asciitilde" format="2">
  <advance width="1026.909090909091"/>
  <unicode hex="007E"/>
  <outline>
    <contour>
      <point x="698.5454545454545" y="604.0" type="curve" smooth="yes"/>
      <point x="791.8181818181818" y="604.0"/>
      <point x="862.9090909090909" y="634.9090909090909"/>
      <point x="918.9090909090909" y="700.5454545454545" type="curve"/>
      <point x="918.9090909090909" y="902.5454545454545" type="line"/>
      <point x="851.8181818181818" y="827.2727272727273"/>
      <point x="784.5454545454545" y="793.4545454545455"/>
      <point x="699.8181818181819" y="793.4545454545455" type="curve" smooth="yes"/>
      <point x="583.8181818181819" y="793.4545454545455"/>
      <point x="473.45454545454544" y="910.5454545454545"/>
      <point x="328.3636363636364" y="910.5454545454545" type="curve" smooth="yes"/>
      <point x="235.0909090909091" y="910.5454545454545"/>
      <point x="164.0" y="879.6363636363636"/>
      <point x="108.0" y="814.0" type="curve"/>
      <point x="108.0" y="612.0" type="line"/>
      <point x="175.0909090909091" y="687.2727272727273"/>
      <point x="242.36363636363637" y="721.0909090909091"/>
      <point x="327.09090909090907" y="721.0909090909091" type="curve" smooth="yes"/>
      <point x="443.09090909090907" y="721.0909090909091"/>
      <point x="553.4545454545455" y="604.0"/>
    </contour>
  </outline>
</glyph>
<glyph name="exclamdown" format="2">
  <advance width="500.3636363636364"/>
  <unicode hex="00A1"/>
  <outline>
    <contour>
      <point x="176.0" y="650.5454545454545" type="line"/>
      <point x="120.36363636363637" y="139.8181818181818" type="line"/>
      <point x="120.36363636363637" y="-380.0" type="line"/>
      <point x="380.0" y="-380.0" type="line"/>
      <point x="380.0" y="139.8181818181818" type="line"/>
      <point x="326.5454545454545" y="650.5454545454545" type="line"/>
    </contour>
    <contour>
      <point x="250.1818181818182" y="1106.3636363636363" type="curve" smooth="yes"/>
      <point x="155.27272727272728" y="1106.3636363636363"/>
      <point x="87.81818181818181" y="1045.2727272727273"/>
      <point x="87.81818181818181" y="946.1818181818182" type="curve" smooth="yes"/>
      <point x="87.81818181818181" y="847.0909090909091"/>
      <point x="153.0909090909091" y="785.0909090909091"/>
      <point x="250.1818181818182" y="785.0909090909091" type="curve" smooth="yes"/>
      <point x="347.27272727272725" y="785.0909090909091"/>
      <point x="412.5454545454545" y="849.2727272727273"/>
      <point x="412.5454545454545" y="946.1818181818182" type="curve" smooth="yes"/>
      <point x="412.5454545454545" y="1043.090909090909"/>
      <point x="345.09090909090907" y="1106.3636363636363"/>
    </contour>
  </outline>
</glyph>
<glyph name="sterling" format="2">
  <advance width="1134.1818181818182"/>
  <unicode hex="00A3"/>
  <outline>
    <contour>
      <point x="245.45454545454547" y="82.18181818181819" type="line"/>
      <point x="486.9090909090909" y="82.18181818181819" type="line"/>
      <point x="486.9090909090909" y="1052.3636363636363" type="line" smooth="yes"/>
      <point x="486.9090909090909" y="1217.4545454545455"/>
      <point x="576.0" y="1290.1818181818182"/>
      <point x="802.0" y="1290.1818181818182" type="curve" smooth="yes"/>
      <point x="884.9090909090909" y="1290.1818181818182"/>
      <point x="978.0" y="1279.090909090909"/>
      <point x="1060.7272727272727" y="1255.4545454545455" type="curve"/>
      <point x="1060.7272727272727" y="1464.1818181818182" type="line"/>
      <point x="984.0" y="1486.0"/>
      <point x="878.5454545454545" y="1499.090909090909"/>
      <point x="782.1818181818181" y="1499.090909090909" type="curve" smooth="yes"/>
      <point x="423.45454545454544" y="1499.090909090909"/>
      <point x="245.45454545454547" y="1339.8181818181818"/>
      <point x="245.45454545454547" y="1046.909090909091" type="curve" smooth="yes"/>
    </contour>
    <contour>
      <point x="63.63636363636364" y="0.0" type="line"/>
      <point x="1092.909090909091" y="0.0" type="line"/>
      <point x="1092.909090909091" y="211.27272727272725" type="line"/>
      <point x="63.63636363636364" y="211.27272727272725" type="line"/>
    </contour>
    <contour>
      <point x="63.63636363636364" y="653.6363636363636" type="line"/>
      <point x="909.8181818181818" y="653.6363636363636" type="line"/>
      <point x="909.8181818181818" y="846.3636363636364" type="line"/>
      <point x="63.63636363636364" y="846.3636363636364" type="line"/>
    </contour>
  </outline>
</glyph>
<glyph name="yen" format="2">
  <advance width="1117.8181818181818"/>
  <unicode hex="00A5"/>
  <outline>
    <contour>
      <point x="437.0909090909091" y="0.0" type="line"/>
      <point x="681.8181818181818" y="0.0" type="line"/>
      <point x="681.8181818181818" y="741.8181818181818" type="line"/>
      <point x="630.9090909090909" y="547.2727272727273" type="line"/>
      <point x="1149.2727272727273" y="1480.0" type="line"/>
      <point x="909.6363636363636" y="1480.0" type="line"/>
      <point x="532.3636363636364" y="803.6363636363636" type="line"/>
      <point x="599.6363636363636" y="803.6363636363636" type="line"/>
      <point x="224.36363636363635" y="1480.0" type="line"/>
      <point x="-34.72727272727273" y="1480.0" type="line"/>
      <point x="488.0" y="547.2727272727273" type="line"/>
      <point x="437.0909090909091" y="745.0909090909091" type="line"/>
    </contour>
    <contour>
      <point x="142.54545454545456" y="282.90909090909093" type="line"/>
      <point x="976.3636363636364" y="282.90909090909093" type="line"/>
      <point x="976.3636363636364" y="439.6363636363636" type="line"/>
      <point x="142.54545454545456" y="439.6363636363636" type="line"/>
    </contour>
    <contour>
      <point x="142.54545454545456" y="608.3636363636364" type="line"/>
      <point x="976.3636363636364" y="608.3636363636364" type="line"/>
      <point x="976.3636363636364" y="765.0909090909091" type="line"/>
      <point x="142.54545454545456" y="765.0909090909091" type="line"/>
    </contour>
  </outline>
</glyph>
<glyph name="brokenbar" format="2">
  <advance width="461.45454545454544"/>
  <unicode hex="00A6"/>
  <outline>
    <contour>
      <point x="122.54545454545455" y="836.0" type="line"/>
      <point x="338.9090909090909" y="836.0" type="line"/>
      <point x="338.9090909090909" y="1616.0" type="line"/>
      <point x="122.54545454545455" y="1616.0" type="line"/>
    </contour>
    <contour>
      <point x="122.54545454545455" y="-440.0" type="line"/>
      <point x="338.9090909090909" y="-440.0" type="line"/>
      <point x="338.9090909090909" y="340.0" type="line"/>
      <point x="122.54545454545455" y="340.0" type="line"/>
    </contour>
  </outline>
</glyph>
<glyph name="section" format="2">
  <advance width="905.4545454545455"/>
  <unicode hex="00A7"/>
  <outline>
    <contour>
      <point x="381.6363636363636" y="-20.18181818181818" type="curve" smooth="yes"/>
      <point x="641.2727272727273" y="-20.18181818181818"/>
      <point x="795.8181818181818" y="107.27272727272727"/>
      <point x="795.8181818181818" y="311.8181818181818" type="curve" smooth="yes"/>
      <point x="795.8181818181818" y="461.6363636363636"/>
      <point x="720.0" y="548.9090909090909"/>
      <point x="546.5454545454545" y="594.1818181818181" type="curve" smooth="yes"/>
      <point x="397.8181818181818" y="631.0909090909091" type="line" smooth="yes"/>
      <point x="312.72727272727275" y="654.1818181818181"/>
      <point x="276.72727272727275" y="698.3636363636364"/>
      <point x="276.72727272727275" y="775.0909090909091" type="curve" smooth="yes"/>
      <point x="276.72727272727275" y="835.0909090909091"/>
      <point x="303.09090909090907" y="880.5454545454545"/>
      <point x="354.0" y="926.0" type="curve"/>
      <point x="217.8181818181818" y="1018.0" type="line"/>
      <point x="134.72727272727272" y="960.5454545454545"/>
      <point x="78.72727272727273" y="876.1818181818181"/>
      <point x="78.72727272727273" y="765.6363636363636" type="curve" smooth="yes"/>
      <point x="78.72727272727273" y="599.2727272727273"/>
      <point x="160.54545454545453" y="506.3636363636364"/>
      <point x="317.6363636363636" y="465.0909090909091" type="curve" smooth="yes"/>
      <point x="466.3636363636364" y="427.0909090909091" type="line" smooth="yes"/>
      <point x="537.4545454545455" y="407.27272727272725"/>
      <point x="574.1818181818182" y="374.3636363636364"/>
      <point x="574.1818181818182" y="300.1818181818182" type="curve" smooth="yes"/>
      <point x="574.1818181818182" y="214.1818181818182"/>
      <point x="515.4545454545455" y="163.63636363636363"/>
      <point x="379.45454545454544" y="163.63636363636363" type="curve" smooth="yes"/>
      <point x="293.09090909090907" y="163.63636363636363"/>
      <point x="205.45454545454547" y="176.72727272727272"/>
      <point x="118.54545454545455" y="202.54545454545453" type="curve"/>
      <point x="118.54545454545455" y="17.81818181818182" type="line"/>
      <point x="202.72727272727272" y="-7.2727272727272725"/>
      <point x="292.9090909090909" y="-20.18181818181818"/>
    </contour>
    <contour>
      <point x="679.8181818181818" y="454.54545454545456" type="line"/>
      <point x="767.2727272727273" y="512.1818181818181"/>
      <point x="826.7272727272727" y="597.8181818181819"/>
      <point x="826.7272727272727" y="717.2727272727273" type="curve" smooth="yes"/>
      <point x="826.7272727272727" y="885.6363636363636"/>
      <point x="750.9090909090909" y="977.0909090909091"/>
      <point x="586.1818181818181" y="1020.1818181818181" type="curve" smooth="yes"/>
      <point x="437.45454545454544" y="1057.090909090909" type="line" smooth="yes"/>
      <point x="365.45454545454544" y="1076.909090909091"/>
      <point x="331.27272727272725" y="1111.4545454545455"/>
      <point x="331.27272727272725" y="1177.2727272727273" type="curve" smooth="yes"/>
      <point x="331.27272727272725" y="1250.1818181818182"/>
      <point x="386.72727272727275" y="1313.2727272727273"/>
      <point x="550.0" y="1313.2727272727273" type="curve" smooth="yes"/>
      <point x="621.2727272727273" y="1313.2727272727273"/>
      <point x="686.1818181818181" y="1307.2727272727273"/>
      <point x="759.2727272727273" y="1290.3636363636365" type="curve"/>
      <point x="759.2727272727273" y="1475.090909090909" type="line"/>
      <point x="691.6363636363636" y="1489.090909090909"/>
      <point x="617.4545454545455" y="1497.090909090909"/>
      <point x="534.7272727272727" y="1497.090909090909" type="curve" smooth="yes"/>
      <point x="252.36363636363637" y="1497.090909090909"/>
      <point x="109.63636363636364" y="1362.1818181818182"/>
      <point x="109.63636363636364" y="1165.6363636363637" type="curve" smooth="yes"/>
      <point x="109.63636363636364" y="1023.2727272727273"/>
      <point x="190.36363636363637" y="932.3636363636364"/>
      <point x="357.27272727272725" y="890.0" type="curve" smooth="yes"/>
      <point x="506.0" y="853.0909090909091" type="line" smooth="yes"/>
      <point x="590.1818181818181" y="830.0"/>
      <point x="628.7272727272727" y="787.4545454545455"/>
      <point x="628.7272727272727" y="707.8181818181818" type="curve" smooth="yes"/>
      <point x="628.7272727272727" y="650.9090909090909"/>
      <point x="605.6363636363636" y="608.3636363636364"/>
      <point x="543.2727272727273" y="560.5454545454545" type="curve"/>
    </contour>
  </outline>
</glyph>
<glyph name="dieresis" format="2">
  <advance width="1018.1818181818181"/>
  <unicode hex="00A8"/>
  <anchor x="509.09090909090907" y="1200.0" name="_top"/>
  <anchor x="509.09090909090907" y="1588.7272727272727" name="top"/>
  <outline>
    <contour>
      <point x="713.8181818181818" y="1283.6363636363637" type="curve" smooth="yes"/>
      <point x="797.8181818181818" y="1283.6363636363637"/>
      <point x="853.2727272727273" y="1334.909090909091"/>
      <point x="853.2727272727273" y="1419.8181818181818" type="curve" smooth="yes"/>
      <point x="853.2727272727273" y="1504.7272727272727"/>
      <point x="797.8181818181818" y="1556.909090909091"/>
      <point x="713.8181818181818" y="1556.909090909091" type="curve" smooth="yes"/>
      <point x="629.8181818181818" y="1556.909090909091"/>
      <point x="574.3636363636364" y="1504.7272727272727"/>
      <point x="574.3636363636364" y="1419.8181818181818" type="curve" smooth="yes"/>
      <point x="574.3636363636364" y="1334.909090909091"/>
      <point x="629.8181818181818" y="1283.6363636363637"/>
    </contour>
    <contour>
      <point x="304.3636363636364" y="1283.6363636363637" type="curve" smooth="yes"/>
      <point x="388.3636363636364" y="1283.6363636363637"/>
      <point x="443.8181818181818" y="1334.909090909091"/>
      <point x="443.8181818181818" y="1419.8181818181818" type="curve" smooth="yes"/>
      <point x="443.8181818181818" y="1504.7272727272727"/>
      <point x="388.3636363636364" y="1556.909090909091"/>
      <point x="304.3636363636364" y="1556.909090909091" type="curve" smooth="yes"/>
      <point x="220.36363636363637" y="1556.909090909091"/>
      <point x="164.9090909090909" y="1504.7272727272727"/>
      <point x="164.9090909090909" y="1419.8181818181818" type="curve" smooth="yes"/>
      <point x="164.9090909090909" y="1334.909090909091"/>
      <point x="220.36363636363637" y="1283.6363636363637"/>
    </contour>
  </outline>
</glyph>
<glyph name="copyright" format="2">
  <advance width="1642.5454545454545"/>
  <unicode hex="00A9"/>
  <outline>
    <contour>
      <point x="821.2727272727273" y="-22.0" type="curve" smooth="yes"/>
      <point x="1270.5454545454545" y="-22.0"/>
      <point x="1568.5454545454545" y="282.0"/>
      <point x="1568.5454545454545" y="740.0" type="curve" smooth="yes"/>
      <point x="1568.5454545454545" y="1198.0"/>
      <point x="1270.5454545454545" y="1502.0"/>
      <point x="821.2727272727273" y="1502.0" type="curve" smooth="yes"/>
      <point x="372.0" y="1502.0"/>
      <point x="74.0" y="1198.0"/>
      <point x="74.0" y="740.0" type="curve" smooth="yes"/>
      <point x="74.0" y="282.0"/>
      <point x="372.0" y="-22.0"/>
    </contour>
    <contour>
      <point x="874.9090909090909" y="324.0" type="curve" smooth="yes"/>
      <point x="955.0909090909091" y="324.0"/>
      <point x="1027.090909090909" y="336.0"/>
      <point x="1085.2727272727273" y="359.45454545454544" type="curve"/>
      <point x="1085.2727272727273" y="525.8181818181818" type="line"/>
      <point x="1005.4545454545455" y="501.45454545454544"/>
      <point x="949.8181818181819" y="493.6363636363636"/>
      <point x="892.9090909090909" y="493.6363636363636" type="curve" smooth="yes"/>
      <point x="742.7272727272727" y="493.6363636363636"/>
      <point x="653.4545454545455" y="573.0909090909091"/>
      <point x="653.4545454545455" y="734.7272727272727" type="curve" smooth="yes"/>
      <point x="653.4545454545455" y="894.7272727272727"/>
      <point x="739.4545454545455" y="974.3636363636364"/>
      <point x="909.4545454545455" y="974.3636363636364" type="curve" smooth="yes"/>
      <point x="971.8181818181819" y="974.3636363636364"/>
      <point x="1024.3636363636363" y="966.5454545454545"/>
      <point x="1085.2727272727273" y="952.9090909090909" type="curve"/>
      <point x="1085.2727272727273" y="1119.2727272727273" type="line"/>
      <point x="1025.6363636363637" y="1136.0"/>
      <point x="964.5454545454545" y="1144.0"/>
      <point x="893.2727272727273" y="1144.0" type="curve" smooth="yes"/>
      <point x="620.5454545454545" y="1144.0"/>
      <point x="457.0909090909091" y="993.8181818181819"/>
      <point x="457.0909090909091" y="732.9090909090909" type="curve" smooth="yes"/>
      <point x="457.0909090909091" y="468.54545454545456"/>
      <point x="622.0" y="324.0"/>
    </contour>
    <contour>
      <point x="821.2727272727273" y="124.54545454545453" type="curve" smooth="yes"/>
      <point x="452.3636363636364" y="124.54545454545453"/>
      <point x="226.0" y="364.54545454545456"/>
      <point x="226.0" y="740.0" type="curve" smooth="yes"/>
      <point x="226.0" y="1115.4545454545455"/>
      <point x="452.3636363636364" y="1355.4545454545455"/>
      <point x="821.2727272727273" y="1355.4545454545455" type="curve" smooth="yes"/>
      <point x="1190.1818181818182" y="1355.4545454545455"/>
      <point x="1416.5454545454545" y="1115.4545454545455"/>
      <point x="1416.5454545454545" y="740.0" type="curve" smooth="yes"/>
      <point x="1416.5454545454545" y="364.54545454545456"/>
      <point x="1190.1818181818182" y="124.54545454545453"/>
    </contour>
  </outline>
</glyph>
<glyph name="ordfeminine" format="2">
  <advance width="782.5454545454545"/>
  <unicode hex="00AA"/>
  <outline>
    <contour>
      <point x="283.27272727272725" y="593.8181818181819" type="curve" smooth="yes"/>
      <point x="370.54545454545456" y="593.8181818181819"/>
      <point x="448.0" y="625.2727272727273"/>
      <point x="493.0909090909091" y="702.5454545454545" type="curve"/>
      <point x="504.54545454545456" y="702.5454545454545" type="line"/>
      <point x="521.4545454545455" y="610.0" type="line"/>
      <point x="705.0909090909091" y="610.0" type="line"/>
      <point x="705.0909090909091" y="1156.5454545454545" type="line" smooth="yes"/>
      <point x="705.0909090909091" y="1408.909090909091"/>
      <point x="591.8181818181818" y="1497.4545454545455"/>
      <point x="348.9090909090909" y="1497.4545454545455" type="curve" smooth="yes"/>
      <point x="265.6363636363636" y="1497.4545454545455"/>
      <point x="169.63636363636363" y="1484.5454545454545"/>
      <point x="94.54545454545455" y="1462.7272727272727" type="curve"/>
      <point x="94.54545454545455" y="1284.1818181818182" type="line"/>
      <point x="165.0909090909091" y="1305.8181818181818"/>
      <point x="239.0909090909091" y="1317.6363636363637"/>
      <point x="303.45454545454544" y="1317.6363636363637" type="curve" smooth="yes"/>
      <point x="435.45454545454544" y="1317.6363636363637"/>
      <point x="484.0" y="1279.4545454545455"/>
      <point x="484.0" y="1175.8181818181818" type="curve" smooth="yes"/>
      <point x="484.0" y="820.3636363636364" type="line"/>
      <point x="451.6363636363636" y="773.8181818181818"/>
      <point x="405.27272727272725" y="758.3636363636364"/>
      <point x="367.45454545454544" y="758.3636363636364" type="curve" smooth="yes"/>
      <point x="297.27272727272725" y="758.3636363636364"/>
      <point x="252.0" y="794.5454545454545"/>
      <point x="252.0" y="875.4545454545455" type="curve" smooth="yes"/>
      <point x="252.0" y="948.3636363636364"/>
      <point x="296.1818181818182" y="986.5454545454545"/>
      <point x="389.8181818181818" y="994.0" type="curve" smooth="yes"/>
      <point x="549.0909090909091" y="1006.0" type="line"/>
      <point x="517.0909090909091" y="1131.4545454545455" type="line"/>
      <point x="363.6363636363636" y="1118.3636363636363" type="line" smooth="yes"/>
      <point x="128.1818181818182" y="1102.7272727272727"/>
      <point x="33.45454545454545" y="1011.2727272727273"/>
      <point x="33.45454545454545" y="843.4545454545455" type="curve" smooth="yes"/>
      <point x="33.45454545454545" y="694.0"/>
      <point x="135.8181818181818" y="593.8181818181819"/>
    </contour>
  </outline>
</glyph>
<glyph name="guillemetleft" format="2">
  <advance width="965.6363636363636"/>
  <unicode hex="00AB"/>
  <outline>
    <contour>
      <point x="276.1818181818182" y="134.54545454545453" type="line"/>
      <point x="514.3636363636364" y="134.54545454545453" type="line"/>
      <point x="320.9090909090909" y="565.4545454545455" type="line"/>
      <point x="514.3636363636364" y="996.3636363636364" type="line"/>
      <point x="276.1818181818182" y="996.3636363636364" type="line"/>
      <point x="82.72727272727273" y="565.4545454545455" type="line"/>
    </contour>
    <contour>
      <point x="684.7272727272727" y="134.54545454545453" type="line"/>
      <point x="922.9090909090909" y="134.54545454545453" type="line"/>
      <point x="729.4545454545455" y="565.4545454545455" type="line"/>
      <point x="922.9090909090909" y="996.3636363636364" type="line"/>
      <point x="684.7272727272727" y="996.3636363636364" type="line"/>
      <point x="491.27272727272725" y="565.4545454545455" type="line"/>
    </contour>
  </outline>
</glyph>
<glyph name="logicalnot" format="2">
  <advance width="1240.0"/>
  <unicode hex="00AC"/>
  <outline>
    <contour>
      <point x="937.6363636363636" y="190.9090909090909" type="line"/>
      <point x="1138.7272727272727" y="190.9090909090909" type="line"/>
      <point x="1138.7272727272727" y="856.3636363636364" type="line"/>
      <point x="108.0" y="856.3636363636364" type="line"/>
      <point x="108.0" y="663.6363636363636" type="line"/>
      <point x="937.6363636363636" y="663.6363636363636" type="line"/>
    </contour>
  </outline>
</glyph>
<glyph name="softhyphen" format="2">
  <advance width="722.9090909090909"/>
  <unicode hex="00AD"/>
  <outline>
    <contour>
      <point x="108.0" y="465.8181818181818" type="line"/>
      <point x="614.9090909090909" y="465.8181818181818" type="line"/>
      <point x="614.9090909090909" y="665.0909090909091" type="line"/>
      <point x="108.0" y="665.0909090909091" type="line"/>
    </contour>
  </outline>
</glyph>
<glyph name="registered" format="2">
  <advance width="1416.0"/>
  <unicode hex="00AE"/>
  <outline>
    <contour>
      <point x="708.0" y="268.0" type="curve" smooth="yes"/>
      <point x="1070.0" y="268.0"/>
      <point x="1318.0" y="518.0"/>
      <point x="1318.0" y="882.0" type="curve" smooth="yes"/>
      <point x="1318.0" y="1246.0"/>
      <point x="1070.0" y="1498.0"/>
      <point x="708.0" y="1498.0" type="curve" smooth="yes"/>
      <point x="346.0" y="1498.0"/>
      <point x="98.0" y="1246.0"/>
      <point x="98.0" y="882.0" type="curve" smooth="yes"/>
      <point x="98.0" y="518.0"/>
      <point x="346.0" y="268.0"/>
    </contour>
    <contour>
      <point x="846.7272727272727" y="600.0" type="line"/>
      <point x="980.5454545454545" y="600.0" type="line"/>
      <point x="817.6363636363636" y="838.1818181818181" type="line"/>
      <point x="700.9090909090909" y="812.1818181818181" type="line"/>
    </contour>
    <contour>
      <point x="708.0" y="383.09090909090907" type="curve" smooth="yes"/>
      <point x="412.72727272727275" y="383.09090909090907"/>
      <point x="220.54545454545453" y="579.4545454545455"/>
      <point x="220.54545454545453" y="882.0" type="curve" smooth="yes"/>
      <point x="220.54545454545453" y="1185.6363636363637"/>
      <point x="412.72727272727275" y="1382.909090909091"/>
      <point x="708.0" y="1382.909090909091" type="curve" smooth="yes"/>
      <point x="1003.2727272727273" y="1382.909090909091"/>
      <point x="1195.4545454545455" y="1185.6363636363637"/>
      <point x="1195.4545454545455" y="882.0" type="curve" smooth="yes"/>
      <point x="1195.4545454545455" y="579.4545454545455"/>
      <point x="1003.2727272727273" y="383.09090909090907"/>
    </contour>
    <contour>
      <point x="492.3636363636364" y="600.0" type="line"/>
      <point x="612.9090909090909" y="600.0" type="line"/>
      <point x="616.1818181818181" y="804.1818181818181" type="line"/>
      <point x="697.2727272727273" y="804.1818181818181" type="line" smooth="yes"/>
      <point x="869.0909090909091" y="804.1818181818181"/>
      <point x="952.1818181818181" y="869.0909090909091"/>
      <point x="952.1818181818181" y="997.0909090909091" type="curve" smooth="yes"/>
      <point x="952.1818181818181" y="1125.090909090909"/>
      <point x="867.0909090909091" y="1192.0"/>
      <point x="697.2727272727273" y="1192.0" type="curve" smooth="yes"/>
      <point x="492.3636363636364" y="1192.0" type="line"/>
    </contour>
    <contour>
      <point x="616.1818181818181" y="904.3636363636364" type="line"/>
      <point x="616.1818181818181" y="1091.8181818181818" type="line"/>
      <point x="716.9090909090909" y="1091.8181818181818" type="line" smooth="yes"/>
      <point x="794.0" y="1091.8181818181818"/>
      <point x="833.8181818181819" y="1060.5454545454545"/>
      <point x="833.8181818181819" y="997.0909090909091" type="curve" smooth="yes"/>
      <point x="833.8181818181819" y="933.6363636363636"/>
      <point x="796.0" y="904.3636363636364"/>
      <point x="716.9090909090909" y="904.3636363636364" type="curve" smooth="yes"/>
    </contour>
  </outline>
</glyph>
<glyph name="degree" format="2">
  <advance width="909.8181818181819"/>
  <unicode hex="00B0"/>
  <outline>
    <contour>
      <point x="454.90909090909093" y="792.0" type="curve" smooth="yes"/>
      <point x="661.4545454545455" y="792.0"/>
      <point x="811.8181818181818" y="941.0909090909091"/>
      <point x="811.8181818181818" y="1145.6363636363637" type="curve" smooth="yes"/>
      <point x="811.8181818181818" y="1350.1818181818182"/>
      <point x="661.4545454545455" y="1498.1818181818182"/>
      <point x="454.90909090909093" y="1498.1818181818182" type="curve" smooth="yes"/>
      <point x="248.36363636363637" y="1498.1818181818182"/>
      <point x="98.0" y="1350.1818181818182"/>
      <point x="98.0" y="1145.6363636363637" type="curve" smooth="yes"/>
      <point x="98.0" y="941.0909090909091"/>
      <point x="248.36363636363637" y="792.0"/>
    </contour>
    <contour>
      <point x="454.90909090909093" y="944.3636363636364" type="curve" smooth="yes"/>
      <point x="342.9090909090909" y="944.3636363636364"/>
      <point x="260.9090909090909" y="1021.4545454545455"/>
      <point x="260.9090909090909" y="1145.6363636363637" type="curve" smooth="yes"/>
      <point x="260.9090909090909" y="1269.8181818181818"/>
      <point x="344.0" y="1345.8181818181818"/>
      <point x="454.90909090909093" y="1345.8181818181818" type="curve" smooth="yes"/>
      <point x="565.8181818181819" y="1345.8181818181818"/>
      <point x="648.9090909090909" y="1269.8181818181818"/>
      <point x="648.9090909090909" y="1145.6363636363637" type="curve" smooth="yes"/>
      <point x="648.9090909090909" y="1021.4545454545455"/>
      <point x="566.9090909090909" y="944.3636363636364"/>
    </contour>
  </outline>
</glyph>
<glyph name="plusminus" format="2">
  <advance width="1026.909090909091"/>
  <unicode hex="00B1"/>
  <outline>
    <contour>
      <point x="412.90909090909093" y="354.1818181818182" type="line"/>
      <point x="614.0" y="354.1818181818182" type="line"/>
      <point x="614.0" y="672.5454545454545" type="line"/>
      <point x="918.9090909090909" y="672.5454545454545" type="line"/>
      <point x="918.9090909090909" y="865.2727272727273" type="line"/>
      <point x="614.0" y="865.2727272727273" type="line"/>
      <point x="614.0" y="1183.6363636363635" type="line"/>
      <point x="412.90909090909093" y="1183.6363636363635" type="line"/>
      <point x="412.90909090909093" y="865.2727272727273" type="line"/>
      <point x="108.0" y="865.2727272727273" type="line"/>
      <point x="108.0" y="672.5454545454545" type="line"/>
      <point x="412.90909090909093" y="672.5454545454545" type="line"/>
    </contour>
    <contour>
      <point x="108.0" y="1.0909090909090908" type="line"/>
      <point x="918.9090909090909" y="1.0909090909090908" type="line"/>
      <point x="918.9090909090909" y="193.8181818181818" type="line"/>
      <point x="108.0" y="193.8181818181818" type="line"/>
    </contour>
  </outline>
</glyph>
<glyph name="acute" format="2">
  <advance width="1018.1818181818181"/>
  <unicode hex="00B4"/>
  <anchor x="509.09090909090907" y="1200.0" name="_top"/>
  <anchor x="509.09090909090907" y="1610.5454545454545" name="top"/>
  <outline>
    <contour>
      <point x="404.72727272727275" y="1240.0" type="line"/>
      <point x="613.4545454545455" y="1240.0" type="line"/>
      <point x="829.8181818181818" y="1616.0" type="line"/>
      <point x="585.4545454545455" y="1616.0" type="line"/>
    </contour>
  </outline>
</glyph>
<glyph name="micro" format="2">
  <advance width="1012.7272727272727"/>
  <unicode hex="00B5"/>
  <outline>
    <contour>
      <point x="456.54545454545456" y="-19.09090909090909" type="curve" smooth="yes"/>
      <point x="539.8181818181819" y="-19.09090909090909"/>
      <point x="614.1818181818181" y="24.90909090909091"/>
      <point x="672.5454545454545" y="115.63636363636364" type="curve"/>
      <point x="684.9090909090909" y="115.63636363636364" type="line"/>
      <point x="702.9090909090909" y="0.0" type="line"/>
      <point x="904.7272727272727" y="0.0" type="line"/>
      <point x="904.7272727272727" y="1090.909090909091" type="line"/>
      <point x="663.2727272727273" y="1090.909090909091" type="line"/>
      <point x="663.2727272727273" y="300.1818181818182" type="line"/>
      <point x="618.5454545454545" y="226.18181818181816"/>
      <point x="536.7272727272727" y="197.45454545454544"/>
      <point x="480.3636363636364" y="197.45454545454544" type="curve" smooth="yes"/>
      <point x="400.1818181818182" y="197.45454545454544"/>
      <point x="342.72727272727275" y="238.72727272727272"/>
      <point x="342.72727272727275" y="368.3636363636364" type="curve" smooth="yes"/>
      <point x="342.72727272727275" y="590.9090909090909" type="line"/>
      <point x="235.8181818181818" y="590.9090909090909" type="line"/>
      <point x="235.8181818181818" y="350.54545454545456" type="line" smooth="yes"/>
      <point x="235.8181818181818" y="74.36363636363636"/>
      <point x="326.9090909090909" y="-19.09090909090909"/>
    </contour>
    <contour>
      <point x="101.27272727272728" y="-440.0" type="line"/>
      <point x="342.72727272727275" y="-440.0" type="line"/>
      <point x="342.72727272727275" y="1090.909090909091" type="line"/>
      <point x="101.27272727272728" y="1090.909090909091" type="line"/>
    </contour>
  </outline>
</glyph>
<glyph name="paragraph" format="2">
  <advance width="1143.4545454545455"/>
  <unicode hex="00B6"/>
  <outline>
    <contour>
      <point x="547.6363636363636" y="0.0" type="line"/>
      <point x="724.7272727272727" y="0.0" type="line"/>
      <point x="724.7272727272727" y="1480.0" type="line"/>
      <point x="658.7272727272727" y="1490.1818181818182"/>
      <point x="574.7272727272727" y="1497.2727272727273"/>
      <point x="493.45454545454544" y="1497.2727272727273" type="curve" smooth="yes"/>
      <point x="199.0909090909091" y="1497.2727272727273"/>
      <point x="66.9090909090909" y="1334.5454545454545"/>
      <point x="66.9090909090909" y="972.3636363636364" type="curve" smooth="yes"/>
      <point x="66.9090909090909" y="630.3636363636364"/>
      <point x="199.0909090909091" y="450.3636363636364"/>
      <point x="462.1818181818182" y="450.3636363636364" type="curve" smooth="yes"/>
      <point x="494.3636363636364" y="450.3636363636364"/>
      <point x="516.5454545454545" y="451.27272727272725"/>
      <point x="547.6363636363636" y="453.0909090909091" type="curve"/>
    </contour>
    <contour>
      <point x="843.8181818181819" y="0.0" type="line"/>
      <point x="1020.9090909090909" y="0.0" type="line"/>
      <point x="1020.9090909090909" y="1480.0" type="line"/>
      <point x="843.8181818181819" y="1480.0" type="line"/>
    </contour>
  </outline>
</glyph>
<glyph name="onesuperior" format="2">
  <advance width="756.3636363636364"/>
  <unicode hex="00B9"/>
  <outline>
    <contour>
      <point x="316.3636363636364" y="-116.0" type="line"/>
      <point x="510.1818181818182" y="-116.0" type="line"/>
      <point x="510.1818181818182" y="868.0" type="line"/>
      <point x="391.45454545454544" y="868.0" type="line"/>
      <point x="135.27272727272728" y="695.0909090909091" type="line"/>
      <point x="135.27272727272728" y="516.0" type="line"/>
      <point x="391.45454545454544" y="688.9090909090909" type="line"/>
      <point x="316.3636363636364" y="742.7272727272727" type="line"/>
    </contour>
    <contour>
      <point x="132.1818181818182" y="-136.0" type="line"/>
      <point x="685.4545454545455" y="-136.0" type="line"/>
      <point x="685.4545454545455" y="31.818181818181813" type="line"/>
      <point x="132.1818181818182" y="31.818181818181813" type="line"/>
    </contour>
  </outline>
</glyph>
<glyph name="ordmasculine" format="2">
  <advance width="830.5454545454545"/>
  <unicode hex="00BA"/>
  <outline>
    <contour>
      <point x="415.8181818181818" y="593.8181818181819" type="curve" smooth="yes"/>
      <point x="650.7272727272727" y="593.8181818181819"/>
      <point x="788.7272727272727" y="741.8181818181819"/>
      <point x="788.7272727272727" y="1044.909090909091" type="curve" smooth="yes"/>
      <point x="788.7272727272727" y="1348.0"/>
      <point x="650.7272727272727" y="1497.4545454545455"/>
      <point x="415.8181818181818" y="1497.4545454545455" type="curve" smooth="yes"/>
      <point x="180.9090909090909" y="1497.4545454545455"/>
      <point x="41.81818181818182" y="1353.4545454545455"/>
      <point x="41.81818181818182" y="1044.909090909091" type="curve" smooth="yes"/>
      <point x="41.81818181818182" y="736.3636363636364"/>
      <point x="180.9090909090909" y="593.8181818181819"/>
    </contour>
    <contour>
      <point x="415.8181818181818" y="760.5454545454545" type="curve" smooth="yes"/>
      <point x="328.0" y="760.5454545454545"/>
      <point x="268.0" y="811.4545454545455"/>
      <point x="268.0" y="1044.909090909091" type="curve" smooth="yes"/>
      <point x="268.0" y="1279.4545454545455"/>
      <point x="328.0" y="1330.7272727272727"/>
      <point x="415.8181818181818" y="1330.7272727272727" type="curve" smooth="yes"/>
      <point x="503.6363636363636" y="1330.7272727272727"/>
      <point x="562.5454545454545" y="1279.4545454545455"/>
      <point x="562.5454545454545" y="1044.909090909091" type="curve" smooth="yes"/>
      <point x="562.5454545454545" y="811.4545454545455"/>
      <point x="503.6363636363636" y="760.5454545454545"/>
    </contour>
  </outline>
</glyph>
<glyph name="guillemetright" format="2">
  <advance width="965.6363636363636"/>
  <unicode hex="00BB"/>
  <outline>
    <contour>
      <point x="42.727272727272734" y="134.54545454545453" type="line"/>
      <point x="280.9090909090909" y="134.54545454545453" type="line"/>
      <point x="474.3636363636364" y="565.4545454545455" type="line"/>
      <point x="280.9090909090909" y="996.3636363636364" type="line"/>
      <point x="42.727272727272734" y="996.3636363636364" type="line"/>
      <point x="236.1818181818182" y="565.4545454545455" type="line"/>
    </contour>
    <contour>
      <point x="451.27272727272725" y="134.54545454545453" type="line"/>
      <point x="689.4545454545455" y="134.54545454545453" type="line"/>
      <point x="882.9090909090909" y="565.4545454545455" type="line"/>
      <point x="689.4545454545455" y="996.3636363636364" type="line"/>
      <point x="451.27272727272725" y="996.3636363636364" type="line"/>
      <point x="644.7272727272727" y="565.4545454545455" type="line"/>
    </contour>
  </outline>
</glyph>
<glyph name="onequarter" format="2">
  <advance width="1785.090909090909"/>
  <unicode hex="00BC"/>
  <outline>
    <contour>
      <point x="316.3636363636364" y="636.0" type="line"/>
      <point x="510.1818181818182" y="636.0" type="line"/>
      <point x="510.1818181818182" y="1620.0" type="line"/>
      <point x="391.45454545454544" y="1620.0" type="line"/>
      <point x="135.27272727272728" y="1447.090909090909" type="line"/>
      <point x="135.27272727272728" y="1268.0" type="line"/>
      <point x="391.45454545454544" y="1440.909090909091" type="line"/>
      <point x="316.3636363636364" y="1494.7272727272727" type="line"/>
    </contour>
    <contour>
      <point x="132.1818181818182" y="616.0" type="line"/>
      <point x="685.4545454545455" y="616.0" type="line"/>
      <point x="685.4545454545455" y="783.8181818181818" type="line"/>
      <point x="132.1818181818182" y="783.8181818181818" type="line"/>
    </contour>
    <contour>
      <point x="429.09090909090907" y="-136.0" type="line"/>
      <point x="631.4545454545455" y="-136.0" type="line"/>
      <point x="1356.0" y="1616.0" type="line"/>
      <point x="1153.6363636363637" y="1616.0" type="line"/>
    </contour>
    <contour>
      <point x="1057.2727272727273" y="78.9090909090909" type="line"/>
      <point x="1759.4545454545455" y="78.9090909090909" type="line"/>
      <point x="1759.4545454545455" y="228.36363636363637" type="line"/>
      <point x="1221.4545454545455" y="228.36363636363637" type="line"/>
      <point x="1246.3636363636363" y="187.63636363636363" type="line"/>
      <point x="1546.7272727272727" y="864.0" type="line"/>
      <point x="1362.0" y="864.0" type="line"/>
      <point x="1057.2727272727273" y="187.63636363636363" type="line"/>
    </contour>
    <contour>
      <point x="1473.8181818181818" y="-136.0" type="line"/>
      <point x="1643.8181818181818" y="-136.0" type="line"/>
      <point x="1643.8181818181818" y="526.0" type="line"/>
      <point x="1516.3636363636363" y="526.0" type="line"/>
      <point x="1473.8181818181818" y="228.36363636363637" type="line"/>
    </contour>
  </outline>
</glyph>
<glyph name="onehalf" format="2">
  <advance width="1785.090909090909"/>
  <unicode hex="00BD"/>
  <outline>
    <contour>
      <point x="316.3636363636364" y="636.0" type="line"/>
      <point x="510.1818181818182" y="636.0" type="line"/>
      <point x="510.1818181818182" y="1620.0" type="line"/>
      <point x="391.45454545454544" y="1620.0" type="line"/>
      <point x="135.27272727272728" y="1447.090909090909" type="line"/>
      <point x="135.27272727272728" y="1268.0" type="line"/>
      <point x="391.45454545454544" y="1440.909090909091" type="line"/>
      <point x="316.3636363636364" y="1494.7272727272727" type="line"/>
    </contour>
    <contour>
      <point x="132.1818181818182" y="616.0" type="line"/>
      <point x="685.4545454545455" y="616.0" type="line"/>
      <point x="685.4545454545455" y="783.8181818181818" type="line"/>
      <point x="132.1818181818182" y="783.8181818181818" type="line"/>
    </contour>
    <contour>
      <point x="429.09090909090907" y="-136.0" type="line"/>
      <point x="631.4545454545455" y="-136.0" type="line"/>
      <point x="1356.0" y="1616.0" type="line"/>
      <point x="1153.6363636363637" y="1616.0" type="line"/>
    </contour>
    <contour>
      <point x="1116.3636363636363" y="-136.0" type="line"/>
      <point x="1694.909090909091" y="-136.0" type="line"/>
      <point x="1694.909090909091" y="31.818181818181813" type="line"/>
      <point x="1326.0" y="31.818181818181813" type="line"/>
      <point x="1337.8181818181818" y="-15.454545454545467" type="line"/>
      <point x="1530.7272727272727" y="265.6363636363636" type="line" smooth="yes"/>
      <point x="1623.4545454545455" y="398.1818181818182"/>
      <point x="1659.2727272727273" y="494.3636363636364"/>
      <point x="1660.1818181818182" y="592.1818181818182" type="curve" smooth="yes"/>
      <point x="1661.090909090909" y="796.3636363636364"/>
      <point x="1530.0" y="877.0909090909091"/>
      <point x="1320.3636363636363" y="877.0909090909091" type="curve" smooth="yes"/>
      <point x="1244.0" y="877.0909090909091"/>
      <point x="1158.7272727272727" y="864.0"/>
      <point x="1103.2727272727273" y="842.1818181818181" type="curve"/>
      <point x="1103.2727272727273" y="681.0909090909091" type="line"/>
      <point x="1159.090909090909" y="703.8181818181819"/>
      <point x="1225.8181818181818" y="715.8181818181819"/>
      <point x="1290.1818181818182" y="715.8181818181819" type="curve" smooth="yes"/>
      <point x="1412.3636363636363" y="715.8181818181819"/>
      <point x="1466.5454545454545" y="673.4545454545455"/>
      <point x="1466.5454545454545" y="577.0909090909091" type="curve" smooth="yes"/>
      <point x="1466.5454545454545" y="506.72727272727275"/>
      <point x="1432.909090909091" y="431.6363636363636"/>
      <point x="1355.4545454545455" y="319.27272727272725" type="curve" smooth="yes"/>
      <point x="1116.3636363636363" y="-28.363636363636374" type="line"/>
    </contour>
  </outline>
</glyph>
<glyph name="questiondown" format="2">
  <advance width="842.9090909090909"/>
  <unicode hex="00BF"/>
  <outline>
    <contour>
      <point x="554.3636363636364" y="664.3636363636364" type="line"/>
      <point x="403.8181818181818" y="664.3636363636364" type="line"/>
      <point x="382.90909090909093" y="398.0" type="line"/>
      <point x="154.0" y="310.72727272727275"/>
      <point x="43.63636363636364" y="178.0"/>
      <point x="43.63636363636364" y="-23.81818181818182" type="curve" smooth="yes"/>
      <point x="43.63636363636364" y="-264.3636363636364"/>
      <point x="203.63636363636363" y="-400.0"/>
      <point x="508.9090909090909" y="-400.0" type="curve" smooth="yes"/>
      <point x="615.8181818181818" y="-400.0"/>
      <point x="740.3636363636364" y="-380.0"/>
      <point x="819.2727272727273" y="-348.1818181818182" type="curve"/>
      <point x="819.2727272727273" y="-151.45454545454547" type="line"/>
      <point x="735.4545454545455" y="-185.0909090909091"/>
      <point x="637.2727272727273" y="-203.0909090909091"/>
      <point x="539.4545454545455" y="-203.0909090909091" type="curve" smooth="yes"/>
      <point x="361.27272727272725" y="-203.0909090909091"/>
      <point x="279.45454545454544" y="-135.45454545454547"/>
      <point x="279.45454545454544" y="0.36363636363635976" type="curve" smooth="yes"/>
      <point x="279.45454545454544" y="129.45454545454547"/>
      <point x="351.27272727272725" y="212.54545454545456"/>
      <point x="595.8181818181818" y="282.90909090909093" type="curve"/>
    </contour>
    <contour>
      <point x="479.09090909090907" y="1106.3636363636363" type="curve" smooth="yes"/>
      <point x="383.27272727272725" y="1106.3636363636363"/>
      <point x="316.72727272727275" y="1042.1818181818182"/>
      <point x="316.72727272727275" y="949.4545454545455" type="curve" smooth="yes"/>
      <point x="316.72727272727275" y="855.8181818181819"/>
      <point x="382.0" y="791.6363636363636"/>
      <point x="479.09090909090907" y="791.6363636363636" type="curve" smooth="yes"/>
      <point x="576.1818181818181" y="791.6363636363636"/>
      <point x="641.4545454545455" y="853.6363636363636"/>
      <point x="641.4545454545455" y="949.4545454545455" type="curve" smooth="yes"/>
      <point x="641.4545454545455" y="1044.3636363636363"/>
      <point x="574.0" y="1106.3636363636363"/>
    </contour>
  </outline>
</glyph>
<glyph name="Atilde" format="2">
  <advance width="1222.7272727272727"/>
  <unicode hex="00C3"/>
  <anchor x="611.8181818181818" y="1520.0" name="_top"/>
  <anchor x="611.8181818181818" y="0.0" name="bottom"/>
  <anchor x="1215.2727272727273" y="0.0" name="ogonek"/>
  <anchor x="611.8181818181818" y="1520.0" name="top"/>
  <outline>
    <contour>
      <point x="7.454545454545457" y="0.0" type="line"/>
      <point x="247.45454545454544" y="0.0" type="line"/>
      <point x="624.0" y="1366.909090909091" type="line"/>
      <point x="593.4545454545455" y="1366.909090909091" type="line"/>
      <point x="972.1818181818182" y="0.0" type="line"/>
      <point x="1215.2727272727273" y="0.0" type="line"/>
      <point x="791.2727272727273" y="1480.0" type="line"/>
      <point x="431.4545454545455" y="1480.0" type="line"/>
    </contour>
    <contour>
      <point x="246.0" y="427.6363636363636" type="line"/>
      <point x="975.6363636363636" y="427.6363636363636" type="line"/>
      <point x="927.2727272727273" y="637.6363636363636" type="line"/>
      <point x="294.3636363636364" y="637.6363636363636" type="line"/>
    </contour>
    <contour>
      <point x="762.7272727272727" y="1636.0" type="curve" smooth="yes"/>
      <point x="839.2727272727273" y="1636.0"/>
      <point x="892.9090909090909" y="1658.909090909091"/>
      <point x="936.0" y="1705.6363636363637" type="curve"/>
      <point x="936.0" y="1863.2727272727273" type="line"/>
      <point x="884.9090909090909" y="1814.1818181818182"/>
      <point x="836.1818181818181" y="1789.090909090909"/>
      <point x="764.9090909090909" y="1789.090909090909" type="curve" smooth="yes"/>
      <point x="665.4545454545455" y="1789.090909090909"/>
      <point x="581.6363636363636" y="1869.2727272727273"/>
      <point x="460.9090909090909" y="1869.2727272727273" type="curve" smooth="yes"/>
      <point x="384.3636363636364" y="1869.2727272727273"/>
      <point x="330.72727272727275" y="1845.2727272727273"/>
      <point x="287.6363636363636" y="1798.5454545454545" type="curve"/>
      <point x="287.6363636363636" y="1640.909090909091" type="line"/>
      <point x="338.72727272727275" y="1690.0"/>
      <point x="387.45454545454544" y="1715.090909090909"/>
      <point x="458.72727272727275" y="1715.090909090909" type="curve" smooth="yes"/>
      <point x="558.1818181818181" y="1715.090909090909"/>
      <point x="642.0" y="1636.0"/>
    </contour>
  </outline>
</glyph>
<glyph name="Ccedilla" format="2">
  <advance width="1023.8181818181818"/>
  <unicode hex="00C7"/>
  <anchor x="647.0909090909091" y="0.0" name="_bottom"/>
  <anchor x="647.0909090909091" y="0.0" name="bottom"/>
  <anchor x="642.5454545454545" y="1520.0" name="top"/>
  <outline>
    <contour>
      <point x="708.1818181818181" y="-19.09090909090909" type="curve" smooth="yes"/>
      <point x="813.0909090909091" y="-19.09090909090909"/>
      <point x="920.1818181818181" y="0.7272727272727275"/>
      <point x="997.0909090909091" y="29.81818181818182" type="curve"/>
      <point x="997.0909090909091" y="239.63636363636363" type="line"/>
      <point x="901.6363636363636" y="208.0"/>
      <point x="818.5454545454545" y="190.9090909090909"/>
      <point x="738.9090909090909" y="190.9090909090909" type="curve" smooth="yes"/>
      <point x="472.5454545454545" y="190.9090909090909"/>
      <point x="330.3636363636364" y="314.5454545454545"/>
      <point x="330.3636363636364" y="740.9090909090909" type="curve" smooth="yes"/>
      <point x="330.3636363636364" y="1155.4545454545455"/>
      <point x="473.27272727272725" y="1289.090909090909"/>
      <point x="742.5454545454545" y="1289.090909090909" type="curve" smooth="yes"/>
      <point x="829.2727272727273" y="1289.090909090909"/>
      <point x="910.1818181818181" y="1278.909090909091"/>
      <point x="997.0909090909091" y="1254.7272727272727" type="curve"/>
      <point x="997.0909090909091" y="1464.5454545454545" type="line"/>
      <point x="912.1818181818181" y="1487.2727272727273"/>
      <point x="818.0" y="1499.090909090909"/>
      <point x="726.5454545454545" y="1499.090909090909" type="curve" smooth="yes"/>
      <point x="316.3636363636364" y="1499.090909090909"/>
      <point x="74.0" y="1276.7272727272727"/>
      <point x="74.0" y="736.9090909090909" type="curve" smooth="yes"/>
      <point x="74.0" y="182.54545454545453"/>
      <point x="312.54545454545456" y="-19.09090909090909"/>
    </contour>
    <contour>
      <point x="624.1818181818181" y="-432.72727272727275" type="curve" smooth="yes"/>
      <point x="788.3636363636364" y="-432.72727272727275"/>
      <point x="865.6363636363636" y="-367.45454545454544"/>
      <point x="865.6363636363636" y="-259.27272727272725" type="curve" smooth="yes"/>
      <point x="865.6363636363636" y="-148.9090909090909"/>
      <point x="779.6363636363636" y="-90.18181818181819"/>
      <point x="640.5454545454545" y="-90.18181818181819" type="curve"/>
      <point x="695.8181818181818" y="-131.0909090909091" type="line"/>
      <point x="695.8181818181818" y="20.0" type="line"/>
      <point x="568.9090909090909" y="20.0" type="line"/>
      <point x="568.9090909090909" y="-171.63636363636363" type="line"/>
      <point x="609.0909090909091" y="-171.63636363636363" type="line" smooth="yes"/>
      <point x="684.1818181818181" y="-171.63636363636363"/>
      <point x="727.8181818181819" y="-196.36363636363637"/>
      <point x="727.8181818181819" y="-250.54545454545453" type="curve" smooth="yes"/>
      <point x="727.8181818181819" y="-305.8181818181818"/>
      <point x="686.3636363636364" y="-327.27272727272725"/>
      <point x="612.1818181818181" y="-327.27272727272725" type="curve" smooth="yes"/>
      <point x="563.4545454545455" y="-327.27272727272725"/>
      <point x="502.54545454545456" y="-318.3636363636364"/>
      <point x="442.3636363636364" y="-294.0" type="curve"/>
      <point x="442.3636363636364" y="-401.27272727272725" type="line"/>
      <point x="495.27272727272725" y="-421.8181818181818"/>
      <point x="558.3636363636364" y="-432.72727272727275"/>
    </contour>
  </outline>
</glyph>
<glyph name="Egrave" format="2">
  <advance width="1045.2727272727273"/>
  <unicode hex="00C8"/>
  <anchor x="577.8181818181819" y="1520.0" name="_top"/>
  <anchor x="577.8181818181819" y="0.0" name="bottom"/>
  <anchor x="918.1818181818181" y="0.0" name="ogonek"/>
  <anchor x="577.8181818181819" y="1520.0" name="top"/>
  <anchor x="36.0" y="1480.0" name="topleft"/>
  <outline>
    <contour>
      <point x="122.54545454545455" y="0.0" type="line"/>
      <point x="998.1818181818181" y="0.0" type="line"/>
      <point x="998.1818181818181" y="212.18181818181816" type="line"/>
      <point x="364.0" y="212.18181818181816" type="line"/>
      <point x="364.0" y="1267.8181818181818" type="line"/>
      <point x="988.1818181818181" y="1267.8181818181818" type="line"/>
      <point x="988.1818181818181" y="1480.0" type="line"/>
      <point x="122.54545454545455" y="1480.0" type="line"/>
    </contour>
    <contour>
      <point x="301.45454545454544" y="651.6363636363636" type="line"/>
      <point x="890.5454545454545" y="651.6363636363636" type="line"/>
      <point x="890.5454545454545" y="863.8181818181818" type="line"/>
      <point x="301.45454545454544" y="863.8181818181818" type="line"/>
    </contour>
    <contour>
      <point x="471.27272727272725" y="1599.6363636363637" type="line"/>
      <point x="684.3636363636364" y="1599.6363636363637" type="line"/>
      <point x="537.8181818181818" y="1895.6363636363637" type="line"/>
      <point x="286.90909090909093" y="1895.6363636363637" type="line"/>
    </contour>
  </outline>
</glyph>
<glyph name="Ecircumflex" format="2">
  <advance width="1045.2727272727273"/>
  <unicode hex="00CA"/>
  <anchor x="577.8181818181819" y="1520.0" name="_top"/>
  <anchor x="577.8181818181819" y="0.0" name="bottom"/>
  <anchor x="918.1818181818181" y="0.0" name="ogonek"/>
  <anchor x="577.8181818181819" y="1520.0" name="top"/>
  <anchor x="36.0" y="1480.0" name="topleft"/>
  <outline>
    <contour>
      <point x="122.54545454545455" y="0.0" type="line"/>
      <point x="998.1818181818181" y="0.0" type="line"/>
      <point x="998.1818181818181" y="212.18181818181816" type="line"/>
      <point x="364.0" y="212.18181818181816" type="line"/>
      <point x="364.0" y="1267.8181818181818" type="line"/>
      <point x="988.1818181818181" y="1267.8181818181818" type="line"/>
      <point x="988.1818181818181" y="1480.0" type="line"/>
      <point x="122.54545454545455" y="1480.0" type="line"/>
    </contour>
    <contour>
      <point x="301.45454545454544" y="651.6363636363636" type="line"/>
      <point x="890.5454545454545" y="651.6363636363636" type="line"/>
      <point x="890.5454545454545" y="863.8181818181818" type="line"/>
      <point x="301.45454545454544" y="863.8181818181818" type="line"/>
    </contour>
    <contour>
      <point x="278.3636363636364" y="1599.6363636363637" type="line"/>
      <point x="449.8181818181818" y="1599.6363636363637" type="line"/>
      <point x="593.4545454545455" y="1828.5454545454545" type="line"/>
      <point x="562.1818181818181" y="1828.5454545454545" type="line"/>
      <point x="705.8181818181819" y="1599.6363636363637" type="line"/>
      <point x="877.2727272727273" y="1599.6363636363637" type="line"/>
      <point x="683.4545454545455" y="1895.6363636363637" type="line"/>
      <point x="472.1818181818182" y="1895.6363636363637" type="line"/>
    </contour>
  </outline>
</glyph>
<glyph name="Edieresis" format="2">
  <advance width="1045.2727272727273"/>
  <unicode hex="00CB"/>
  <anchor x="577.8181818181819" y="1520.0" name="_top"/>
  <anchor x="577.8181818181819" y="0.0" name="bottom"/>
  <anchor x="918.1818181818181" y="0.0" name="ogonek"/>
  <anchor x="577.8181818181819" y="1520.0" name="top"/>
  <anchor x="36.0" y="1480.0" name="topleft"/>
  <outline>
    <contour>
      <point x="122.54545454545455" y="0.0" type="line"/>
      <point x="998.1818181818181" y="0.0" type="line"/>
      <point x="998.1818181818181" y="212.18181818181816" type="line"/>
      <point x="364.0" y="212.18181818181816" type="line"/>
      <point x="364.0" y="1267.8181818181818" type="line"/>
      <point x="988.1818181818181" y="1267.8181818181818" type="line"/>
      <point x="988.1818181818181" y="1480.0" type="line"/>
      <point x="122.54545454545455" y="1480.0" type="line"/>
    </contour>
    <contour>
      <point x="301.45454545454544" y="651.6363636363636" type="line"/>
      <point x="890.5454545454545" y="651.6363636363636" type="line"/>
      <point x="890.5454545454545" y="863.8181818181818" type="line"/>
      <point x="301.45454545454544" y="863.8181818181818" type="line"/>
    </contour>
    <contour>
      <point x="796.0" y="1624.5454545454545" type="curve" smooth="yes"/>
      <point x="884.3636363636364" y="1624.5454545454545"/>
      <point x="937.6363636363636" y="1670.3636363636363"/>
      <point x="937.6363636363636" y="1750.909090909091" type="curve" smooth="yes"/>
      <point x="937.6363636363636" y="1831.4545454545455"/>
      <point x="884.3636363636364" y="1878.1818181818182"/>
      <point x="796.0" y="1878.1818181818182" type="curve" smooth="yes"/>
      <point x="707.6363636363636" y="1878.1818181818182"/>
      <point x="654.3636363636364" y="1831.4545454545455"/>
      <point x="654.3636363636364" y="1750.909090909091" type="curve" smooth="yes"/>
      <point x="654.3636363636364" y="1670.3636363636363"/>
      <point x="707.6363636363636" y="1624.5454545454545"/>
    </contour>
    <contour>
      <point x="359.6363636363636" y="1624.5454545454545" type="curve" smooth="yes"/>
      <point x="448.0" y="1624.5454545454545"/>
      <point x="501.27272727272725" y="1670.3636363636363"/>
      <point x="501.27272727272725" y="1750.909090909091" type="curve" smooth="yes"/>
      <point x="501.27272727272725" y="1831.4545454545455"/>
      <point x="448.0" y="1878.1818181818182"/>
      <point x="359.6363636363636" y="1878.1818181818182" type="curve" smooth="yes"/>
      <point x="271.27272727272725" y="1878.1818181818182"/>
      <point x="218.0" y="1831.4545454545455"/>
      <point x="218.0" y="1750.909090909091" type="curve" smooth="yes"/>
      <point x="218.0" y="1670.3636363636363"/>
      <point x="271.27272727272725" y="1624.5454545454545"/>
    </contour>
  </outline>
</glyph>
<glyph name="Igrave" format="2">
  <advance width="489.8181818181818"/>
  <unicode hex="00CC"/>
  <anchor x="244.9090909090909" y="1520.0" name="_top"/>
  <anchor x="244.9090909090909" y="0.0" name="bottom"/>
  <anchor x="367.27272727272725" y="0.0" name="ogonek"/>
  <anchor x="244.9090909090909" y="1520.0" name="top"/>
  <outline>
    <contour>
      <point x="122.54545454545455" y="0.0" type="line"/>
      <point x="367.27272727272725" y="0.0" type="line"/>
      <point x="367.27272727272725" y="1480.0" type="line"/>
      <point x="122.54545454545455" y="1480.0" type="line"/>
    </contour>
    <contour>
      <point x="138.36363636363637" y="1599.6363636363637" type="line"/>
      <point x="351.45454545454544" y="1599.6363636363637" type="line"/>
      <point x="204.9090909090909" y="1895.6363636363637" type="line"/>
      <point x="-46.0" y="1895.6363636363637" type="line"/>
    </contour>
  </outline>
</glyph>
<glyph name="Iacute" format="2">
  <advance width="489.8181818181818"/>
  <unicode hex="00CD"/>
  <anchor x="244.9090909090909" y="1520.0" name="_top"/>
  <anchor x="244.9090909090909" y="0.0" name="bottom"/>
  <anchor x="367.27272727272725" y="0.0" name="ogonek"/>
  <anchor x="244.9090909090909" y="1520.0" name="top"/>
  <outline>
    <contour>
      <point x="122.54545454545455" y="0.0" type="line"/>
      <point x="367.27272727272725" y="0.0" type="line"/>
      <point x="367.27272727272725" y="1480.0" type="line"/>
      <point x="122.54545454545455" y="1480.0" type="line"/>
    </contour>
    <contour>
      <point x="138.36363636363637" y="1599.6363636363637" type="line"/>
      <point x="351.45454545454544" y="1599.6363636363637" type="line"/>
      <point x="535.8181818181818" y="1895.6363636363637" type="line"/>
      <point x="284.90909090909093" y="1895.6363636363637" type="line"/>
    </contour>
  </outline>
</glyph>
<glyph name="Icircumflex" format="2">
  <advance width="489.8181818181818"/>
  <unicode hex="00CE"/>
  <anchor x="244.9090909090909" y="1520.0" name="_top"/>
  <anchor x="244.9090909090909" y="0.0" name="bottom"/>
  <anchor x="367.27272727272725" y="0.0" name="ogonek"/>
  <anchor x="244.9090909090909" y="1520.0" name="top"/>
  <outline>
    <contour>
      <point x="122.54545454545455" y="0.0" type="line"/>
      <point x="367.27272727272725" y="0.0" type="line"/>
      <point x="367.27272727272725" y="1480.0" type="line"/>
      <point x="122.54545454545455" y="1480.0" type="line"/>
    </contour>
    <contour>
      <point x="-54.54545454545455" y="1599.6363636363637" type="line"/>
      <point x="116.9090909090909" y="1599.6363636363637" type="line"/>
      <point x="260.54545454545456" y="1828.5454545454545" type="line"/>
      <point x="229.27272727272725" y="1828.5454545454545" type="line"/>
      <point x="372.90909090909093" y="1599.6363636363637" type="line"/>
      <point x="544.3636363636364" y="1599.6363636363637" type="line"/>
      <point x="350.5454545454545" y="1895.6363636363637" type="line"/>
      <point x="139.27272727272728" y="1895.6363636363637" type="line"/>
    </contour>
  </outline>
</glyph>
<glyph name="Idieresis" format="2">
  <advance width="489.8181818181818"/>
  <unicode hex="00CF"/>
  <anchor x="244.9090909090909" y="1520.0" name="_top"/>
  <anchor x="244.9090909090909" y="0.0" name="bottom"/>
  <anchor x="367.27272727272725" y="0.0" name="ogonek"/>
  <anchor x="244.9090909090909" y="1520.0" name="top"/>
  <outline>
    <contour>
      <point x="122.54545454545455" y="0.0" type="line"/>
      <point x="367.27272727272725" y="0.0" type="line"/>
      <point x="367.27272727272725" y="1480.0" type="line"/>
      <point x="122.54545454545455" y="1480.0" type="line"/>
    </contour>
    <contour>
      <point x="463.09090909090907" y="1624.5454545454545" type="curve" smooth="yes"/>
      <point x="551.4545454545455" y="1624.5454545454545"/>
      <point x="604.7272727272727" y="1670.3636363636363"/>
      <point x="604.7272727272727" y="1750.909090909091" type="curve" smooth="yes"/>
      <point x="604.7272727272727" y="1831.4545454545455"/>
      <point x="551.4545454545455" y="1878.1818181818182"/>
      <point x="463.09090909090907" y="1878.1818181818182" type="curve" smooth="yes"/>
      <point x="374.72727272727275" y="1878.1818181818182"/>
      <point x="321.45454545454544" y="1831.4545454545455"/>
      <point x="321.45454545454544" y="1750.909090909091" type="curve" smooth="yes"/>
      <point x="321.45454545454544" y="1670.3636363636363"/>
      <point x="374.72727272727275" y="1624.5454545454545"/>
    </contour>
    <contour>
      <point x="26.727272727272727" y="1624.5454545454545" type="curve" smooth="yes"/>
      <point x="115.0909090909091" y="1624.5454545454545"/>
      <point x="168.36363636363637" y="1670.3636363636363"/>
      <point x="168.36363636363637" y="1750.909090909091" type="curve" smooth="yes"/>
      <point x="168.36363636363637" y="1831.4545454545455"/>
      <point x="115.0909090909091" y="1878.1818181818182"/>
      <point x="26.727272727272727" y="1878.1818181818182" type="curve" smooth="yes"/>
      <point x="-61.63636363636363" y="1878.1818181818182"/>
      <point x="-114.9090909090909" y="1831.4545454545455"/>
      <point x="-114.9090909090909" y="1750.909090909091" type="curve" smooth="yes"/>
      <point x="-114.9090909090909" y="1670.3636363636363"/>
      <point x="-61.63636363636363" y="1624.5454545454545"/>
    </contour>
  </outline>
</glyph>
<glyph name="Ntilde" format="2">
  <advance width="1320.0"/>
  <unicode hex="00D1"/>
  <anchor x="660.0" y="1520.0" name="_top"/>
  <anchor x="660.0" y="0.0" name="bottom"/>
  <anchor x="660.0" y="1520.0" name="top"/>
  <outline>
    <contour>
      <point x="122.54545454545455" y="0.0" type="line"/>
      <point x="352.1818181818182" y="0.0" type="line"/>
      <point x="352.1818181818182" y="1152.7272727272727" type="line"/>
      <point x="306.0" y="1152.7272727272727" type="line"/>
      <point x="950.1818181818182" y="0.0" type="line"/>
      <point x="1197.4545454545455" y="0.0" type="line"/>
      <point x="1197.4545454545455" y="1480.0" type="line"/>
      <point x="967.8181818181819" y="1480.0" type="line"/>
      <point x="967.8181818181819" y="327.27272727272725" type="line"/>
      <point x="1014.0" y="327.27272727272725" type="line"/>
      <point x="369.8181818181818" y="1480.0" type="line"/>
      <point x="122.54545454545455" y="1480.0" type="line"/>
    </contour>
    <contour>
      <point x="810.9090909090909" y="1636.0" type="curve" smooth="yes"/>
      <point x="887.4545454545455" y="1636.0"/>
      <point x="941.0909090909091" y="1658.909090909091"/>
      <point x="984.1818181818181" y="1705.6363636363637" type="curve"/>
      <point x="984.1818181818181" y="1863.2727272727273" type="line"/>
      <point x="933.0909090909091" y="1814.1818181818182"/>
      <point x="884.3636363636364" y="1789.090909090909"/>
      <point x="813.0909090909091" y="1789.090909090909" type="curve" smooth="yes"/>
      <point x="713.6363636363636" y="1789.090909090909"/>
      <point x="629.8181818181818" y="1869.2727272727273"/>
      <point x="509.09090909090907" y="1869.2727272727273" type="curve" smooth="yes"/>
      <point x="432.54545454545456" y="1869.2727272727273"/>
      <point x="378.90909090909093" y="1845.2727272727273"/>
      <point x="335.8181818181818" y="1798.5454545454545" type="curve"/>
      <point x="335.8181818181818" y="1640.909090909091" type="line"/>
      <point x="386.90909090909093" y="1690.0"/>
      <point x="435.6363636363636" y="1715.090909090909"/>
      <point x="506.90909090909093" y="1715.090909090909" type="curve" smooth="yes"/>
      <point x="606.3636363636364" y="1715.090909090909"/>
      <point x="690.1818181818181" y="1636.0"/>
    </contour>
  </outline>
</glyph>
<glyph name="Otilde" format="2">
  <advance width="1290.5454545454545"/>
  <unicode hex="00D5"/>
  <anchor x="645.2727272727273" y="1520.0" name="_top"/>
  <anchor x="645.2727272727273" y="0.0" name="bottom"/>
  <anchor x="645.2727272727273" y="740.0" name="center"/>
  <anchor x="813.6363636363636" y="0.0" name="ogonek"/>
  <anchor x="645.2727272727273" y="1520.0" name="top"/>
  <anchor x="40.18181818181818" y="1480.0" name="topleft"/>
  <anchor x="809.2727272727273" y="1480.0" name="topright"/>
  <outline>
    <contour>
      <point x="645.2727272727273" y="-19.09090909090909" type="curve" smooth="yes"/>
      <point x="987.0909090909091" y="-19.09090909090909"/>
      <point x="1216.5454545454545" y="194.0"/>
      <point x="1216.5454545454545" y="740.0" type="curve" smooth="yes"/>
      <point x="1216.5454545454545" y="1286.0"/>
      <point x="987.0909090909091" y="1499.090909090909"/>
      <point x="645.2727272727273" y="1499.090909090909" type="curve" smooth="yes"/>
      <point x="303.45454545454544" y="1499.090909090909"/>
      <point x="74.0" y="1286.0"/>
      <point x="74.0" y="740.0" type="curve" smooth="yes"/>
      <point x="74.0" y="194.0"/>
      <point x="303.45454545454544" y="-19.09090909090909"/>
    </contour>
    <contour>
      <point x="645.2727272727273" y="187.63636363636363" type="curve" smooth="yes"/>
      <point x="448.5454545454545" y="187.63636363636363"/>
      <point x="327.09090909090907" y="319.45454545454544"/>
      <point x="327.09090909090907" y="746.1818181818181" type="curve" smooth="yes"/>
      <point x="327.09090909090907" y="1160.5454545454545"/>
      <point x="448.5454545454545" y="1292.3636363636365"/>
      <point x="645.2727272727273" y="1292.3636363636365" type="curve" smooth="yes"/>
      <point x="842.0" y="1292.3636363636365"/>
      <point x="963.4545454545455" y="1160.5454545454545"/>
      <point x="963.4545454545455" y="733.8181818181819" type="curve" smooth="yes"/>
      <point x="963.4545454545455" y="319.45454545454544"/>
      <point x="842.0" y="187.63636363636363"/>
    </contour>
    <contour>
      <point x="796.1818181818181" y="1636.0" type="curve" smooth="yes"/>
      <point x="872.7272727272727" y="1636.0"/>
      <point x="926.3636363636364" y="1658.909090909091"/>
      <point x="969.4545454545455" y="1705.6363636363637" type="curve"/>
      <point x="969.4545454545455" y="1863.2727272727273" type="line"/>
      <point x="918.3636363636364" y="1814.1818181818182"/>
      <point x="869.6363636363636" y="1789.090909090909"/>
      <point x="798.3636363636364" y="1789.090909090909" type="curve" smooth="yes"/>
      <point x="698.9090909090909" y="1789.090909090909"/>
      <point x="615.0909090909091" y="1869.2727272727273"/>
      <point x="494.3636363636364" y="1869.2727272727273" type="curve" smooth="yes"/>
      <point x="417.8181818181818" y="1869.2727272727273"/>
      <point x="364.1818181818182" y="1845.2727272727273"/>
      <point x="321.09090909090907" y="1798.5454545454545" type="curve"/>
      <point x="321.09090909090907" y="1640.909090909091" type="line"/>
      <point x="372.1818181818182" y="1690.0"/>
      <point x="420.9090909090909" y="1715.090909090909"/>
      <point x="492.1818181818182" y="1715.090909090909" type="curve" smooth="yes"/>
      <point x="591.6363636363636" y="1715.090909090909"/>
      <point x="675.4545454545455" y="1636.0"/>
    </contour>
  </outline>
</glyph>
<glyph name="Odieresis" format="2">
  <advance width="1290.5454545454545"/>
  <unicode hex="00D6"/>
  <anchor x="645.2727272727273" y="1520.0" name="_top"/>
  <anchor x="645.2727272727273" y="0.0" name="bottom"/>
  <anchor x="645.2727272727273" y="740.0" name="center"/>
  <anchor x="813.6363636363636" y="0.0" name="ogonek"/>
  <anchor x="645.2727272727273" y="1520.0" name="top"/>
  <anchor x="40.18181818181818" y="1480.0" name="topleft"/>
  <anchor x="809.2727272727273" y="1480.0" name="topright"/>
  <outline>
    <contour>
      <point x="645.2727272727273" y="-19.09090909090909" type="curve" smooth="yes"/>
      <point x="987.0909090909091" y="-19.09090909090909"/>
      <point x="1216.5454545454545" y="194.0"/>
      <point x="1216.5454545454545" y="740.0" type="curve" smooth="yes"/>
      <point x="1216.5454545454545" y="1286.0"/>
      <point x="987.0909090909091" y="1499.090909090909"/>
      <point x="645.2727272727273" y="1499.090909090909" type="curve" smooth="yes"/>
      <point x="303.45454545454544" y="1499.090909090909"/>
      <point x="74.0" y="1286.0"/>
      <point x="74.0" y="740.0" type="curve" smooth="yes"/>
      <point x="74.0" y="194.0"/>
      <point x="303.45454545454544" y="-19.09090909090909"/>
    </contour>
    <contour>
      <point x="645.2727272727273" y="187.63636363636363" type="curve" smooth="yes"/>
      <point x="448.5454545454545" y="187.63636363636363"/>
      <point x="327.09090909090907" y="319.45454545454544"/>
      <point x="327.09090909090907" y="746.1818181818181" type="curve" smooth="yes"/>
      <point x="327.09090909090907" y="1160.5454545454545"/>
      <point x="448.5454545454545" y="1292.3636363636365"/>
      <point x="645.2727272727273" y="1292.3636363636365" type="curve" smooth="yes"/>
      <point x="842.0" y="1292.3636363636365"/>
      <point x="963.4545454545455" y="1160.5454545454545"/>
      <point x="963.4545454545455" y="733.8181818181819" type="curve" smooth="yes"/>
      <point x="963.4545454545455" y="319.45454545454544"/>
      <point x="842.0" y="187.63636363636363"/>
    </contour>
    <contour>
      <point x="863.4545454545455" y="1624.5454545454545" type="curve" smooth="yes"/>
      <point x="951.8181818181818" y="1624.5454545454545"/>
      <point x="1005.090909090909" y="1670.3636363636363"/>
      <point x="1005.090909090909" y="1750.909090909091" type="curve" smooth="yes"/>
      <point x="1005.090909090909" y="1831.4545454545455"/>
      <point x="951.8181818181818" y="1878.1818181818182"/>
      <point x="863.4545454545455" y="1878.1818181818182" type="curve" smooth="yes"/>
      <point x="775.0909090909091" y="1878.1818181818182"/>
      <point x="721.8181818181819" y="1831.4545454545455"/>
      <point x="721.8181818181819" y="1750.909090909091" type="curve" smooth="yes"/>
      <point x="721.8181818181819" y="1670.3636363636363"/>
      <point x="775.0909090909091" y="1624.5454545454545"/>
    </contour>
    <contour>
      <point x="427.09090909090907" y="1624.5454545454545" type="curve" smooth="yes"/>
      <point x="515.4545454545455" y="1624.5454545454545"/>
      <point x="568.7272727272727" y="1670.3636363636363"/>
      <point x="568.7272727272727" y="1750.909090909091" type="curve" smooth="yes"/>
      <point x="568.7272727272727" y="1831.4545454545455"/>
      <point x="515.4545454545455" y="1878.1818181818182"/>
      <point x="427.09090909090907" y="1878.1818181818182" type="curve" smooth="yes"/>
      <point x="338.72727272727275" y="1878.1818181818182"/>
      <point x="285.45454545454544" y="1831.4545454545455"/>
      <point x="285.45454545454544" y="1750.909090909091" type="curve" smooth="yes"/>
      <point x="285.45454545454544" y="1670.3636363636363"/>
      <point x="338.72727272727275" y="1624.5454545454545"/>
    </contour>
  </outline>
</glyph>
<glyph name="multiply" format="2">
  <advance width="980.7272727272727"/>
  <unicode hex="00D7"/>
  <outline>
    <contour>
      <point x="222.72727272727272" y="356.72727272727275" type="line"/>
      <point x="490.3636363636364" y="624.3636363636364" type="line"/>
      <point x="758.0" y="356.72727272727275" type="line"/>
      <point x="893.6363636363636" y="492.3636363636364" type="line"/>
      <point x="626.0" y="760.0" type="line"/>
      <point x="893.6363636363636" y="1027.6363636363637" type="line"/>
      <point x="758.0" y="1163.2727272727273" type="line"/>
      <point x="490.3636363636364" y="895.6363636363636" type="line"/>
      <point x="222.72727272727272" y="1163.2727272727273" type="line"/>
      <point x="87.0909090909091" y="1027.6363636363637" type="line"/>
      <point x="354.72727272727275" y="760.0" type="line"/>
      <point x="87.0909090909091" y="492.3636363636364" type="line"/>
    </contour>
  </outline>
</glyph>
<glyph name="Uacute" format="2">
  <advance width="1274.3636363636363"/>
  <unicode hex="00DA"/>
  <anchor x="640.3636363636364" y="1520.0" name="_top"/>
  <anchor x="640.3636363636364" y="0.0" name="bottom"/>
  <anchor x="831.4545454545455" y="0.0" name="ogonek"/>
  <anchor x="640.3636363636364" y="1520.0" name="top"/>
  <anchor x="956.3636363636364" y="1480.0" name="topright"/>
  <outline>
    <contour>
      <point x="640.3636363636364" y="-19.09090909090909" type="curve" smooth="yes"/>
      <point x="994.9090909090909" y="-19.09090909090909"/>
      <point x="1158.7272727272727" y="152.54545454545453"/>
      <point x="1158.7272727272727" y="553.0909090909091" type="curve" smooth="yes"/>
      <point x="1158.7272727272727" y="1480.0" type="line"/>
      <point x="919.2727272727273" y="1480.0" type="line"/>
      <point x="919.2727272727273" y="524.5454545454545" type="line" smooth="yes"/>
      <point x="919.2727272727273" y="288.1818181818182"/>
      <point x="830.7272727272727" y="189.8181818181818"/>
      <point x="640.3636363636364" y="189.8181818181818" type="curve" smooth="yes"/>
      <point x="450.0" y="189.8181818181818"/>
      <point x="360.3636363636364" y="288.1818181818182"/>
      <point x="360.3636363636364" y="524.5454545454545" type="curve" smooth="yes"/>
      <point x="360.3636363636364" y="1480.0" type="line"/>
      <point x="115.63636363636364" y="1480.0" type="line"/>
      <point x="115.63636363636364" y="553.0909090909091" type="line" smooth="yes"/>
      <point x="115.63636363636364" y="152.54545454545453"/>
      <point x="283.6363636363636" y="-19.09090909090909"/>
    </contour>
    <contour>
      <point x="533.8181818181819" y="1599.6363636363637" type="line"/>
      <point x="746.9090909090909" y="1599.6363636363637" type="line"/>
      <point x="931.2727272727273" y="1895.6363636363637" type="line"/>
      <point x="680.3636363636364" y="1895.6363636363637" type="line"/>
    </contour>
  </outline>
</glyph>
<glyph name="Yacute" format="2">
  <advance width="1092.3636363636363"/>
  <unicode hex="00DD"/>
  <anchor x="547.8181818181818" y="1520.0" name="_top"/>
  <anchor x="546.7272727272727" y="0.0" name="bottom"/>
  <anchor x="547.8181818181818" y="1520.0" name="top"/>
  <anchor x="-19.636363636363633" y="1480.0" name="topleft"/>
  <outline>
    <contour>
      <point x="424.3636363636364" y="0.0" type="line"/>
      <point x="669.0909090909091" y="0.0" type="line"/>
      <point x="669.0909090909091" y="741.8181818181818" type="line"/>
      <point x="618.1818181818181" y="547.2727272727273" type="line"/>
      <point x="1134.7272727272727" y="1480.0" type="line"/>
      <point x="895.0909090909091" y="1480.0" type="line"/>
      <point x="519.6363636363636" y="803.6363636363636" type="line"/>
      <point x="586.9090909090909" y="803.6363636363636" type="line"/>
      <point x="209.8181818181818" y="1480.0" type="line"/>
      <point x="-49.272727272727266" y="1480.0" type="line"/>
      <point x="475.27272727272725" y="547.2727272727273" type="line"/>
      <point x="424.3636363636364" y="745.0909090909091" type="line"/>
    </contour>
    <contour>
      <point x="441.27272727272725" y="1599.6363636363637" type="line"/>
      <point x="654.3636363636364" y="1599.6363636363637" type="line"/>
      <point x="838.7272727272727" y="1895.6363636363637" type="line"/>
      <point x="587.8181818181819" y="1895.6363636363637" type="line"/>
    </contour>
  </outline>
</glyph>
<glyph name="Thorn" format="2">
  <advance width="1153.4545454545455"/>
  <unicode hex="00DE"/>
  <outline>
    <contour>
      <point x="122.54545454545455" y="0.0" type="line"/>
      <point x="367.27272727272725" y="0.0" type="line"/>
      <point x="367.27272727272725" y="241.8181818181818" type="line"/>
      <point x="412.1818181818182" y="239.0909090909091"/>
      <point x="450.72727272727275" y="237.0909090909091"/>
      <point x="500.72727272727275" y="237.0909090909091" type="curve" smooth="yes"/>
      <point x="881.6363636363636" y="237.0909090909091"/>
      <point x="1076.5454545454545" y="414.90909090909093"/>
      <point x="1076.5454545454545" y="759.0909090909091" type="curve" smooth="yes"/>
      <point x="1076.5454545454545" y="1121.2727272727273"/>
      <point x="880.5454545454545" y="1284.0"/>
      <point x="495.8181818181818" y="1284.0" type="curve" smooth="yes"/>
      <point x="449.8181818181818" y="1284.0"/>
      <point x="399.6363636363636" y="1279.2727272727273"/>
      <point x="367.27272727272725" y="1275.6363636363637" type="curve"/>
      <point x="367.27272727272725" y="1480.0" type="line"/>
      <point x="122.54545454545455" y="1480.0" type="line"/>
    </contour>
    <contour>
      <point x="503.45454545454544" y="438.3636363636364" type="curve" smooth="yes"/>
      <point x="453.45454545454544" y="438.3636363636364"/>
      <point x="410.9090909090909" y="440.3636363636364"/>
      <point x="367.27272727272725" y="446.1818181818182" type="curve"/>
      <point x="367.27272727272725" y="1071.090909090909" type="line"/>
      <point x="413.27272727272725" y="1078.909090909091"/>
      <point x="458.0" y="1082.7272727272727"/>
      <point x="514.3636363636364" y="1082.7272727272727" type="curve" smooth="yes"/>
      <point x="733.6363636363636" y="1082.7272727272727"/>
      <point x="836.5454545454545" y="985.2727272727273"/>
      <point x="836.5454545454545" y="755.0909090909091" type="curve" smooth="yes"/>
      <point x="836.5454545454545" y="533.0909090909091"/>
      <point x="729.0909090909091" y="438.3636363636364"/>
    </contour>
  </outline>
</glyph>
<glyph name="germandbls" format="2">
  <advance width="1293.8181818181818"/>
  <unicode hex="00DF"/>
  <outline>
    <contour>
      <point x="842.5454545454545" y="-20.18181818181818" type="curve" smooth="yes"/>
      <point x="1100.3636363636363" y="-20.18181818181818"/>
      <point x="1254.909090909091" y="107.27272727272727"/>
      <point x="1254.909090909091" y="317.27272727272725" type="curve" smooth="yes"/>
      <point x="1254.909090909091" y="485.6363636363636"/>
      <point x="1179.090909090909" y="579.2727272727273"/>
      <point x="1005.6363636363636" y="624.5454545454545" type="curve" smooth="yes"/>
      <point x="876.5454545454545" y="657.0909090909091" type="line" smooth="yes"/>
      <point x="804.5454545454545" y="676.9090909090909"/>
      <point x="770.3636363636364" y="711.4545454545455"/>
      <point x="770.3636363636364" y="777.2727272727273" type="curve" smooth="yes"/>
      <point x="770.3636363636364" y="850.1818181818182"/>
      <point x="825.8181818181818" y="913.2727272727273"/>
      <point x="989.090909090909" y="913.2727272727273" type="curve" smooth="yes"/>
      <point x="1038.3636363636363" y="913.2727272727273"/>
      <point x="1078.1818181818182" y="909.4545454545455"/>
      <point x="1118.0" y="901.6363636363636" type="curve"/>
      <point x="1135.8181818181818" y="969.2727272727273"/>
      <point x="1152.0" y="1063.2727272727273"/>
      <point x="1152.0" y="1155.4545454545455" type="curve" smooth="yes"/>
      <point x="1152.0" y="1504.0"/>
      <point x="957.0909090909091" y="1636.0"/>
      <point x="696.1818181818181" y="1636.0" type="curve" smooth="yes"/>
      <point x="372.0" y="1636.0"/>
      <point x="175.27272727272728" y="1443.6363636363637"/>
      <point x="175.27272727272728" y="1095.6363636363637" type="curve" smooth="yes"/>
      <point x="175.27272727272728" y="0.0" type="line"/>
      <point x="416.72727272727275" y="0.0" type="line"/>
      <point x="416.72727272727275" y="1091.8181818181818" type="line" smooth="yes"/>
      <point x="416.72727272727275" y="1351.2727272727273"/>
      <point x="518.5454545454545" y="1455.4545454545455"/>
      <point x="711.2727272727273" y="1455.4545454545455" type="curve" smooth="yes"/>
      <point x="860.3636363636364" y="1455.4545454545455"/>
      <point x="973.4545454545455" y="1381.6363636363637"/>
      <point x="973.4545454545455" y="1156.7272727272727" type="curve" smooth="yes"/>
      <point x="973.4545454545455" y="1094.0"/>
      <point x="965.2727272727273" y="1037.2727272727273"/>
      <point x="952.9090909090909" y="981.4545454545455" type="curve"/>
      <point x="1094.3636363636363" y="1092.7272727272727" type="line"/>
      <point x="1058.3636363636363" y="1098.5454545454545"/>
      <point x="998.7272727272727" y="1100.5454545454545"/>
      <point x="967.2727272727273" y="1100.5454545454545" type="curve" smooth="yes"/>
      <point x="691.4545454545455" y="1100.5454545454545"/>
      <point x="548.7272727272727" y="972.1818181818181"/>
      <point x="548.7272727272727" y="776.5454545454545" type="curve" smooth="yes"/>
      <point x="548.7272727272727" y="610.1818181818182"/>
      <point x="629.4545454545455" y="512.9090909090909"/>
      <point x="796.3636363636364" y="470.54545454545456" type="curve" smooth="yes"/>
      <point x="925.4545454545455" y="438.0" type="line" smooth="yes"/>
      <point x="996.5454545454545" y="418.1818181818182"/>
      <point x="1033.2727272727273" y="385.27272727272725"/>
      <point x="1033.2727272727273" y="311.09090909090907" type="curve" smooth="yes"/>
      <point x="1033.2727272727273" y="225.09090909090907"/>
      <point x="974.5454545454545" y="174.54545454545453"/>
      <point x="838.5454545454545" y="174.54545454545453" type="curve" smooth="yes"/>
      <point x="752.1818181818181" y="174.54545454545453"/>
      <point x="664.5454545454545" y="186.72727272727272"/>
      <point x="577.6363636363636" y="212.54545454545453" type="curve"/>
      <point x="577.6363636363636" y="16.90909090909091" type="line"/>
      <point x="661.8181818181818" y="-8.181818181818182"/>
      <point x="752.0" y="-20.18181818181818"/>
    </contour>
    <contour>
      <point x="8.0" y="897.2727272727273" type="line"/>
      <point x="280.0" y="897.2727272727273" type="line"/>
      <point x="280.0" y="1090.909090909091" type="line"/>
      <point x="8.0" y="1090.909090909091" type="line"/>
    </contour>
  </outline>
</glyph>
<glyph name="aacute" format="2">
  <advance width="937.0909090909091"/>
  <unicode hex="00E1"/>
  <anchor x="464.72727272727275" y="1200.0" name="_top"/>
  <anchor x="466.54545454545456" y="0.0" name="bottom"/>
  <anchor x="835.8181818181818" y="0.0" name="ogonek"/>
  <anchor x="464.72727272727275" y="1200.0" name="top"/>
  <outline>
    <contour>
      <point x="354.0" y="-19.272727272727273" type="curve" smooth="yes"/>
      <point x="461.45454545454544" y="-19.272727272727273"/>
      <point x="552.9090909090909" y="21.272727272727273"/>
      <point x="608.0" y="116.54545454545455" type="curve"/>
      <point x="620.3636363636364" y="116.54545454545455" type="line"/>
      <point x="638.3636363636364" y="0.0" type="line"/>
      <point x="835.8181818181818" y="0.0" type="line"/>
      <point x="835.8181818181818" y="695.0909090909091" type="line" smooth="yes"/>
      <point x="835.8181818181818" y="1003.2727272727273"/>
      <point x="703.6363636363636" y="1108.0"/>
      <point x="423.8181818181818" y="1108.0" type="curve" smooth="yes"/>
      <point x="328.54545454545456" y="1108.0"/>
      <point x="212.36363636363637" y="1093.090909090909"/>
      <point x="125.0909090909091" y="1067.2727272727273" type="curve"/>
      <point x="125.0909090909091" y="870.5454545454545" type="line"/>
      <point x="211.8181818181818" y="898.1818181818182"/>
      <point x="306.0" y="911.0909090909091"/>
      <point x="380.3636363636364" y="911.0909090909091" type="curve" smooth="yes"/>
      <point x="536.3636363636364" y="911.0909090909091"/>
      <point x="600.9090909090909" y="862.9090909090909"/>
      <point x="600.9090909090909" y="705.8181818181819" type="curve" smooth="yes"/>
      <point x="600.9090909090909" y="255.8181818181818" type="line"/>
      <point x="552.3636363636364" y="186.0"/>
      <point x="489.09090909090907" y="164.54545454545453"/>
      <point x="434.1818181818182" y="164.54545454545453" type="curve" smooth="yes"/>
      <point x="345.27272727272725" y="164.54545454545453"/>
      <point x="291.27272727272725" y="212.72727272727272"/>
      <point x="291.27272727272725" y="315.45454545454544" type="curve" smooth="yes"/>
      <point x="291.27272727272725" y="414.0"/>
      <point x="347.45454545454544" y="470.1818181818182"/>
      <point x="465.8181818181818" y="480.54545454545456" type="curve" smooth="yes"/>
      <point x="670.9090909090909" y="499.45454545454544" type="line"/>
      <point x="638.0" y="646.1818181818181" type="line"/>
      <point x="440.54545454545456" y="627.2727272727273" type="line" smooth="yes"/>
      <point x="168.36363636363637" y="605.4545454545455"/>
      <point x="53.63636363636364" y="490.3636363636364"/>
      <point x="53.63636363636364" y="287.8181818181818" type="curve" smooth="yes"/>
      <point x="53.63636363636364" y="96.18181818181819"/>
      <point x="176.1818181818182" y="-19.272727272727273"/>
    </contour>
    <contour>
      <point x="360.3636363636364" y="1240.0" type="line"/>
      <point x="569.0909090909091" y="1240.0" type="line"/>
      <point x="785.4545454545455" y="1616.0" type="line"/>
      <point x="541.0909090909091" y="1616.0" type="line"/>
    </contour>
  </outline>
</glyph>
<glyph name="atilde" format="2">
  <advance width="937.0909090909091"/>
  <unicode hex="00E3"/>
  <anchor x="464.72727272727275" y="1200.0" name="_top"/>
  <anchor x="466.54545454545456" y="0.0" name="bottom"/>
  <anchor x="835.8181818181818" y="0.0" name="ogonek"/>
  <anchor x="464.72727272727275" y="1200.0" name="top"/>
  <outline>
    <contour>
      <point x="354.0" y="-19.272727272727273" type="curve" smooth="yes"/>
      <point x="461.45454545454544" y="-19.272727272727273"/>
      <point x="552.9090909090909" y="21.272727272727273"/>
      <point x="608.0" y="116.54545454545455" type="curve"/>
      <point x="620.3636363636364" y="116.54545454545455" type="line"/>
      <point x="638.3636363636364" y="0.0" type="line"/>
      <point x="835.8181818181818" y="0.0" type="line"/>
      <point x="835.8181818181818" y="695.0909090909091" type="line" smooth="yes"/>
      <point x="835.8181818181818" y="1003.2727272727273"/>
      <point x="703.6363636363636" y="1108.0"/>
      <point x="423.8181818181818" y="1108.0" type="curve" smooth="yes"/>
      <point x="328.54545454545456" y="1108.0"/>
      <point x="212.36363636363637" y="1093.090909090909"/>
      <point x="125.0909090909091" y="1067.2727272727273" type="curve"/>
      <point x="125.0909090909091" y="870.5454545454545" type="line"/>
      <point x="211.8181818181818" y="898.1818181818182"/>
      <point x="306.0" y="911.0909090909091"/>
      <point x="380.3636363636364" y="911.0909090909091" type="curve" smooth="yes"/>
      <point x="536.3636363636364" y="911.0909090909091"/>
      <point x="600.9090909090909" y="862.9090909090909"/>
      <point x="600.9090909090909" y="705.8181818181819" type="curve" smooth="yes"/>
      <point x="600.9090909090909" y="255.8181818181818" type="line"/>
      <point x="552.3636363636364" y="186.0"/>
      <point x="489.09090909090907" y="164.54545454545453"/>
      <point x="434.1818181818182" y="164.54545454545453" type="curve" smooth="yes"/>
      <point x="345.27272727272725" y="164.54545454545453"/>
      <point x="291.27272727272725" y="212.72727272727272"/>
      <point x="291.27272727272725" y="315.45454545454544" type="curve" smooth="yes"/>
      <point x="291.27272727272725" y="414.0"/>
      <point x="347.45454545454544" y="470.1818181818182"/>
      <point x="465.8181818181818" y="480.54545454545456" type="curve" smooth="yes"/>
      <point x="670.9090909090909" y="499.45454545454544" type="line"/>
      <point x="638.0" y="646.1818181818181" type="line"/>
      <point x="440.54545454545456" y="627.2727272727273" type="line" smooth="yes"/>
      <point x="168.36363636363637" y="605.4545454545455"/>
      <point x="53.63636363636364" y="490.3636363636364"/>
      <point x="53.63636363636364" y="287.8181818181818" type="curve" smooth="yes"/>
      <point x="53.63636363636364" y="96.18181818181819"/>
      <point x="176.1818181818182" y="-19.272727272727273"/>
    </contour>
    <contour>
      <point x="604.5454545454545" y="1309.090909090909" type="curve" smooth="yes"/>
      <point x="675.8181818181818" y="1309.090909090909"/>
      <point x="729.4545454545455" y="1333.090909090909"/>
      <point x="772.5454545454545" y="1382.0" type="curve"/>
      <point x="772.5454545454545" y="1548.3636363636363" type="line"/>
      <point x="721.4545454545455" y="1492.7272727272727"/>
      <point x="672.7272727272727" y="1466.5454545454545"/>
      <point x="606.7272727272727" y="1466.5454545454545" type="curve" smooth="yes"/>
      <point x="518.3636363636364" y="1466.5454545454545"/>
      <point x="434.54545454545456" y="1554.3636363636363"/>
      <point x="324.9090909090909" y="1554.3636363636363" type="curve" smooth="yes"/>
      <point x="253.63636363636363" y="1554.3636363636363"/>
      <point x="200.0" y="1530.3636363636363"/>
      <point x="156.9090909090909" y="1481.4545454545455" type="curve"/>
      <point x="156.9090909090909" y="1315.090909090909" type="line"/>
      <point x="208.0" y="1370.7272727272727"/>
      <point x="256.72727272727275" y="1396.909090909091"/>
      <point x="322.72727272727275" y="1396.909090909091" type="curve" smooth="yes"/>
      <point x="411.09090909090907" y="1396.909090909091"/>
      <point x="494.9090909090909" y="1309.090909090909"/>
    </contour>
  </outline>
</glyph>
<glyph name="ccedilla" format="2">
  <advance width="779.4545454545455"/>
  <unicode hex="00E7"/>
  <anchor x="454.3636363636364" y="0.0" name="_bottom"/>
  <anchor x="454.3636363636364" y="0.0" name="bottom"/>
  <anchor x="443.45454545454544" y="1200.0" name="top"/>
  <outline>
    <contour>
      <point x="521.4545454545455" y="-20.18181818181818" type="curve" smooth="yes"/>
      <point x="595.8181818181818" y="-20.18181818181818"/>
      <point x="675.6363636363636" y="-8.181818181818182"/>
      <point x="751.4545454545455" y="17.636363636363637" type="curve"/>
      <point x="751.4545454545455" y="218.72727272727272" type="line"/>
      <point x="682.7272727272727" y="195.27272727272725"/>
      <point x="624.5454545454545" y="184.36363636363635"/>
      <point x="573.0909090909091" y="184.36363636363635" type="curve" smooth="yes"/>
      <point x="401.0909090909091" y="184.36363636363635"/>
      <point x="313.8181818181818" y="268.9090909090909"/>
      <point x="313.8181818181818" y="549.4545454545455" type="curve" smooth="yes"/>
      <point x="313.8181818181818" y="817.2727272727273"/>
      <point x="404.72727272727275" y="903.4545454545455"/>
      <point x="605.2727272727273" y="903.4545454545455" type="curve" smooth="yes"/>
      <point x="645.4545454545455" y="903.4545454545455"/>
      <point x="699.6363636363636" y="898.5454545454545"/>
      <point x="751.4545454545455" y="887.0909090909091" type="curve"/>
      <point x="751.4545454545455" y="1088.1818181818182" type="line"/>
      <point x="690.1818181818181" y="1102.0"/>
      <point x="626.0" y="1108.0"/>
      <point x="562.0" y="1108.0" type="curve" smooth="yes"/>
      <point x="250.1818181818182" y="1108.0"/>
      <point x="61.81818181818182" y="952.9090909090909"/>
      <point x="61.81818181818182" y="544.3636363636364" type="curve" smooth="yes"/>
      <point x="61.81818181818182" y="143.45454545454544"/>
      <point x="227.27272727272728" y="-20.18181818181818"/>
    </contour>
    <contour>
      <point x="446.0" y="-432.72727272727275" type="curve" smooth="yes"/>
      <point x="601.0909090909091" y="-432.72727272727275"/>
      <point x="672.0" y="-363.8181818181818"/>
      <point x="672.0" y="-260.1818181818182" type="curve" smooth="yes"/>
      <point x="672.0" y="-152.54545454545456"/>
      <point x="595.0909090909091" y="-91.0909090909091"/>
      <point x="464.1818181818182" y="-91.0909090909091" type="curve"/>
      <point x="525.8181818181818" y="-131.0909090909091" type="line"/>
      <point x="525.8181818181818" y="20.0" type="line"/>
      <point x="398.90909090909093" y="20.0" type="line"/>
      <point x="398.90909090909093" y="-171.63636363636363" type="line"/>
      <point x="433.6363636363636" y="-171.63636363636363" type="line" smooth="yes"/>
      <point x="499.27272727272725" y="-171.63636363636363"/>
      <point x="535.0909090909091" y="-197.27272727272728"/>
      <point x="535.0909090909091" y="-251.45454545454547" type="curve" smooth="yes"/>
      <point x="535.0909090909091" y="-304.0"/>
      <point x="503.27272727272725" y="-327.27272727272725"/>
      <point x="436.72727272727275" y="-327.27272727272725" type="curve" smooth="yes"/>
      <point x="395.09090909090907" y="-327.27272727272725"/>
      <point x="340.72727272727275" y="-319.27272727272725"/>
      <point x="287.8181818181818" y="-295.8181818181818" type="curve"/>
      <point x="287.8181818181818" y="-403.09090909090907" type="line"/>
      <point x="333.45454545454544" y="-421.8181818181818"/>
      <point x="388.1818181818182" y="-432.72727272727275"/>
    </contour>
  </outline>
</glyph>
<glyph name="eacute" format="2">
  <advance width="929.8181818181818"/>
  <unicode hex="00E9"/>
  <anchor x="477.6363636363636" y="1200.0" name="_top"/>
  <anchor x="477.6363636363636" y="0.0" name="bottom"/>
  <anchor x="789.6363636363636" y="0.0" name="ogonek"/>
  <anchor x="477.6363636363636" y="1200.0" name="top"/>
  <outline>
    <contour>
      <point x="560.3636363636364" y="-20.18181818181818" type="curve" smooth="yes"/>
      <point x="648.9090909090909" y="-20.18181818181818"/>
      <point x="729.6363636363636" y="-9.09090909090909"/>
      <point x="827.6363636363636" y="17.636363636363637" type="curve"/>
      <point x="827.6363636363636" y="214.36363636363637" type="line"/>
      <point x="739.0909090909091" y="189.8181818181818"/>
      <point x="662.3636363636364" y="176.72727272727272"/>
      <point x="589.4545454545455" y="176.72727272727272" type="curve" smooth="yes"/>
      <point x="385.09090909090907" y="176.72727272727272"/>
      <point x="307.27272727272725" y="253.45454545454544"/>
      <point x="307.27272727272725" y="500.1818181818182" type="curve" smooth="yes"/>
      <point x="307.27272727272725" y="603.2727272727273" type="line" smooth="yes"/>
      <point x="307.27272727272725" y="874.5454545454545"/>
      <point x="376.9090909090909" y="942.7272727272727"/>
      <point x="483.8181818181818" y="942.7272727272727" type="curve" smooth="yes"/>
      <point x="588.7272727272727" y="942.7272727272727"/>
      <point x="650.9090909090909" y="874.5454545454545"/>
      <point x="650.9090909090909" y="603.2727272727273" type="curve"/>
      <point x="687.6363636363636" y="622.9090909090909" type="line"/>
      <point x="236.72727272727272" y="622.9090909090909" type="line"/>
      <point x="236.72727272727272" y="468.54545454545456" type="line"/>
      <point x="878.9090909090909" y="468.54545454545456" type="line"/>
      <point x="878.9090909090909" y="542.1818181818181" type="line" smooth="yes"/>
      <point x="878.9090909090909" y="931.8181818181819"/>
      <point x="738.1818181818181" y="1108.0"/>
      <point x="484.9090909090909" y="1108.0" type="curve" smooth="yes"/>
      <point x="221.63636363636363" y="1108.0"/>
      <point x="61.81818181818182" y="930.0"/>
      <point x="61.81818181818182" y="548.7272727272727" type="curve" smooth="yes"/>
      <point x="61.81818181818182" y="139.0909090909091"/>
      <point x="217.8181818181818" y="-20.18181818181818"/>
    </contour>
    <contour>
      <point x="373.27272727272725" y="1240.0" type="line"/>
      <point x="582.0" y="1240.0" type="line"/>
      <point x="798.3636363636364" y="1616.0" type="line"/>
      <point x="554.0" y="1616.0" type="line"/>
    </contour>
  </outline>
</glyph>
<glyph name="edieresis" format="2">
  <advance width="929.8181818181818"/>
  <unicode hex="00EB"/>
  <anchor x="477.6363636363636" y="1200.0" name="_top"/>
  <anchor x="477.6363636363636" y="0.0" name="bottom"/>
  <anchor x="789.6363636363636" y="0.0" name="ogonek"/>
  <anchor x="477.6363636363636" y="1200.0" name="top"/>
  <outline>
    <contour>
      <point x="560.3636363636364" y="-20.18181818181818" type="curve" smooth="yes"/>
      <point x="648.9090909090909" y="-20.18181818181818"/>
      <point x="729.6363636363636" y="-9.09090909090909"/>
      <point x="827.6363636363636" y="17.636363636363637" type="curve"/>
      <point x="827.6363636363636" y="214.36363636363637" type="line"/>
      <point x="739.0909090909091" y="189.8181818181818"/>
      <point x="662.3636363636364" y="176.72727272727272"/>
      <point x="589.4545454545455" y="176.72727272727272" type="curve" smooth="yes"/>
      <point x="385.09090909090907" y="176.72727272727272"/>
      <point x="307.27272727272725" y="253.45454545454544"/>
      <point x="307.27272727272725" y="500.1818181818182" type="curve" smooth="yes"/>
      <point x="307.27272727272725" y="603.2727272727273" type="line" smooth="yes"/>
      <point x="307.27272727272725" y="874.5454545454545"/>
      <point x="376.9090909090909" y="942.7272727272727"/>
      <point x="483.8181818181818" y="942.7272727272727" type="curve" smooth="yes"/>
      <point x="588.7272727272727" y="942.7272727272727"/>
      <point x="650.9090909090909" y="874.5454545454545"/>
      <point x="650.9090909090909" y="603.2727272727273" type="curve"/>
      <point x="687.6363636363636" y="622.9090909090909" type="line"/>
      <point x="236.72727272727272" y="622.9090909090909" type="line"/>
      <point x="236.72727272727272" y="468.54545454545456" type="line"/>
      <point x="878.9090909090909" y="468.54545454545456" type="line"/>
      <point x="878.9090909090909" y="542.1818181818181" type="line" smooth="yes"/>
      <point x="878.9090909090909" y="931.8181818181819"/>
      <point x="738.1818181818181" y="1108.0"/>
      <point x="484.9090909090909" y="1108.0" type="curve" smooth="yes"/>
      <point x="221.63636363636363" y="1108.0"/>
      <point x="61.81818181818182" y="930.0"/>
      <point x="61.81818181818182" y="548.7272727272727" type="curve" smooth="yes"/>
      <point x="61.81818181818182" y="139.0909090909091"/>
      <point x="217.8181818181818" y="-20.18181818181818"/>
    </contour>
    <contour>
      <point x="682.3636363636364" y="1283.6363636363637" type="curve" smooth="yes"/>
      <point x="766.3636363636364" y="1283.6363636363637"/>
      <point x="821.8181818181818" y="1334.909090909091"/>
      <point x="821.8181818181818" y="1419.8181818181818" type="curve" smooth="yes"/>
      <point x="821.8181818181818" y="1504.7272727272727"/>
      <point x="766.3636363636364" y="1556.909090909091"/>
      <point x="682.3636363636364" y="1556.909090909091" type="curve" smooth="yes"/>
      <point x="598.3636363636364" y="1556.909090909091"/>
      <point x="542.9090909090909" y="1504.7272727272727"/>
      <point x="542.9090909090909" y="1419.8181818181818" type="curve" smooth="yes"/>
      <point x="542.9090909090909" y="1334.909090909091"/>
      <point x="598.3636363636364" y="1283.6363636363637"/>
    </contour>
    <contour>
      <point x="272.90909090909093" y="1283.6363636363637" type="curve" smooth="yes"/>
      <point x="356.9090909090909" y="1283.6363636363637"/>
      <point x="412.3636363636364" y="1334.909090909091"/>
      <point x="412.3636363636364" y="1419.8181818181818" type="curve" smooth="yes"/>
      <point x="412.3636363636364" y="1504.7272727272727"/>
      <point x="356.9090909090909" y="1556.909090909091"/>
      <point x="272.90909090909093" y="1556.909090909091" type="curve" smooth="yes"/>
      <point x="188.9090909090909" y="1556.909090909091"/>
      <point x="133.45454545454547" y="1504.7272727272727"/>
      <point x="133.45454545454547" y="1419.8181818181818" type="curve" smooth="yes"/>
      <point x="133.45454545454547" y="1334.909090909091"/>
      <point x="188.9090909090909" y="1283.6363636363637"/>
    </contour>
  </outline>
</glyph>
<glyph name="iacute" format="2">
  <advance width="458.5454545454545"/>
  <unicode hex="00ED"/>
  <anchor x="229.27272727272725" y="1200.0" name="_top"/>
  <anchor x="229.27272727272725" y="0.0" name="bottom"/>
  <anchor x="350.5454545454545" y="0.0" name="ogonek"/>
  <anchor x="229.27272727272725" y="1200.0" name="top"/>
  <outline>
    <contour>
      <point x="108.0" y="0.0" type="line"/>
      <point x="350.5454545454545" y="0.0" type="line"/>
      <point x="350.5454545454545" y="1090.909090909091" type="line"/>
      <point x="108.0" y="1090.909090909091" type="line"/>
    </contour>
    <contour>
      <point x="124.9090909090909" y="1240.0" type="line"/>
      <point x="333.6363636363636" y="1240.0" type="line"/>
      <point x="550.0" y="1616.0" type="line"/>
      <point x="305.6363636363636" y="1616.0" type="line"/>
    </contour>
  </outline>
</glyph>
<glyph name="icircumflex" format="2">
  <advance width="458.5454545454545"/>
  <unicode hex="00EE"/>
  <anchor x="229.27272727272725" y="1200.0" name="_top"/>
  <anchor x="229.27272727272725" y="0.0" name="bottom"/>
  <anchor x="350.5454545454545" y="0.0" name="ogonek"/>
  <anchor x="229.27272727272725" y="1200.0" name="top"/>
  <outline>
    <contour>
      <point x="108.0" y="0.0" type="line"/>
      <point x="350.5454545454545" y="0.0" type="line"/>
      <point x="350.5454545454545" y="1090.909090909091" type="line"/>
      <point x="108.0" y="1090.909090909091" type="line"/>
    </contour>
    <contour>
      <point x="-61.09090909090909" y="1240.0" type="line"/>
      <point x="107.63636363636363" y="1240.0" type="line"/>
      <point x="244.9090909090909" y="1536.5454545454545" type="line"/>
      <point x="213.63636363636363" y="1536.5454545454545" type="line"/>
      <point x="350.9090909090909" y="1240.0" type="line"/>
      <point x="519.6363636363636" y="1240.0" type="line"/>
      <point x="334.9090909090909" y="1616.0" type="line"/>
      <point x="123.63636363636364" y="1616.0" type="line"/>
    </contour>
  </outline>
</glyph>
<glyph name="idieresis" format="2">
  <advance width="458.5454545454545"/>
  <unicode hex="00EF"/>
  <anchor x="229.27272727272725" y="1200.0" name="_top"/>
  <anchor x="229.27272727272725" y="0.0" name="bottom"/>
  <anchor x="350.5454545454545" y="0.0" name="ogonek"/>
  <anchor x="229.27272727272725" y="1200.0" name="top"/>
  <outline>
    <contour>
      <point x="108.0" y="0.0" type="line"/>
      <point x="350.5454545454545" y="0.0" type="line"/>
      <point x="350.5454545454545" y="1090.909090909091" type="line"/>
      <point x="108.0" y="1090.909090909091" type="line"/>
    </contour>
    <contour>
      <point x="434.0" y="1283.6363636363637" type="curve" smooth="yes"/>
      <point x="518.0" y="1283.6363636363637"/>
      <point x="573.4545454545455" y="1334.909090909091"/>
      <point x="573.4545454545455" y="1419.8181818181818" type="curve" smooth="yes"/>
      <point x="573.4545454545455" y="1504.7272727272727"/>
      <point x="518.0" y="1556.909090909091"/>
      <point x="434.0" y="1556.909090909091" type="curve" smooth="yes"/>
      <point x="350.0" y="1556.909090909091"/>
      <point x="294.54545454545456" y="1504.7272727272727"/>
      <point x="294.54545454545456" y="1419.8181818181818" type="curve" smooth="yes"/>
      <point x="294.54545454545456" y="1334.909090909091"/>
      <point x="350.0" y="1283.6363636363637"/>
    </contour>
    <contour>
      <point x="24.545454545454547" y="1283.6363636363637" type="curve" smooth="yes"/>
      <point x="108.54545454545453" y="1283.6363636363637"/>
      <point x="164.0" y="1334.909090909091"/>
      <point x="164.0" y="1419.8181818181818" type="curve" smooth="yes"/>
      <point x="164.0" y="1504.7272727272727"/>
      <point x="108.54545454545453" y="1556.909090909091"/>
      <point x="24.545454545454547" y="1556.909090909091" type="curve" smooth="yes"/>
      <point x="-59.45454545454545" y="1556.909090909091"/>
      <point x="-114.9090909090909" y="1504.7272727272727"/>
      <point x="-114.9090909090909" y="1419.8181818181818" type="curve" smooth="yes"/>
      <point x="-114.9090909090909" y="1334.909090909091"/>
      <point x="-59.45454545454545" y="1283.6363636363637"/>
    </contour>
  </outline>
</glyph>
